%FSLAX25Y25*%
%MOIN*%
G70*
G01*
G75*
G04 Layer_Color=16711935*
%ADD10R,0.06299X0.06299*%
%ADD11R,0.06299X0.07087*%
%ADD12R,0.07087X0.06299*%
%ADD13O,0.08268X0.01772*%
%ADD14R,0.04921X0.05709*%
%ADD15O,0.06890X0.01181*%
%ADD16O,0.01181X0.06890*%
%ADD17O,0.09055X0.02362*%
%ADD18R,0.06299X0.06299*%
%ADD19R,0.25000X0.11000*%
%ADD20R,0.11000X0.05000*%
%ADD21C,0.01000*%
%ADD22R,0.07284X0.07284*%
%ADD23C,0.07284*%
%ADD24R,0.05906X0.05906*%
%ADD25C,0.05906*%
%ADD26R,0.05906X0.05906*%
%ADD27C,0.18740*%
%ADD28R,0.06654X0.06654*%
%ADD29C,0.06654*%
%ADD30C,0.14000*%
%ADD31C,0.06000*%
%ADD32C,0.05000*%
%ADD33C,0.30000*%
%ADD34C,0.00984*%
%ADD35C,0.02362*%
%ADD36C,0.00787*%
%ADD37C,0.00500*%
%ADD38C,0.00591*%
%ADD39C,0.03000*%
%ADD40C,0.00800*%
%ADD41R,0.02165X0.05512*%
%ADD42R,0.05512X0.02165*%
%ADD43R,0.07099X0.07099*%
%ADD44R,0.07099X0.07887*%
%ADD45R,0.07887X0.07099*%
%ADD46O,0.09068X0.02572*%
%ADD47R,0.05721X0.06509*%
%ADD48O,0.07690X0.01981*%
%ADD49O,0.01981X0.07690*%
%ADD50O,0.09855X0.03162*%
%ADD51R,0.07099X0.07099*%
%ADD52R,0.25800X0.11800*%
%ADD53R,0.11800X0.05800*%
%ADD54R,0.08083X0.08083*%
%ADD55C,0.08083*%
%ADD56R,0.06706X0.06706*%
%ADD57C,0.06706*%
%ADD58R,0.06706X0.06706*%
%ADD59C,0.19540*%
%ADD60R,0.07453X0.07453*%
%ADD61C,0.07453*%
%ADD62C,0.14800*%
%ADD63C,0.06800*%
%ADD64C,0.05800*%
%ADD65C,0.30800*%
%ADD66C,0.00800*%
D44*
X721788Y758800D02*
D03*
X732812D02*
D03*
X721788Y784800D02*
D03*
X732812D02*
D03*
D45*
X1040000Y730488D02*
D03*
Y741512D02*
D03*
X1078000Y714488D02*
D03*
Y725512D02*
D03*
X1048000Y941512D02*
D03*
Y930488D02*
D03*
X711300Y775288D02*
D03*
Y786312D02*
D03*
Y766312D02*
D03*
Y755288D02*
D03*
X743300Y753288D02*
D03*
Y764312D02*
D03*
Y790312D02*
D03*
Y779288D02*
D03*
X736000Y954488D02*
D03*
Y965512D02*
D03*
D51*
X1028000Y742890D02*
D03*
Y729110D02*
D03*
D54*
X574000Y988000D02*
D03*
D55*
X594000D02*
D03*
D56*
X1015500Y749000D02*
D03*
X596500Y891000D02*
D03*
X858500Y653000D02*
D03*
X628000Y974000D02*
D03*
X662000D02*
D03*
D57*
X1015500Y739000D02*
D03*
Y729000D02*
D03*
X618500Y641000D02*
D03*
X628500D02*
D03*
X638500D02*
D03*
X648500D02*
D03*
X658500D02*
D03*
X668500D02*
D03*
X678500D02*
D03*
X688500D02*
D03*
X698500D02*
D03*
X708500D02*
D03*
X718500D02*
D03*
X728500D02*
D03*
X738500D02*
D03*
X748500D02*
D03*
X758500D02*
D03*
X768500D02*
D03*
X778500D02*
D03*
X788500D02*
D03*
X798500D02*
D03*
X808500D02*
D03*
X818500D02*
D03*
X828500D02*
D03*
X838500D02*
D03*
X848500D02*
D03*
X596500Y881000D02*
D03*
Y871000D02*
D03*
Y861000D02*
D03*
Y851000D02*
D03*
Y841000D02*
D03*
Y831000D02*
D03*
Y821000D02*
D03*
Y811000D02*
D03*
Y801000D02*
D03*
Y791000D02*
D03*
Y781000D02*
D03*
Y771000D02*
D03*
Y761000D02*
D03*
Y751000D02*
D03*
Y741000D02*
D03*
Y731000D02*
D03*
Y721000D02*
D03*
Y711000D02*
D03*
Y701000D02*
D03*
Y691000D02*
D03*
Y681000D02*
D03*
Y671000D02*
D03*
Y661000D02*
D03*
Y651000D02*
D03*
X836500Y903000D02*
D03*
X826500D02*
D03*
X816500D02*
D03*
X806500D02*
D03*
X796500D02*
D03*
X786500D02*
D03*
X776500D02*
D03*
X766500D02*
D03*
X756500D02*
D03*
X746500D02*
D03*
X736500D02*
D03*
X726500D02*
D03*
X716500D02*
D03*
X706500D02*
D03*
X696500D02*
D03*
X686500D02*
D03*
X676500D02*
D03*
X666500D02*
D03*
X656500D02*
D03*
X646500D02*
D03*
X636500D02*
D03*
X626500D02*
D03*
X616500D02*
D03*
X606500D02*
D03*
X858500Y663000D02*
D03*
Y673000D02*
D03*
Y683000D02*
D03*
Y693000D02*
D03*
Y703000D02*
D03*
Y713000D02*
D03*
Y723000D02*
D03*
Y733000D02*
D03*
Y743000D02*
D03*
Y753000D02*
D03*
Y763000D02*
D03*
Y773000D02*
D03*
Y783000D02*
D03*
Y793000D02*
D03*
Y803000D02*
D03*
Y813000D02*
D03*
Y823000D02*
D03*
Y833000D02*
D03*
Y843000D02*
D03*
Y853000D02*
D03*
Y863000D02*
D03*
Y873000D02*
D03*
Y883000D02*
D03*
Y893000D02*
D03*
X638000Y934000D02*
D03*
X628000D02*
D03*
X638000Y944000D02*
D03*
X628000D02*
D03*
X638000Y954000D02*
D03*
X628000D02*
D03*
X638000Y964000D02*
D03*
X628000D02*
D03*
X638000Y974000D02*
D03*
X662000Y964000D02*
D03*
D58*
X608500Y641000D02*
D03*
X846500Y903000D02*
D03*
D59*
X914693Y954098D02*
D03*
X816307D02*
D03*
D60*
X843689Y948508D02*
D03*
D61*
X849142Y959689D02*
D03*
X854595Y948508D02*
D03*
X860047Y959689D02*
D03*
X865500Y948508D02*
D03*
X870953Y959689D02*
D03*
X876406Y948508D02*
D03*
X881858Y959689D02*
D03*
X887311Y948508D02*
D03*
D63*
X1142500Y706000D02*
D03*
Y716000D02*
D03*
X1134500Y706000D02*
D03*
Y716000D02*
D03*
X1024500Y896000D02*
D03*
Y903874D02*
D03*
Y911748D02*
D03*
Y919622D02*
D03*
Y927496D02*
D03*
Y935370D02*
D03*
Y943244D02*
D03*
Y951118D02*
D03*
Y958992D02*
D03*
Y966866D02*
D03*
X1111500Y896000D02*
D03*
Y903874D02*
D03*
Y911748D02*
D03*
Y919622D02*
D03*
Y927496D02*
D03*
Y935370D02*
D03*
Y943244D02*
D03*
Y951118D02*
D03*
Y958992D02*
D03*
Y966866D02*
D03*
D64*
X816600Y968800D02*
D03*
X962000Y892500D02*
D03*
X970500Y950500D02*
D03*
X955000Y958500D02*
D03*
X1054500Y765000D02*
D03*
X720500Y792900D02*
D03*
X742800Y771700D02*
D03*
X720500Y751200D02*
D03*
X703800Y764800D02*
D03*
Y771300D02*
D03*
X941000Y1008500D02*
D03*
X691500Y930500D02*
D03*
X1153500Y808000D02*
D03*
X1113500Y828000D02*
D03*
X1050000Y742500D02*
D03*
X1121700Y688800D02*
D03*
X644300Y786200D02*
D03*
X1083500Y745500D02*
D03*
X1056000Y733000D02*
D03*
X1107000Y732500D02*
D03*
X583400Y961700D02*
D03*
X743100Y779300D02*
D03*
X743500Y753400D02*
D03*
X743000Y764200D02*
D03*
X727300Y751100D02*
D03*
X745500Y966700D02*
D03*
X766000Y954500D02*
D03*
X1050000Y775000D02*
D03*
X703300Y778800D02*
D03*
X643900Y760800D02*
D03*
X727400Y793200D02*
D03*
X743400Y790500D02*
D03*
X1078200Y725400D02*
D03*
X603500Y974300D02*
D03*
X745100Y974000D02*
D03*
X899200Y954400D02*
D03*
X1078100Y714600D02*
D03*
D65*
X1148000Y1000000D02*
D03*
X1146000Y618000D02*
D03*
X367000Y617500D02*
D03*
X373000Y1000500D02*
D03*
D66*
X1153500Y735000D02*
D03*
Y687500D02*
D03*
M02*
