%FSLAX25Y25*%
%MOIN*%
G70*
G01*
G75*
G04 Layer_Physical_Order=1*
G04 Layer_Color=255*
%ADD10R,0.06299X0.06299*%
%ADD11R,0.06299X0.07087*%
%ADD12R,0.07087X0.06299*%
%ADD13O,0.08268X0.01772*%
%ADD14R,0.04921X0.05709*%
%ADD15O,0.06890X0.01181*%
%ADD16O,0.01181X0.06890*%
%ADD17O,0.09055X0.02362*%
%ADD18R,0.06299X0.06299*%
%ADD19R,0.25000X0.11000*%
%ADD20R,0.11000X0.05000*%
%ADD21C,0.01000*%
%ADD22R,0.07284X0.07284*%
%ADD23C,0.07284*%
%ADD24R,0.05906X0.05906*%
%ADD25C,0.05906*%
%ADD26R,0.05906X0.05906*%
%ADD27C,0.18740*%
%ADD28R,0.06654X0.06654*%
%ADD29C,0.06654*%
%ADD30C,0.14000*%
%ADD31C,0.06000*%
%ADD32C,0.05000*%
%ADD33C,0.30000*%
G36*
X1170504Y1021504D02*
X1170500Y1021500D01*
X1170500D01*
D01*
X982500Y1021000D01*
Y858000D01*
X1150451D01*
Y842143D01*
X1149762D01*
Y833857D01*
X1157261D01*
Y842143D01*
X1155549D01*
Y858000D01*
X1170885D01*
X1171499Y594854D01*
X1171146Y594500D01*
X345854Y595000D01*
X345502Y595354D01*
X347500Y1022000D01*
X1170500Y1023000D01*
X1170504Y1021504D01*
D02*
G37*
%LPC*%
G36*
X858500Y786583D02*
X857573Y786461D01*
X856708Y786103D01*
X855966Y785534D01*
X855397Y784792D01*
X855039Y783927D01*
X854917Y783000D01*
X855039Y782072D01*
X855397Y781208D01*
X855966Y780466D01*
X856708Y779897D01*
X857573Y779539D01*
X858500Y779417D01*
X859427Y779539D01*
X860292Y779897D01*
X861034Y780466D01*
X861603Y781208D01*
X861961Y782072D01*
X862083Y783000D01*
X861961Y783927D01*
X861603Y784792D01*
X861034Y785534D01*
X860292Y786103D01*
X859427Y786461D01*
X858500Y786583D01*
D02*
G37*
G36*
X703800Y783273D02*
Y779300D01*
X707773D01*
X707684Y779975D01*
X707231Y781069D01*
X706509Y782009D01*
X705569Y782731D01*
X704475Y783184D01*
X703800Y783273D01*
D02*
G37*
G36*
X702800D02*
X702125Y783184D01*
X701031Y782731D01*
X700091Y782009D01*
X699369Y781069D01*
X698916Y779975D01*
X698827Y779300D01*
X702800D01*
Y783273D01*
D02*
G37*
G36*
X743600Y783773D02*
Y779800D01*
X747573D01*
X747484Y780475D01*
X747031Y781569D01*
X746309Y782509D01*
X745369Y783231D01*
X744275Y783684D01*
X743600Y783773D01*
D02*
G37*
G36*
X742600D02*
X741925Y783684D01*
X740831Y783231D01*
X739891Y782509D01*
X739169Y781569D01*
X738716Y780475D01*
X738627Y779800D01*
X742600D01*
Y783773D01*
D02*
G37*
G36*
X1146238Y782143D02*
X1138739D01*
Y779699D01*
X1133750D01*
Y780899D01*
X1126250D01*
Y778987D01*
X1126198Y778952D01*
X1125645Y778125D01*
X1125451Y777150D01*
X1125645Y776174D01*
X1126198Y775347D01*
X1126250Y775312D01*
Y773400D01*
X1133750D01*
Y774601D01*
X1138739D01*
Y773857D01*
X1146238D01*
Y782143D01*
D02*
G37*
G36*
X1157261Y777500D02*
X1154012D01*
Y773857D01*
X1157261D01*
Y777500D01*
D02*
G37*
G36*
X1153012D02*
X1149762D01*
Y773857D01*
X1153012D01*
Y777500D01*
D02*
G37*
G36*
X858500Y776583D02*
X857573Y776461D01*
X856708Y776103D01*
X855966Y775534D01*
X855397Y774792D01*
X855039Y773927D01*
X854917Y773000D01*
X855039Y772073D01*
X855397Y771208D01*
X855966Y770466D01*
X856708Y769897D01*
X857573Y769539D01*
X858500Y769417D01*
X859427Y769539D01*
X860292Y769897D01*
X861034Y770466D01*
X861603Y771208D01*
X861961Y772073D01*
X862083Y773000D01*
X861961Y773927D01*
X861603Y774792D01*
X861034Y775534D01*
X860292Y776103D01*
X859427Y776461D01*
X858500Y776583D01*
D02*
G37*
G36*
X1157261Y782143D02*
X1154012D01*
Y778500D01*
X1157261D01*
Y782143D01*
D02*
G37*
G36*
X1153012D02*
X1149762D01*
Y778500D01*
X1153012D01*
Y782143D01*
D02*
G37*
G36*
X596500Y784583D02*
X595573Y784461D01*
X594708Y784103D01*
X593966Y783534D01*
X593397Y782792D01*
X593039Y781927D01*
X592917Y781000D01*
X593039Y780072D01*
X593397Y779208D01*
X593966Y778466D01*
X594708Y777897D01*
X595573Y777539D01*
X596500Y777417D01*
X597428Y777539D01*
X598292Y777897D01*
X599034Y778466D01*
X599603Y779208D01*
X599961Y780072D01*
X600083Y781000D01*
X599961Y781927D01*
X599603Y782792D01*
X599034Y783534D01*
X598292Y784103D01*
X597428Y784461D01*
X596500Y784583D01*
D02*
G37*
G36*
X1146238Y802143D02*
X1138739D01*
Y799699D01*
X1133750D01*
Y800899D01*
X1126250D01*
Y798987D01*
X1126198Y798952D01*
X1125645Y798125D01*
X1125451Y797150D01*
X1125645Y796174D01*
X1126198Y795347D01*
X1126250Y795312D01*
Y793400D01*
X1133750D01*
Y794601D01*
X1138739D01*
Y793857D01*
X1146238D01*
Y802143D01*
D02*
G37*
G36*
X1157261D02*
X1154012D01*
Y798500D01*
X1157261D01*
Y802143D01*
D02*
G37*
G36*
X1153012D02*
X1149762D01*
Y798500D01*
X1153012D01*
Y802143D01*
D02*
G37*
G36*
X1153000Y812473D02*
X1152325Y812384D01*
X1151231Y811931D01*
X1150291Y811209D01*
X1149569Y810269D01*
X1149116Y809175D01*
X1149027Y808500D01*
X1153000D01*
Y812473D01*
D02*
G37*
G36*
X1157973Y807500D02*
X1154000D01*
Y803527D01*
X1154675Y803616D01*
X1155769Y804069D01*
X1156709Y804791D01*
X1157431Y805731D01*
X1157884Y806825D01*
X1157973Y807500D01*
D02*
G37*
G36*
X1153000D02*
X1149027D01*
X1149116Y806825D01*
X1149569Y805731D01*
X1150291Y804791D01*
X1151231Y804069D01*
X1152325Y803616D01*
X1153000Y803527D01*
Y807500D01*
D02*
G37*
G36*
X596500Y794583D02*
X595573Y794461D01*
X594708Y794103D01*
X593966Y793534D01*
X593397Y792792D01*
X593039Y791927D01*
X592917Y791000D01*
X593039Y790072D01*
X593397Y789208D01*
X593966Y788466D01*
X594708Y787897D01*
X595573Y787539D01*
X596500Y787417D01*
X597428Y787539D01*
X598292Y787897D01*
X599034Y788466D01*
X599603Y789208D01*
X599961Y790072D01*
X600083Y791000D01*
X599961Y791927D01*
X599603Y792792D01*
X599034Y793534D01*
X598292Y794103D01*
X597428Y794461D01*
X596500Y794583D01*
D02*
G37*
G36*
X743400Y795039D02*
X742225Y794884D01*
X741131Y794431D01*
X740191Y793709D01*
X739469Y792769D01*
X739016Y791675D01*
X738861Y790500D01*
X739016Y789325D01*
X739469Y788231D01*
X740191Y787291D01*
X741131Y786569D01*
X742225Y786116D01*
X743400Y785961D01*
X744575Y786116D01*
X745669Y786569D01*
X746609Y787291D01*
X747331Y788231D01*
X747784Y789325D01*
X747939Y790500D01*
X747784Y791675D01*
X747331Y792769D01*
X746609Y793709D01*
X745669Y794431D01*
X744575Y794884D01*
X743400Y795039D01*
D02*
G37*
G36*
X644300Y790739D02*
X643125Y790584D01*
X642031Y790131D01*
X641091Y789409D01*
X640369Y788469D01*
X639916Y787375D01*
X639761Y786200D01*
X639916Y785025D01*
X640369Y783931D01*
X641091Y782991D01*
X642031Y782269D01*
X643125Y781816D01*
X644300Y781661D01*
X645475Y781816D01*
X646569Y782269D01*
X647509Y782991D01*
X648170Y783851D01*
X648739D01*
Y781857D01*
X656238D01*
Y790143D01*
X648739D01*
Y788949D01*
X647863D01*
X647509Y789409D01*
X646569Y790131D01*
X645475Y790584D01*
X644300Y790739D01*
D02*
G37*
G36*
X1157261Y797500D02*
X1154012D01*
Y793857D01*
X1157261D01*
Y797500D01*
D02*
G37*
G36*
X1153012D02*
X1149762D01*
Y793857D01*
X1153012D01*
Y797500D01*
D02*
G37*
G36*
X731873Y792700D02*
X727900D01*
Y788727D01*
X728575Y788816D01*
X729669Y789269D01*
X730609Y789991D01*
X731331Y790931D01*
X731784Y792025D01*
X731873Y792700D01*
D02*
G37*
G36*
X1065738Y769643D02*
X1058239D01*
Y768298D01*
X1057765Y768137D01*
X1057709Y768209D01*
X1056769Y768931D01*
X1055675Y769384D01*
X1054500Y769539D01*
X1053325Y769384D01*
X1052231Y768931D01*
X1051291Y768209D01*
X1050569Y767269D01*
X1050116Y766175D01*
X1049961Y765000D01*
X1050116Y763825D01*
X1050569Y762731D01*
X1051291Y761791D01*
X1052231Y761069D01*
X1053325Y760616D01*
X1054500Y760461D01*
X1055675Y760616D01*
X1056769Y761069D01*
X1057709Y761791D01*
X1057765Y761863D01*
X1058239Y761702D01*
Y761357D01*
X1065738D01*
Y769643D01*
D02*
G37*
G36*
X1078600Y719073D02*
Y715100D01*
X1082573D01*
X1082484Y715775D01*
X1082031Y716869D01*
X1081309Y717809D01*
X1080369Y718531D01*
X1079275Y718984D01*
X1078600Y719073D01*
D02*
G37*
G36*
X1077600D02*
X1076925Y718984D01*
X1075831Y718531D01*
X1074891Y717809D01*
X1074169Y716869D01*
X1073716Y715775D01*
X1073627Y715100D01*
X1077600D01*
Y719073D01*
D02*
G37*
G36*
X1082573Y714100D02*
X1078600D01*
Y710127D01*
X1079275Y710216D01*
X1080369Y710669D01*
X1081309Y711391D01*
X1082031Y712331D01*
X1082484Y713425D01*
X1082573Y714100D01*
D02*
G37*
G36*
X1119970Y800899D02*
X1112471D01*
Y797076D01*
X1106698Y791302D01*
X1106145Y790476D01*
X1105951Y789500D01*
Y751518D01*
X1098311Y743878D01*
X1097832Y744023D01*
X1097730Y744536D01*
X1097402Y745028D01*
Y745444D01*
X1097730Y745936D01*
X1097846Y746516D01*
X1097730Y747095D01*
X1097402Y747587D01*
Y748004D01*
X1097730Y748495D01*
X1097846Y749075D01*
X1097730Y749654D01*
X1097402Y750146D01*
Y750563D01*
X1097730Y751054D01*
X1097846Y751634D01*
X1097730Y752214D01*
X1097402Y752705D01*
X1096910Y753033D01*
X1096331Y753149D01*
X1089835D01*
X1089255Y753033D01*
X1088763Y752705D01*
X1088435Y752214D01*
X1088320Y751634D01*
X1088435Y751054D01*
X1088763Y750563D01*
Y750146D01*
X1088435Y749654D01*
X1088320Y749075D01*
X1088311Y749065D01*
X1086246D01*
X1085769Y749431D01*
X1084675Y749884D01*
X1083500Y750039D01*
X1082325Y749884D01*
X1081231Y749431D01*
X1080291Y748709D01*
X1079569Y747769D01*
X1079116Y746675D01*
X1078961Y745500D01*
X1079116Y744325D01*
X1079569Y743231D01*
X1080291Y742291D01*
X1080951Y741784D01*
Y737500D01*
X1081117Y736664D01*
X1080676Y736428D01*
X1076549Y740556D01*
Y761357D01*
X1076761D01*
Y769643D01*
X1075561D01*
Y771357D01*
X1076761D01*
Y779643D01*
X1069262D01*
Y771357D01*
X1070463D01*
Y769643D01*
X1069262D01*
Y761357D01*
X1071451D01*
Y739500D01*
X1071451Y739500D01*
X1071451D01*
X1071645Y738524D01*
X1072198Y737698D01*
X1079725Y730170D01*
X1079448Y729754D01*
X1079375Y729784D01*
X1078200Y729939D01*
X1077025Y729784D01*
X1075931Y729331D01*
X1074991Y728609D01*
X1074269Y727669D01*
X1073816Y726575D01*
X1073661Y725400D01*
X1073816Y724225D01*
X1074269Y723131D01*
X1074991Y722191D01*
X1075931Y721469D01*
X1077025Y721016D01*
X1078200Y720861D01*
X1079375Y721016D01*
X1080469Y721469D01*
X1081409Y722191D01*
X1082131Y723131D01*
X1082281Y723494D01*
X1088311D01*
X1088319Y723485D01*
X1088321Y723494D01*
X1093083D01*
X1094058Y723688D01*
X1094501Y723984D01*
X1097746D01*
X1097730Y724064D01*
X1097402Y724555D01*
Y724972D01*
X1097730Y725464D01*
X1097846Y726043D01*
X1097730Y726623D01*
X1097402Y727114D01*
Y727531D01*
X1097730Y728023D01*
X1097846Y728602D01*
X1097854Y728612D01*
X1104674D01*
X1104731Y728569D01*
X1105825Y728116D01*
X1107000Y727961D01*
X1108175Y728116D01*
X1108602Y728293D01*
X1110698Y726198D01*
X1110698D01*
X1110698Y726198D01*
X1110698Y726198D01*
Y726198D01*
X1111495Y725665D01*
Y724546D01*
X1117616D01*
Y731454D01*
X1112650D01*
X1111529Y732576D01*
X1111384Y733675D01*
X1110931Y734769D01*
X1110209Y735709D01*
X1109269Y736431D01*
X1108175Y736884D01*
X1107000Y737039D01*
X1105825Y736884D01*
X1104731Y736431D01*
X1103791Y735709D01*
X1103069Y734769D01*
X1102631Y733710D01*
X1097987D01*
X1097841Y734189D01*
X1098603Y734698D01*
X1098603Y734698D01*
X1098603Y734698D01*
X1117302Y753397D01*
X1117855Y754224D01*
X1118049Y755199D01*
Y773400D01*
X1119970D01*
Y780899D01*
X1112471D01*
Y773400D01*
X1112951D01*
Y756255D01*
X1111511Y754815D01*
X1111049Y755007D01*
Y788444D01*
X1116005Y793400D01*
X1119970D01*
Y800899D01*
D02*
G37*
G36*
X596500Y744583D02*
X595573Y744461D01*
X594708Y744103D01*
X593966Y743534D01*
X593397Y742792D01*
X593039Y741927D01*
X592917Y741000D01*
X593039Y740072D01*
X593397Y739208D01*
X593966Y738466D01*
X594708Y737897D01*
X595573Y737539D01*
X596500Y737417D01*
X597428Y737539D01*
X598292Y737897D01*
X599034Y738466D01*
X599603Y739208D01*
X599961Y740072D01*
X600083Y741000D01*
X599961Y741927D01*
X599603Y742792D01*
X599034Y743534D01*
X598292Y744103D01*
X597428Y744461D01*
X596500Y744583D01*
D02*
G37*
G36*
X1153500Y742637D02*
X1152010Y742490D01*
X1150578Y742056D01*
X1149257Y741350D01*
X1148100Y740400D01*
X1147150Y739243D01*
X1146445Y737922D01*
X1146010Y736490D01*
X1145863Y735000D01*
X1146010Y733510D01*
X1146445Y732078D01*
X1146787Y731436D01*
X1146500Y731049D01*
X1124506D01*
Y731454D01*
X1123777D01*
X1123247Y732247D01*
X1122420Y732800D01*
X1121445Y732994D01*
X1120469Y732800D01*
X1119643Y732247D01*
X1119113Y731454D01*
X1118384D01*
Y724546D01*
X1124506D01*
Y725951D01*
X1145444D01*
X1149951Y721444D01*
Y716556D01*
X1147444Y714049D01*
X1146039D01*
X1145761Y714465D01*
X1146007Y715060D01*
X1146131Y716000D01*
X1146007Y716940D01*
X1145645Y717815D01*
X1145068Y718568D01*
X1144316Y719145D01*
X1143440Y719507D01*
X1142500Y719631D01*
X1141560Y719507D01*
X1140737Y719166D01*
X1137175Y722728D01*
X1136349Y723280D01*
X1135373Y723474D01*
X1097854D01*
X1097846Y723484D01*
X1097844Y723474D01*
X1093083D01*
X1092107Y723280D01*
X1091664Y722984D01*
X1088419D01*
X1088435Y722904D01*
X1088763Y722413D01*
Y721996D01*
X1088435Y721505D01*
X1088320Y720925D01*
X1088435Y720345D01*
X1088763Y719854D01*
Y719437D01*
X1088435Y718946D01*
X1088320Y718366D01*
X1088435Y717786D01*
X1088763Y717295D01*
X1089255Y716966D01*
X1089835Y716851D01*
X1091088D01*
X1091280Y716564D01*
X1092107Y716011D01*
X1093083Y715817D01*
X1130893D01*
X1130993Y715060D01*
X1131355Y714185D01*
X1131933Y713432D01*
X1132685Y712855D01*
X1133560Y712493D01*
X1134500Y712369D01*
X1135185Y712459D01*
X1135406Y712011D01*
X1132698Y709302D01*
X1132495Y708999D01*
X1131933Y708568D01*
X1131918Y708549D01*
X1125843D01*
Y711661D01*
X1117557D01*
Y704162D01*
X1120751D01*
X1121525Y703645D01*
X1122500Y703451D01*
X1131918D01*
X1131933Y703432D01*
X1132685Y702855D01*
X1133560Y702493D01*
X1134500Y702369D01*
X1134839Y702414D01*
X1135060Y701965D01*
X1132532Y699437D01*
X1125843D01*
Y700638D01*
X1117557D01*
Y693139D01*
X1119151D01*
Y692516D01*
X1118491Y692009D01*
X1117769Y691069D01*
X1117316Y689975D01*
X1117161Y688800D01*
X1117316Y687625D01*
X1117769Y686531D01*
X1118491Y685591D01*
X1119431Y684869D01*
X1120525Y684416D01*
X1121700Y684261D01*
X1122875Y684416D01*
X1123969Y684869D01*
X1124909Y685591D01*
X1125631Y686531D01*
X1126084Y687625D01*
X1126239Y688800D01*
X1126084Y689975D01*
X1125631Y691069D01*
X1124909Y692009D01*
X1124249Y692516D01*
Y693139D01*
X1125843D01*
Y694339D01*
X1133588D01*
X1134564Y694533D01*
X1135391Y695086D01*
X1142700Y702395D01*
X1143440Y702493D01*
X1144316Y702855D01*
X1145068Y703432D01*
X1145645Y704184D01*
X1146007Y705060D01*
X1146131Y706000D01*
X1146007Y706940D01*
X1145645Y707816D01*
X1145068Y708567D01*
X1145198Y708951D01*
X1148500D01*
X1149475Y709145D01*
X1150302Y709698D01*
X1150302Y709698D01*
X1150302Y709698D01*
X1154302Y713698D01*
X1154855Y714525D01*
X1155049Y715500D01*
Y722500D01*
X1154855Y723476D01*
X1154302Y724302D01*
X1151424Y727181D01*
X1151681Y727610D01*
X1152010Y727510D01*
X1153500Y727363D01*
X1154990Y727510D01*
X1156423Y727945D01*
X1157743Y728650D01*
X1158900Y729600D01*
X1159850Y730757D01*
X1160555Y732078D01*
X1160990Y733510D01*
X1161137Y735000D01*
X1160990Y736490D01*
X1160555Y737922D01*
X1159850Y739243D01*
X1158900Y740400D01*
X1157743Y741350D01*
X1156423Y742056D01*
X1154990Y742490D01*
X1153500Y742637D01*
D02*
G37*
G36*
X718500Y644583D02*
X717572Y644461D01*
X716708Y644103D01*
X715966Y643534D01*
X715397Y642792D01*
X715039Y641927D01*
X714917Y641000D01*
X715039Y640072D01*
X715397Y639208D01*
X715966Y638466D01*
X716708Y637897D01*
X717572Y637539D01*
X718500Y637417D01*
X719427Y637539D01*
X720292Y637897D01*
X721034Y638466D01*
X721603Y639208D01*
X721961Y640072D01*
X722083Y641000D01*
X721961Y641927D01*
X721603Y642792D01*
X721034Y643534D01*
X720292Y644103D01*
X719427Y644461D01*
X718500Y644583D01*
D02*
G37*
G36*
X1146000Y635037D02*
X1143776Y634891D01*
X1141591Y634456D01*
X1139480Y633740D01*
X1137482Y632754D01*
X1135629Y631516D01*
X1133953Y630047D01*
X1132484Y628371D01*
X1131246Y626518D01*
X1130260Y624520D01*
X1129544Y622409D01*
X1129109Y620224D01*
X1128963Y618000D01*
X1129109Y615776D01*
X1129544Y613591D01*
X1130260Y611480D01*
X1131246Y609482D01*
X1132484Y607629D01*
X1133953Y605953D01*
X1135629Y604484D01*
X1137482Y603246D01*
X1139480Y602260D01*
X1141591Y601544D01*
X1143776Y601109D01*
X1146000Y600963D01*
X1148224Y601109D01*
X1150409Y601544D01*
X1152520Y602260D01*
X1154518Y603246D01*
X1156371Y604484D01*
X1158047Y605953D01*
X1159516Y607629D01*
X1160754Y609482D01*
X1161740Y611480D01*
X1162456Y613591D01*
X1162891Y615776D01*
X1163037Y618000D01*
X1162891Y620224D01*
X1162456Y622409D01*
X1161740Y624520D01*
X1160754Y626518D01*
X1159516Y628371D01*
X1158047Y630047D01*
X1156371Y631516D01*
X1154518Y632754D01*
X1152520Y633740D01*
X1150409Y634456D01*
X1148224Y634891D01*
X1146000Y635037D01*
D02*
G37*
G36*
X367000Y634537D02*
X364776Y634391D01*
X362591Y633956D01*
X360480Y633240D01*
X358482Y632254D01*
X356629Y631016D01*
X354953Y629547D01*
X353484Y627871D01*
X352246Y626018D01*
X351260Y624020D01*
X350544Y621909D01*
X350109Y619724D01*
X349963Y617500D01*
X350109Y615276D01*
X350544Y613091D01*
X351260Y610980D01*
X352246Y608982D01*
X353484Y607129D01*
X354953Y605453D01*
X356629Y603984D01*
X358482Y602746D01*
X360480Y601760D01*
X362591Y601044D01*
X364776Y600609D01*
X367000Y600463D01*
X369224Y600609D01*
X371409Y601044D01*
X373520Y601760D01*
X375518Y602746D01*
X377371Y603984D01*
X379047Y605453D01*
X380516Y607129D01*
X381754Y608982D01*
X382740Y610980D01*
X383456Y613091D01*
X383891Y615276D01*
X384036Y617500D01*
X383891Y619724D01*
X383456Y621909D01*
X382740Y624020D01*
X381754Y626018D01*
X380516Y627871D01*
X379047Y629547D01*
X377371Y631016D01*
X375518Y632254D01*
X373520Y633240D01*
X371409Y633956D01*
X369224Y634391D01*
X367000Y634537D01*
D02*
G37*
G36*
X1077600Y714100D02*
X1073627D01*
X1073716Y713425D01*
X1074169Y712331D01*
X1074891Y711391D01*
X1075831Y710669D01*
X1076925Y710216D01*
X1077600Y710127D01*
Y714100D01*
D02*
G37*
G36*
X1153500Y695137D02*
X1152010Y694990D01*
X1150578Y694556D01*
X1149257Y693850D01*
X1148100Y692900D01*
X1147150Y691743D01*
X1146445Y690422D01*
X1146010Y688990D01*
X1145863Y687500D01*
X1146010Y686010D01*
X1146445Y684578D01*
X1147150Y683257D01*
X1148100Y682100D01*
X1149257Y681150D01*
X1150578Y680444D01*
X1152010Y680010D01*
X1153500Y679863D01*
X1154990Y680010D01*
X1156423Y680444D01*
X1157743Y681150D01*
X1158900Y682100D01*
X1159850Y683257D01*
X1160555Y684578D01*
X1160990Y686010D01*
X1161137Y687500D01*
X1160990Y688990D01*
X1160555Y690422D01*
X1159850Y691743D01*
X1158900Y692900D01*
X1157743Y693850D01*
X1156423Y694556D01*
X1154990Y694990D01*
X1153500Y695137D01*
D02*
G37*
G36*
X728500Y644583D02*
X727572Y644461D01*
X726708Y644103D01*
X725966Y643534D01*
X725397Y642792D01*
X725039Y641927D01*
X724917Y641000D01*
X725039Y640072D01*
X725397Y639208D01*
X725966Y638466D01*
X726708Y637897D01*
X727572Y637539D01*
X728500Y637417D01*
X729427Y637539D01*
X730292Y637897D01*
X731034Y638466D01*
X731603Y639208D01*
X731961Y640072D01*
X732083Y641000D01*
X731961Y641927D01*
X731603Y642792D01*
X731034Y643534D01*
X730292Y644103D01*
X729427Y644461D01*
X728500Y644583D01*
D02*
G37*
G36*
X703300Y764300D02*
X699327D01*
X699416Y763625D01*
X699869Y762531D01*
X700591Y761591D01*
X701531Y760869D01*
X702625Y760416D01*
X703300Y760327D01*
Y764300D01*
D02*
G37*
G36*
X858500Y766583D02*
X857573Y766461D01*
X856708Y766103D01*
X855966Y765534D01*
X855397Y764792D01*
X855039Y763928D01*
X854917Y763000D01*
X855039Y762073D01*
X855397Y761208D01*
X855966Y760466D01*
X856708Y759897D01*
X857573Y759539D01*
X858500Y759417D01*
X859427Y759539D01*
X860292Y759897D01*
X861034Y760466D01*
X861603Y761208D01*
X861961Y762073D01*
X862083Y763000D01*
X861961Y763928D01*
X861603Y764792D01*
X861034Y765534D01*
X860292Y766103D01*
X859427Y766461D01*
X858500Y766583D01*
D02*
G37*
G36*
X596500Y764583D02*
X595573Y764461D01*
X594708Y764103D01*
X593966Y763534D01*
X593397Y762792D01*
X593039Y761928D01*
X592917Y761000D01*
X593039Y760073D01*
X593397Y759208D01*
X593966Y758466D01*
X594708Y757897D01*
X595573Y757539D01*
X596500Y757417D01*
X597428Y757539D01*
X598292Y757897D01*
X599034Y758466D01*
X599603Y759208D01*
X599961Y760073D01*
X600083Y761000D01*
X599961Y761928D01*
X599603Y762792D01*
X599034Y763534D01*
X598292Y764103D01*
X597428Y764461D01*
X596500Y764583D01*
D02*
G37*
G36*
Y774583D02*
X595573Y774461D01*
X594708Y774103D01*
X593966Y773534D01*
X593397Y772792D01*
X593039Y771927D01*
X592917Y771000D01*
X593039Y770073D01*
X593397Y769208D01*
X593966Y768466D01*
X594708Y767897D01*
X595573Y767539D01*
X596500Y767417D01*
X597428Y767539D01*
X598292Y767897D01*
X599034Y768466D01*
X599603Y769208D01*
X599961Y770073D01*
X600083Y771000D01*
X599961Y771927D01*
X599603Y772792D01*
X599034Y773534D01*
X598292Y774103D01*
X597428Y774461D01*
X596500Y774583D01*
D02*
G37*
G36*
X656183Y778890D02*
X629984D01*
Y766690D01*
X656183D01*
Y778890D01*
D02*
G37*
G36*
X708273Y764300D02*
X704300D01*
Y760327D01*
X704975Y760416D01*
X706069Y760869D01*
X707009Y761591D01*
X707731Y762531D01*
X708184Y763625D01*
X708273Y764300D01*
D02*
G37*
G36*
X596500Y754583D02*
X595573Y754461D01*
X594708Y754103D01*
X593966Y753534D01*
X593397Y752792D01*
X593039Y751928D01*
X592917Y751000D01*
X593039Y750072D01*
X593397Y749208D01*
X593966Y748466D01*
X594708Y747897D01*
X595573Y747539D01*
X596500Y747417D01*
X597428Y747539D01*
X598292Y747897D01*
X599034Y748466D01*
X599603Y749208D01*
X599961Y750072D01*
X600083Y751000D01*
X599961Y751928D01*
X599603Y752792D01*
X599034Y753534D01*
X598292Y754103D01*
X597428Y754461D01*
X596500Y754583D01*
D02*
G37*
G36*
X731773Y750600D02*
X727800D01*
Y746627D01*
X728475Y746716D01*
X729569Y747169D01*
X730509Y747891D01*
X731231Y748831D01*
X731684Y749925D01*
X731773Y750600D01*
D02*
G37*
G36*
X720500Y755739D02*
X719325Y755584D01*
X718231Y755131D01*
X717291Y754409D01*
X716569Y753469D01*
X716116Y752375D01*
X715961Y751200D01*
X716116Y750025D01*
X716569Y748931D01*
X717291Y747991D01*
X718231Y747269D01*
X719282Y746834D01*
Y745876D01*
X719005Y745690D01*
X718753D01*
X718359Y745953D01*
X717895Y746045D01*
X717430Y745953D01*
X717036Y745690D01*
X716784D01*
X716391Y745953D01*
X715926Y746045D01*
X715461Y745953D01*
X715068Y745690D01*
X714816D01*
X714422Y745953D01*
X713958Y746045D01*
X713493Y745953D01*
X713099Y745690D01*
X712847D01*
X712454Y745953D01*
X711989Y746045D01*
X711524Y745953D01*
X711131Y745690D01*
X710879D01*
X710485Y745953D01*
X710020Y746045D01*
X709556Y745953D01*
X709162Y745690D01*
X708910D01*
X708517Y745953D01*
X708052Y746045D01*
X707587Y745953D01*
X707194Y745690D01*
X706942D01*
X706548Y745953D01*
X706083Y746045D01*
X705619Y745953D01*
X705225Y745690D01*
X704973D01*
X704579Y745953D01*
X704115Y746045D01*
X703650Y745953D01*
X703257Y745690D01*
X703005D01*
X702611Y745953D01*
X702146Y746045D01*
X701682Y745953D01*
X701288Y745690D01*
X701266Y745657D01*
X701009Y745708D01*
X700642Y745953D01*
X700178Y746045D01*
X699713Y745953D01*
X699320Y745690D01*
X699273Y745621D01*
X698498Y745102D01*
X697945Y744276D01*
X697751Y743300D01*
Y743155D01*
X606398Y651802D01*
X605845Y650975D01*
X605651Y649999D01*
Y644553D01*
X604947D01*
Y637447D01*
X612053D01*
Y639101D01*
X612197Y639198D01*
X612749Y640025D01*
X612944Y641000D01*
X612749Y641975D01*
X612197Y642802D01*
X612053Y642899D01*
Y644553D01*
X610749D01*
Y648943D01*
X698681Y736875D01*
X699325Y736445D01*
X699598Y736391D01*
Y725902D01*
X618320Y644625D01*
X617976Y644855D01*
X617000Y645049D01*
X616024Y644855D01*
X615198Y644302D01*
X614645Y643475D01*
X614451Y642500D01*
X614645Y641525D01*
X614930Y641099D01*
X614917Y641000D01*
X615039Y640072D01*
X615397Y639208D01*
X615966Y638466D01*
X616708Y637897D01*
X617572Y637539D01*
X618500Y637417D01*
X619427Y637539D01*
X620292Y637897D01*
X621034Y638466D01*
X621603Y639208D01*
X621961Y640072D01*
X622083Y641000D01*
X622063Y641158D01*
X701104Y720199D01*
X701566Y720008D01*
Y718771D01*
X628305Y645510D01*
X627525Y645355D01*
X626698Y644802D01*
X626145Y643975D01*
X626074Y643616D01*
X625966Y643534D01*
X625397Y642792D01*
X625039Y641927D01*
X624917Y641000D01*
X625039Y640072D01*
X625397Y639208D01*
X625966Y638466D01*
X626708Y637897D01*
X627572Y637539D01*
X628500Y637417D01*
X629427Y637539D01*
X630292Y637897D01*
X631034Y638466D01*
X631603Y639208D01*
X631961Y640072D01*
X632083Y641000D01*
X631961Y641927D01*
X631953Y641948D01*
X703073Y713068D01*
X703535Y712876D01*
Y709539D01*
X638569Y644574D01*
X638500Y644583D01*
X637572Y644461D01*
X636708Y644103D01*
X635966Y643534D01*
X635397Y642792D01*
X635039Y641927D01*
X634917Y641000D01*
X635039Y640072D01*
X635397Y639208D01*
X635966Y638466D01*
X636708Y637897D01*
X637572Y637539D01*
X638500Y637417D01*
X639428Y637539D01*
X640292Y637897D01*
X641034Y638466D01*
X641603Y639208D01*
X641961Y640072D01*
X642065Y640860D01*
X705041Y703836D01*
X705503Y703645D01*
Y703008D01*
X646237Y643741D01*
X645966Y643534D01*
X645397Y642792D01*
X645039Y641927D01*
X644917Y641000D01*
X645039Y640072D01*
X645397Y639208D01*
X645966Y638466D01*
X646708Y637897D01*
X647573Y637539D01*
X648500Y637417D01*
X649428Y637539D01*
X650292Y637897D01*
X651034Y638466D01*
X651603Y639208D01*
X651961Y640072D01*
X652083Y641000D01*
X651961Y641927D01*
X651865Y642160D01*
X707010Y697305D01*
X707472Y697113D01*
Y694076D01*
X657900Y644504D01*
X657573Y644461D01*
X656708Y644103D01*
X655966Y643534D01*
X655397Y642792D01*
X655039Y641927D01*
X654917Y641000D01*
X655039Y640072D01*
X655397Y639208D01*
X655966Y638466D01*
X656708Y637897D01*
X657573Y637539D01*
X658500Y637417D01*
X659427Y637539D01*
X660292Y637897D01*
X661034Y638466D01*
X661603Y639208D01*
X661961Y640072D01*
X662083Y641000D01*
X662028Y641423D01*
X708978Y688373D01*
X709440Y688182D01*
Y686545D01*
X667204Y644309D01*
X666708Y644103D01*
X665966Y643534D01*
X665397Y642792D01*
X665039Y641927D01*
X664917Y641000D01*
X665039Y640072D01*
X665397Y639208D01*
X665966Y638466D01*
X666708Y637897D01*
X667572Y637539D01*
X668500Y637417D01*
X669427Y637539D01*
X670292Y637897D01*
X671034Y638466D01*
X671603Y639208D01*
X671961Y640072D01*
X672083Y641000D01*
X671970Y641865D01*
X710947Y680842D01*
X711409Y680650D01*
Y678213D01*
X677669Y644474D01*
X677572Y644461D01*
X676708Y644103D01*
X675966Y643534D01*
X675397Y642792D01*
X675039Y641927D01*
X674917Y641000D01*
X675039Y640072D01*
X675397Y639208D01*
X675966Y638466D01*
X676708Y637897D01*
X677572Y637539D01*
X678500Y637417D01*
X679427Y637539D01*
X680292Y637897D01*
X681034Y638466D01*
X681603Y639208D01*
X681961Y640072D01*
X682083Y641000D01*
X682004Y641600D01*
X712915Y672510D01*
X713377Y672319D01*
Y670682D01*
X686862Y644167D01*
X686708Y644103D01*
X685966Y643534D01*
X685397Y642792D01*
X685039Y641927D01*
X684917Y641000D01*
X685039Y640072D01*
X685397Y639208D01*
X685966Y638466D01*
X686708Y637897D01*
X687572Y637539D01*
X688500Y637417D01*
X689428Y637539D01*
X690292Y637897D01*
X691034Y638466D01*
X691603Y639208D01*
X691961Y640072D01*
X692083Y641000D01*
X691961Y641927D01*
X691924Y642019D01*
X714884Y664979D01*
X715345Y664787D01*
Y661650D01*
X698245Y644550D01*
X697573Y644461D01*
X696708Y644103D01*
X695966Y643534D01*
X695397Y642792D01*
X695039Y641927D01*
X694917Y641000D01*
X695039Y640072D01*
X695397Y639208D01*
X695966Y638466D01*
X696708Y637897D01*
X697573Y637539D01*
X698500Y637417D01*
X699428Y637539D01*
X700292Y637897D01*
X701034Y638466D01*
X701603Y639208D01*
X701961Y640072D01*
X702083Y641000D01*
X702063Y641158D01*
X716852Y655947D01*
X717314Y655756D01*
Y654219D01*
X707545Y644450D01*
X706708Y644103D01*
X705966Y643534D01*
X705397Y642792D01*
X705039Y641927D01*
X704917Y641000D01*
X705039Y640072D01*
X705397Y639208D01*
X705966Y638466D01*
X706708Y637897D01*
X707573Y637539D01*
X708500Y637417D01*
X709427Y637539D01*
X710292Y637897D01*
X711034Y638466D01*
X711603Y639208D01*
X711961Y640072D01*
X712083Y641000D01*
X711993Y641688D01*
X721665Y651361D01*
X722218Y652187D01*
X722412Y653163D01*
X722412Y653163D01*
X722412Y653163D01*
Y653163D01*
Y738079D01*
X722690Y738265D01*
X722942D01*
X723219Y738079D01*
Y654331D01*
X723414Y653356D01*
X723966Y652529D01*
X734984Y641511D01*
X734917Y641000D01*
X735039Y640072D01*
X735397Y639208D01*
X735966Y638466D01*
X736708Y637897D01*
X737572Y637539D01*
X738500Y637417D01*
X739428Y637539D01*
X740292Y637897D01*
X741034Y638466D01*
X741603Y639208D01*
X741961Y640072D01*
X742083Y641000D01*
X741961Y641927D01*
X741603Y642792D01*
X741034Y643534D01*
X740292Y644103D01*
X739428Y644461D01*
X739216Y644489D01*
X728317Y655387D01*
Y656724D01*
X728779Y656916D01*
X744950Y640745D01*
X745039Y640072D01*
X745397Y639208D01*
X745966Y638466D01*
X746708Y637897D01*
X747573Y637539D01*
X748500Y637417D01*
X749428Y637539D01*
X750292Y637897D01*
X751034Y638466D01*
X751603Y639208D01*
X751961Y640072D01*
X752083Y641000D01*
X751961Y641927D01*
X751603Y642792D01*
X751034Y643534D01*
X750292Y644103D01*
X749428Y644461D01*
X748500Y644583D01*
X748342Y644563D01*
X730286Y662619D01*
Y665256D01*
X730748Y665447D01*
X754949Y641246D01*
X754917Y641000D01*
X755039Y640072D01*
X755397Y639208D01*
X755966Y638466D01*
X756708Y637897D01*
X757573Y637539D01*
X758500Y637417D01*
X759427Y637539D01*
X760292Y637897D01*
X761034Y638466D01*
X761603Y639208D01*
X761961Y640072D01*
X762083Y641000D01*
X761961Y641927D01*
X761603Y642792D01*
X761034Y643534D01*
X760292Y644103D01*
X759427Y644461D01*
X758870Y644535D01*
X732255Y671150D01*
Y673087D01*
X732716Y673279D01*
X764926Y641070D01*
X764917Y641000D01*
X765039Y640072D01*
X765397Y639208D01*
X765966Y638466D01*
X766708Y637897D01*
X767572Y637539D01*
X768500Y637417D01*
X769427Y637539D01*
X770292Y637897D01*
X771034Y638466D01*
X771603Y639208D01*
X771961Y640072D01*
X772083Y641000D01*
X771961Y641927D01*
X771603Y642792D01*
X771034Y643534D01*
X770292Y644103D01*
X769427Y644461D01*
X768640Y644565D01*
X734223Y678982D01*
Y682119D01*
X734685Y682310D01*
X775047Y641948D01*
X775039Y641927D01*
X774917Y641000D01*
X775039Y640072D01*
X775397Y639208D01*
X775966Y638466D01*
X776708Y637897D01*
X777572Y637539D01*
X778500Y637417D01*
X779427Y637539D01*
X780292Y637897D01*
X781034Y638466D01*
X781603Y639208D01*
X781961Y640072D01*
X782083Y641000D01*
X781961Y641927D01*
X781603Y642792D01*
X781034Y643534D01*
X780292Y644103D01*
X779967Y644238D01*
X736192Y688013D01*
Y690050D01*
X736653Y690242D01*
X785030Y641865D01*
X784917Y641000D01*
X785039Y640072D01*
X785397Y639208D01*
X785966Y638466D01*
X786708Y637897D01*
X787572Y637539D01*
X788500Y637417D01*
X789428Y637539D01*
X790292Y637897D01*
X791034Y638466D01*
X791603Y639208D01*
X791961Y640072D01*
X792083Y641000D01*
X791961Y641927D01*
X791603Y642792D01*
X791034Y643534D01*
X790292Y644103D01*
X789796Y644309D01*
X738160Y695945D01*
Y697882D01*
X738622Y698073D01*
X795007Y641688D01*
X794917Y641000D01*
X795039Y640072D01*
X795397Y639208D01*
X795966Y638466D01*
X796708Y637897D01*
X797573Y637539D01*
X798500Y637417D01*
X799428Y637539D01*
X800292Y637897D01*
X801034Y638466D01*
X801603Y639208D01*
X801961Y640072D01*
X802083Y641000D01*
X801961Y641927D01*
X801603Y642792D01*
X801034Y643534D01*
X800292Y644103D01*
X799455Y644450D01*
X740129Y703776D01*
Y704913D01*
X740590Y705105D01*
X804950Y640745D01*
X805039Y640072D01*
X805397Y639208D01*
X805966Y638466D01*
X806708Y637897D01*
X807572Y637539D01*
X808500Y637417D01*
X809428Y637539D01*
X810292Y637897D01*
X811034Y638466D01*
X811603Y639208D01*
X811961Y640072D01*
X812083Y641000D01*
X811961Y641927D01*
X811603Y642792D01*
X811034Y643534D01*
X810292Y644103D01*
X809428Y644461D01*
X808500Y644583D01*
X808342Y644563D01*
X742097Y710808D01*
Y713745D01*
X742559Y713936D01*
X814984Y641511D01*
X814917Y641000D01*
X815039Y640072D01*
X815397Y639208D01*
X815966Y638466D01*
X816708Y637897D01*
X817572Y637539D01*
X818500Y637417D01*
X819427Y637539D01*
X820292Y637897D01*
X821034Y638466D01*
X821603Y639208D01*
X821961Y640072D01*
X822083Y641000D01*
X821961Y641927D01*
X821603Y642792D01*
X821034Y643534D01*
X820292Y644103D01*
X819427Y644461D01*
X819216Y644489D01*
X744066Y719639D01*
Y721876D01*
X744527Y722068D01*
X824996Y641600D01*
X824917Y641000D01*
X825039Y640072D01*
X825397Y639208D01*
X825966Y638466D01*
X826708Y637897D01*
X827573Y637539D01*
X828500Y637417D01*
X829427Y637539D01*
X830292Y637897D01*
X831034Y638466D01*
X831603Y639208D01*
X831961Y640072D01*
X832083Y641000D01*
X831961Y641927D01*
X831603Y642792D01*
X831034Y643534D01*
X830292Y644103D01*
X829427Y644461D01*
X829331Y644474D01*
X746034Y727771D01*
Y729308D01*
X746496Y729499D01*
X834926Y641070D01*
X834917Y641000D01*
X835039Y640072D01*
X835397Y639208D01*
X835966Y638466D01*
X836708Y637897D01*
X837573Y637539D01*
X838500Y637417D01*
X839427Y637539D01*
X840292Y637897D01*
X841034Y638466D01*
X841603Y639208D01*
X841961Y640072D01*
X842083Y641000D01*
X841961Y641927D01*
X841603Y642792D01*
X841034Y643534D01*
X840292Y644103D01*
X839427Y644461D01*
X838640Y644565D01*
X748002Y735202D01*
Y737139D01*
X748464Y737330D01*
X844935Y640859D01*
X845039Y640072D01*
X845397Y639208D01*
X845966Y638466D01*
X846708Y637897D01*
X847573Y637539D01*
X848500Y637417D01*
X849427Y637539D01*
X850292Y637897D01*
X851034Y638466D01*
X851603Y639208D01*
X851961Y640072D01*
X852083Y641000D01*
X851961Y641927D01*
X851603Y642792D01*
X851034Y643534D01*
X850292Y644103D01*
X849427Y644461D01*
X848500Y644583D01*
X848430Y644574D01*
X749224Y743780D01*
X748636Y744173D01*
Y744832D01*
X748544Y745296D01*
X748280Y745690D01*
X747887Y745953D01*
X747422Y746045D01*
X746957Y745953D01*
X746564Y745690D01*
X746312D01*
X745918Y745953D01*
X745454Y746045D01*
X744989Y745953D01*
X744595Y745690D01*
X744343D01*
X743950Y745953D01*
X743485Y746045D01*
X743020Y745953D01*
X742627Y745690D01*
X742375D01*
X741981Y745953D01*
X741516Y746045D01*
X741052Y745953D01*
X740658Y745690D01*
X740406D01*
X740013Y745953D01*
X739548Y746045D01*
X739083Y745953D01*
X738690Y745690D01*
X738438D01*
X738044Y745953D01*
X737579Y746045D01*
X737115Y745953D01*
X736721Y745690D01*
X736469D01*
X736076Y745953D01*
X735611Y746045D01*
X735147Y745953D01*
X734753Y745690D01*
X734501D01*
X734107Y745953D01*
X733642Y746045D01*
X733178Y745953D01*
X732784Y745690D01*
X732532D01*
X732139Y745953D01*
X731674Y746045D01*
X731210Y745953D01*
X730816Y745690D01*
X730564D01*
X730170Y745953D01*
X729705Y746045D01*
X729241Y745953D01*
X728847Y745690D01*
X728595D01*
X728201Y745953D01*
X727737Y746045D01*
X727273Y745953D01*
X726879Y745690D01*
X726627D01*
X726233Y745953D01*
X725769Y746045D01*
X725304Y745953D01*
X724910Y745690D01*
X724658D01*
X724380Y745876D01*
Y747103D01*
X724829Y747324D01*
X725031Y747169D01*
X726125Y746716D01*
X726800Y746627D01*
Y751099D01*
Y755573D01*
X726125Y755484D01*
X725031Y755031D01*
X724091Y754310D01*
X723709Y754410D01*
X722769Y755131D01*
X721675Y755584D01*
X720500Y755739D01*
D02*
G37*
G36*
X643900Y765339D02*
X642725Y765184D01*
X641631Y764731D01*
X640691Y764009D01*
X639969Y763069D01*
X639516Y761975D01*
X639361Y760800D01*
X639516Y759625D01*
X639969Y758531D01*
X640691Y757591D01*
X641631Y756869D01*
X642725Y756416D01*
X643900Y756261D01*
X645075Y756416D01*
X646169Y756869D01*
X647109Y757591D01*
X647386Y757951D01*
X648739D01*
Y755857D01*
X656238D01*
Y764143D01*
X648739D01*
Y763049D01*
X647839D01*
X647831Y763069D01*
X647109Y764009D01*
X646169Y764731D01*
X645075Y765184D01*
X643900Y765339D01*
D02*
G37*
G36*
X727800Y755573D02*
Y751600D01*
X731773D01*
X731684Y752275D01*
X731231Y753369D01*
X730509Y754309D01*
X729569Y755031D01*
X728475Y755484D01*
X727800Y755573D01*
D02*
G37*
G36*
X743500Y757939D02*
X742325Y757784D01*
X741231Y757331D01*
X740291Y756609D01*
X739569Y755669D01*
X739116Y754575D01*
X738961Y753400D01*
X739116Y752225D01*
X739569Y751131D01*
X740291Y750191D01*
X741231Y749469D01*
X742325Y749016D01*
X743500Y748861D01*
X744675Y749016D01*
X745769Y749469D01*
X746709Y750191D01*
X747431Y751131D01*
X747884Y752225D01*
X748039Y753400D01*
X747884Y754575D01*
X747431Y755669D01*
X746709Y756609D01*
X745769Y757331D01*
X744675Y757784D01*
X743500Y757939D01*
D02*
G37*
G36*
X860047Y963650D02*
X859022Y963515D01*
X858067Y963119D01*
X857247Y962490D01*
X856617Y961669D01*
X856221Y960714D01*
X856087Y959689D01*
X856221Y958664D01*
X856617Y957709D01*
X857247Y956888D01*
X858067Y956259D01*
X859022Y955863D01*
X860047Y955728D01*
X861072Y955863D01*
X862027Y956259D01*
X862848Y956888D01*
X863477Y957709D01*
X863873Y958664D01*
X864008Y959689D01*
X863873Y960714D01*
X863477Y961669D01*
X862848Y962490D01*
X862027Y963119D01*
X861072Y963515D01*
X860047Y963650D01*
D02*
G37*
G36*
X849142D02*
X848117Y963515D01*
X847161Y963119D01*
X846341Y962490D01*
X845712Y961669D01*
X845316Y960714D01*
X845181Y959689D01*
X845316Y958664D01*
X845712Y957709D01*
X846341Y956888D01*
X847161Y956259D01*
X848117Y955863D01*
X849142Y955728D01*
X850167Y955863D01*
X851122Y956259D01*
X851942Y956888D01*
X852572Y957709D01*
X852967Y958664D01*
X853102Y959689D01*
X852967Y960714D01*
X852572Y961669D01*
X851942Y962490D01*
X851122Y963119D01*
X850167Y963515D01*
X849142Y963650D01*
D02*
G37*
G36*
X899200Y958939D02*
X898025Y958784D01*
X896931Y958331D01*
X895991Y957609D01*
X895269Y956669D01*
X894816Y955575D01*
X894661Y954400D01*
X894816Y953225D01*
X895269Y952131D01*
X895991Y951191D01*
X896931Y950469D01*
X898025Y950016D01*
X899200Y949861D01*
X900375Y950016D01*
X901469Y950469D01*
X902409Y951191D01*
X903131Y952131D01*
X903584Y953225D01*
X903739Y954400D01*
X903584Y955575D01*
X903131Y956669D01*
X902409Y957609D01*
X901469Y958331D01*
X900375Y958784D01*
X899200Y958939D01*
D02*
G37*
G36*
X582900Y961200D02*
X578927D01*
X579016Y960525D01*
X579469Y959431D01*
X580191Y958491D01*
X581131Y957769D01*
X582225Y957316D01*
X582900Y957227D01*
Y961200D01*
D02*
G37*
G36*
X881858Y963650D02*
X880833Y963515D01*
X879878Y963119D01*
X879058Y962490D01*
X878428Y961669D01*
X878033Y960714D01*
X877898Y959689D01*
X878033Y958664D01*
X878428Y957709D01*
X879058Y956888D01*
X879878Y956259D01*
X880833Y955863D01*
X881858Y955728D01*
X882883Y955863D01*
X883839Y956259D01*
X884659Y956888D01*
X885288Y957709D01*
X885684Y958664D01*
X885819Y959689D01*
X885684Y960714D01*
X885288Y961669D01*
X884659Y962490D01*
X883839Y963119D01*
X882883Y963515D01*
X881858Y963650D01*
D02*
G37*
G36*
X870953D02*
X869928Y963515D01*
X868972Y963119D01*
X868152Y962490D01*
X867523Y961669D01*
X867127Y960714D01*
X866992Y959689D01*
X867127Y958664D01*
X867523Y957709D01*
X868152Y956888D01*
X868972Y956259D01*
X869928Y955863D01*
X870953Y955728D01*
X871978Y955863D01*
X872933Y956259D01*
X873753Y956888D01*
X874383Y957709D01*
X874778Y958664D01*
X874913Y959689D01*
X874778Y960714D01*
X874383Y961669D01*
X873753Y962490D01*
X872933Y963119D01*
X871978Y963515D01*
X870953Y963650D01*
D02*
G37*
G36*
X816600Y973339D02*
X815425Y973184D01*
X814331Y972731D01*
X813391Y972009D01*
X812669Y971069D01*
X812216Y969975D01*
X812061Y968800D01*
X812216Y967625D01*
X812669Y966531D01*
X813391Y965591D01*
X814331Y964869D01*
X815227Y964498D01*
X815154Y964003D01*
X814353Y963924D01*
X812473Y963354D01*
X810741Y962428D01*
X809223Y961182D01*
X807977Y959664D01*
X807051Y957932D01*
X806481Y956053D01*
X806289Y954098D01*
X806481Y952144D01*
X807051Y950265D01*
X807977Y948533D01*
X809223Y947014D01*
X810741Y945769D01*
X812473Y944843D01*
X814353Y944273D01*
X816307Y944080D01*
X818262Y944273D01*
X820141Y944843D01*
X821873Y945769D01*
X823391Y947014D01*
X824637Y948533D01*
X825563Y950265D01*
X826133Y952144D01*
X826325Y954098D01*
X826133Y956053D01*
X825563Y957932D01*
X824637Y959664D01*
X823391Y961182D01*
X821873Y962428D01*
X820141Y963354D01*
X818262Y963924D01*
X817933Y963957D01*
X817860Y964451D01*
X818869Y964869D01*
X819809Y965591D01*
X820531Y966531D01*
X820984Y967625D01*
X821139Y968800D01*
X820984Y969975D01*
X820531Y971069D01*
X819809Y972009D01*
X818869Y972731D01*
X817775Y973184D01*
X816600Y973339D01*
D02*
G37*
G36*
X757760Y946316D02*
X751067D01*
X750372Y946178D01*
X749783Y945784D01*
X749389Y945195D01*
X749251Y944500D01*
X749389Y943805D01*
X749783Y943216D01*
X750372Y942822D01*
X751067Y942684D01*
X757760D01*
X758455Y942822D01*
X759044Y943216D01*
X759438Y943805D01*
X759576Y944500D01*
X759438Y945195D01*
X759044Y945784D01*
X758455Y946178D01*
X757760Y946316D01*
D02*
G37*
G36*
X721933D02*
X715240D01*
X714545Y946178D01*
X713956Y945784D01*
X713562Y945195D01*
X713424Y944500D01*
X713562Y943805D01*
X713956Y943216D01*
X714545Y942822D01*
X715240Y942684D01*
X721933D01*
X722628Y942822D01*
X723217Y943216D01*
X723611Y943805D01*
X723749Y944500D01*
X723611Y945195D01*
X723217Y945784D01*
X722628Y946178D01*
X721933Y946316D01*
D02*
G37*
G36*
X887311Y952468D02*
X886286Y952334D01*
X885331Y951938D01*
X884510Y951309D01*
X883881Y950488D01*
X883485Y949533D01*
X883350Y948508D01*
X883485Y947483D01*
X883881Y946527D01*
X884510Y945707D01*
X885331Y945078D01*
X886286Y944682D01*
X887311Y944547D01*
X888336Y944682D01*
X889291Y945078D01*
X890112Y945707D01*
X890741Y946527D01*
X891137Y947483D01*
X891272Y948508D01*
X891137Y949533D01*
X890741Y950488D01*
X890112Y951309D01*
X889291Y951938D01*
X888336Y952334D01*
X887311Y952468D01*
D02*
G37*
G36*
X876406D02*
X875380Y952334D01*
X874425Y951938D01*
X873605Y951309D01*
X872976Y950488D01*
X872580Y949533D01*
X872445Y948508D01*
X872580Y947483D01*
X872976Y946527D01*
X873605Y945707D01*
X874425Y945078D01*
X875380Y944682D01*
X876406Y944547D01*
X877431Y944682D01*
X878386Y945078D01*
X879206Y945707D01*
X879836Y946527D01*
X880231Y947483D01*
X880366Y948508D01*
X880231Y949533D01*
X879836Y950488D01*
X879206Y951309D01*
X878386Y951938D01*
X877431Y952334D01*
X876406Y952468D01*
D02*
G37*
G36*
X914693Y964117D02*
X912738Y963924D01*
X910859Y963354D01*
X909127Y962428D01*
X907609Y961182D01*
X906363Y959664D01*
X905437Y957932D01*
X904867Y956053D01*
X904675Y954098D01*
X904867Y952144D01*
X905437Y950265D01*
X906363Y948533D01*
X907609Y947014D01*
X909127Y945769D01*
X910859Y944843D01*
X912738Y944273D01*
X914693Y944080D01*
X916647Y944273D01*
X918527Y944843D01*
X920259Y945769D01*
X921777Y947014D01*
X923023Y948533D01*
X923949Y950265D01*
X924519Y952144D01*
X924711Y954098D01*
X924519Y956053D01*
X923949Y957932D01*
X923023Y959664D01*
X921777Y961182D01*
X920259Y962428D01*
X918527Y963354D01*
X916647Y963924D01*
X914693Y964117D01*
D02*
G37*
G36*
X587873Y961200D02*
X583900D01*
Y957227D01*
X584575Y957316D01*
X585669Y957769D01*
X586609Y958491D01*
X587331Y959431D01*
X587784Y960525D01*
X587873Y961200D01*
D02*
G37*
G36*
X940500Y1008000D02*
X936527D01*
X936616Y1007325D01*
X937069Y1006231D01*
X937791Y1005291D01*
X938731Y1004569D01*
X939825Y1004116D01*
X940500Y1004027D01*
Y1008000D01*
D02*
G37*
G36*
X373000Y1017537D02*
X370776Y1017391D01*
X368591Y1016956D01*
X366480Y1016240D01*
X364482Y1015254D01*
X362629Y1014016D01*
X360953Y1012547D01*
X359484Y1010871D01*
X358246Y1009018D01*
X357260Y1007020D01*
X356544Y1004909D01*
X356109Y1002724D01*
X355963Y1000500D01*
X356109Y998276D01*
X356544Y996091D01*
X357260Y993980D01*
X358246Y991982D01*
X359484Y990129D01*
X360953Y988453D01*
X362629Y986984D01*
X364482Y985746D01*
X366480Y984760D01*
X368591Y984044D01*
X370776Y983609D01*
X373000Y983463D01*
X375224Y983609D01*
X377409Y984044D01*
X379520Y984760D01*
X381518Y985746D01*
X383371Y986984D01*
X385047Y988453D01*
X386516Y990129D01*
X387754Y991982D01*
X388740Y993980D01*
X389456Y996091D01*
X389891Y998276D01*
X390037Y1000500D01*
X389891Y1002724D01*
X389456Y1004909D01*
X388740Y1007020D01*
X387754Y1009018D01*
X386516Y1010871D01*
X385047Y1012547D01*
X383371Y1014016D01*
X381518Y1015254D01*
X379520Y1016240D01*
X377409Y1016956D01*
X375224Y1017391D01*
X373000Y1017537D01*
D02*
G37*
G36*
X695643Y994761D02*
X687357D01*
Y987262D01*
X695643D01*
Y988451D01*
X701031D01*
X713853Y975629D01*
X713562Y975195D01*
X713424Y974500D01*
X713562Y973805D01*
X713956Y973216D01*
X714545Y972822D01*
X715240Y972684D01*
X716667D01*
X716964Y972282D01*
X716894Y972049D01*
X716500D01*
X715524Y971855D01*
X714698Y971302D01*
X714625Y971194D01*
X714545Y971178D01*
X713956Y970784D01*
X713720Y970431D01*
X713223Y970382D01*
X701802Y981802D01*
X700976Y982355D01*
X700000Y982549D01*
X699941Y982537D01*
X695643D01*
Y983738D01*
X687357D01*
Y976239D01*
X695643D01*
Y977439D01*
X698956D01*
X713698Y962698D01*
X713952Y962527D01*
X713807Y962049D01*
X704556D01*
X696143Y970461D01*
Y973261D01*
X687857D01*
Y965762D01*
X693633D01*
X697072Y962324D01*
X696836Y961883D01*
X696143Y962020D01*
Y962238D01*
X687857D01*
Y954739D01*
X696143D01*
Y955099D01*
X696605Y955290D01*
X699198Y952698D01*
X699452Y952527D01*
X699307Y952049D01*
X696143D01*
Y953261D01*
X687857D01*
Y945762D01*
X696143D01*
Y946951D01*
X718587D01*
X719562Y947145D01*
X720369Y947684D01*
X721933D01*
X722628Y947822D01*
X723217Y948216D01*
X723611Y948805D01*
X723749Y949500D01*
X723611Y950195D01*
X723217Y950784D01*
X722628Y951178D01*
X721933Y951316D01*
X720369D01*
X719562Y951855D01*
Y952145D01*
X720369Y952684D01*
X721933D01*
X722628Y952822D01*
X723217Y953216D01*
X723611Y953805D01*
X723749Y954500D01*
X723611Y955195D01*
X723217Y955784D01*
X722628Y956178D01*
X721933Y956316D01*
X720369D01*
X719562Y956855D01*
Y957145D01*
X720369Y957684D01*
X721933D01*
X722628Y957822D01*
X723217Y958216D01*
X723611Y958805D01*
X723749Y959500D01*
X723611Y960195D01*
X723217Y960784D01*
X722628Y961178D01*
X721933Y961316D01*
X720369D01*
X719562Y961855D01*
Y962145D01*
X720369Y962684D01*
X721933D01*
X722628Y962822D01*
X723217Y963216D01*
X723611Y963805D01*
X723749Y964500D01*
X723611Y965195D01*
X723217Y965784D01*
X722628Y966178D01*
X721933Y966316D01*
X720369D01*
X719635Y966806D01*
Y966806D01*
X719635D01*
X719562Y966855D01*
Y966855D01*
X719571Y966951D01*
X730000D01*
X730975Y967145D01*
X731802Y967698D01*
X731802Y967698D01*
X731802Y967698D01*
X741088Y976984D01*
X741464Y976654D01*
X741169Y976269D01*
X740716Y975175D01*
X740561Y974000D01*
X740716Y972825D01*
X741169Y971731D01*
X741891Y970791D01*
X742339Y970446D01*
Y969946D01*
X742291Y969909D01*
X741569Y968969D01*
X741116Y967875D01*
X740961Y966700D01*
X741116Y965525D01*
X741569Y964431D01*
X742291Y963491D01*
X743231Y962769D01*
X744325Y962316D01*
X745500Y962161D01*
X746675Y962316D01*
X747769Y962769D01*
X748709Y963491D01*
X748924Y963770D01*
X749424Y963754D01*
X749783Y963216D01*
X750372Y962822D01*
X751067Y962684D01*
X752631D01*
X753281Y962250D01*
Y961750D01*
X752631Y961316D01*
X751067D01*
X750372Y961178D01*
X749783Y960784D01*
X749389Y960195D01*
X749251Y959500D01*
X749389Y958805D01*
X749783Y958216D01*
X750372Y957822D01*
X751067Y957684D01*
X752631D01*
X753281Y957250D01*
Y956750D01*
X752631Y956316D01*
X751067D01*
X750372Y956178D01*
X749783Y955784D01*
X749389Y955195D01*
X749251Y954500D01*
X749389Y953805D01*
X749783Y953216D01*
X750372Y952822D01*
X751067Y952684D01*
X752631D01*
X753281Y952250D01*
Y951750D01*
X752631Y951316D01*
X751067D01*
X750372Y951178D01*
X749783Y950784D01*
X749389Y950195D01*
X749251Y949500D01*
X749389Y948805D01*
X749783Y948216D01*
X750372Y947822D01*
X751067Y947684D01*
X752631D01*
X753438Y947145D01*
X754413Y946951D01*
X758944D01*
X802920Y902975D01*
X802937Y902842D01*
X740590Y840495D01*
X740129Y840687D01*
Y842924D01*
X796640Y899435D01*
X797428Y899539D01*
X798292Y899897D01*
X799034Y900466D01*
X799603Y901208D01*
X799961Y902073D01*
X800083Y903000D01*
X799961Y903927D01*
X799603Y904792D01*
X799034Y905534D01*
X798292Y906103D01*
X797428Y906461D01*
X796500Y906583D01*
X795573Y906461D01*
X794708Y906103D01*
X793966Y905534D01*
X793397Y904792D01*
X793039Y903927D01*
X792917Y903000D01*
X792926Y902931D01*
X738622Y848627D01*
X738160Y848818D01*
Y851355D01*
X786254Y899449D01*
X786500Y899417D01*
X787428Y899539D01*
X788292Y899897D01*
X789034Y900466D01*
X789603Y901208D01*
X789961Y902073D01*
X790083Y903000D01*
X789961Y903927D01*
X789603Y904792D01*
X789034Y905534D01*
X788292Y906103D01*
X787428Y906461D01*
X786500Y906583D01*
X785572Y906461D01*
X784708Y906103D01*
X783966Y905534D01*
X783397Y904792D01*
X783039Y903927D01*
X782965Y903370D01*
X736653Y857058D01*
X736192Y857250D01*
Y859187D01*
X776431Y899426D01*
X776500Y899417D01*
X777427Y899539D01*
X778292Y899897D01*
X779034Y900466D01*
X779603Y901208D01*
X779961Y902073D01*
X780083Y903000D01*
X779961Y903927D01*
X779603Y904792D01*
X779034Y905534D01*
X778292Y906103D01*
X777427Y906461D01*
X776500Y906583D01*
X775572Y906461D01*
X774708Y906103D01*
X773966Y905534D01*
X773397Y904792D01*
X773039Y903927D01*
X772935Y903140D01*
X734685Y864890D01*
X734223Y865081D01*
Y866918D01*
X766755Y899450D01*
X767427Y899539D01*
X768292Y899897D01*
X769034Y900466D01*
X769603Y901208D01*
X769961Y902073D01*
X770083Y903000D01*
X769961Y903927D01*
X769603Y904792D01*
X769034Y905534D01*
X768292Y906103D01*
X767427Y906461D01*
X766500Y906583D01*
X765573Y906461D01*
X764708Y906103D01*
X763966Y905534D01*
X763397Y904792D01*
X763039Y903927D01*
X762917Y903000D01*
X762937Y902842D01*
X732716Y872621D01*
X732255Y872813D01*
Y874950D01*
X756755Y899450D01*
X757428Y899539D01*
X758292Y899897D01*
X759034Y900466D01*
X759603Y901208D01*
X759961Y902073D01*
X760083Y903000D01*
X759961Y903927D01*
X759603Y904792D01*
X759034Y905534D01*
X758292Y906103D01*
X757428Y906461D01*
X756500Y906583D01*
X755573Y906461D01*
X754708Y906103D01*
X753966Y905534D01*
X753397Y904792D01*
X753039Y903927D01*
X752917Y903000D01*
X752937Y902842D01*
X730748Y880653D01*
X730286Y880844D01*
Y883181D01*
X746525Y899420D01*
X747428Y899539D01*
X748292Y899897D01*
X749034Y900466D01*
X749603Y901208D01*
X749961Y902073D01*
X750083Y903000D01*
X749961Y903927D01*
X749603Y904792D01*
X749034Y905534D01*
X748292Y906103D01*
X747428Y906461D01*
X746500Y906583D01*
X745573Y906461D01*
X744708Y906103D01*
X743966Y905534D01*
X743397Y904792D01*
X743039Y903927D01*
X742920Y903025D01*
X725935Y886039D01*
X725382Y885213D01*
X725188Y884237D01*
Y805521D01*
X724910Y805336D01*
X724658D01*
X724380Y805521D01*
Y897169D01*
X724186Y898144D01*
X723634Y898971D01*
X720028Y902577D01*
X720083Y903000D01*
X719961Y903927D01*
X719603Y904792D01*
X719034Y905534D01*
X718292Y906103D01*
X717427Y906461D01*
X716500Y906583D01*
X715573Y906461D01*
X714708Y906103D01*
X713966Y905534D01*
X713397Y904792D01*
X713039Y903927D01*
X712917Y903000D01*
X713039Y902073D01*
X713397Y901208D01*
X713966Y900466D01*
X714708Y899897D01*
X715573Y899539D01*
X715900Y899496D01*
X719282Y896113D01*
Y893776D01*
X718821Y893584D01*
X710005Y902400D01*
X710083Y903000D01*
X709961Y903927D01*
X709603Y904792D01*
X709034Y905534D01*
X708292Y906103D01*
X707428Y906461D01*
X706500Y906583D01*
X705573Y906461D01*
X704708Y906103D01*
X703966Y905534D01*
X703397Y904792D01*
X703039Y903927D01*
X702917Y903000D01*
X703039Y902073D01*
X703397Y901208D01*
X703966Y900466D01*
X704708Y899897D01*
X705573Y899539D01*
X705669Y899526D01*
X717314Y887881D01*
Y886344D01*
X716852Y886153D01*
X700074Y902931D01*
X700083Y903000D01*
X699961Y903927D01*
X699603Y904792D01*
X699034Y905534D01*
X698292Y906103D01*
X697428Y906461D01*
X696500Y906583D01*
X695573Y906461D01*
X694708Y906103D01*
X693966Y905534D01*
X693397Y904792D01*
X693039Y903927D01*
X692917Y903000D01*
X693039Y902073D01*
X693397Y901208D01*
X693966Y900466D01*
X694708Y899897D01*
X695573Y899539D01*
X696360Y899435D01*
X715345Y880450D01*
Y878513D01*
X714884Y878321D01*
X690065Y903140D01*
X689961Y903927D01*
X689603Y904792D01*
X689034Y905534D01*
X688292Y906103D01*
X687428Y906461D01*
X686525Y906580D01*
X676949Y916156D01*
Y961600D01*
X676755Y962575D01*
X676202Y963402D01*
X668802Y970802D01*
X667976Y971355D01*
X667000Y971549D01*
X665553D01*
Y977553D01*
X658447D01*
Y971549D01*
X641163D01*
X640941Y971997D01*
X641103Y972208D01*
X641461Y973073D01*
X641583Y974000D01*
X641461Y974927D01*
X641103Y975792D01*
X640534Y976534D01*
X639792Y977103D01*
X638928Y977461D01*
X638000Y977583D01*
X637073Y977461D01*
X636208Y977103D01*
X635466Y976534D01*
X634897Y975792D01*
X634539Y974927D01*
X634417Y974000D01*
X634539Y973073D01*
X634897Y972208D01*
X635058Y971997D01*
X634837Y971549D01*
X634056D01*
X631553Y974052D01*
Y977553D01*
X624447D01*
Y970447D01*
X627948D01*
X631198Y967198D01*
X632024Y966645D01*
X633000Y966451D01*
X634837D01*
X635058Y966003D01*
X634897Y965792D01*
X634539Y964927D01*
X634417Y964000D01*
X634539Y963073D01*
X634873Y962265D01*
X634719Y962033D01*
X634221Y961984D01*
X631489Y964716D01*
X631461Y964927D01*
X631103Y965792D01*
X630534Y966534D01*
X629792Y967103D01*
X628928Y967461D01*
X628000Y967583D01*
X627072Y967461D01*
X626208Y967103D01*
X625466Y966534D01*
X624897Y965792D01*
X624539Y964927D01*
X624417Y964000D01*
X624539Y963073D01*
X624897Y962208D01*
X625466Y961466D01*
X626208Y960897D01*
X627072Y960539D01*
X628000Y960417D01*
X628511Y960484D01*
X631498Y957498D01*
X632325Y956945D01*
X633300Y956751D01*
X635068D01*
X635289Y956303D01*
X634897Y955792D01*
X634539Y954927D01*
X634417Y954000D01*
X634539Y953073D01*
X634873Y952265D01*
X634595Y951849D01*
X633956D01*
X631550Y954255D01*
X631461Y954927D01*
X631103Y955792D01*
X630534Y956534D01*
X629792Y957103D01*
X628928Y957461D01*
X628000Y957583D01*
X627072Y957461D01*
X626208Y957103D01*
X625466Y956534D01*
X624897Y955792D01*
X624539Y954927D01*
X624417Y954000D01*
X624539Y953073D01*
X624897Y952208D01*
X625466Y951466D01*
X625523Y951423D01*
X625362Y950949D01*
X611144D01*
X592698Y969395D01*
X592890Y969857D01*
X599261D01*
Y971751D01*
X599784D01*
X600291Y971091D01*
X601231Y970369D01*
X602325Y969916D01*
X603500Y969761D01*
X604675Y969916D01*
X605769Y970369D01*
X606709Y971091D01*
X607431Y972031D01*
X607884Y973125D01*
X608039Y974300D01*
X607884Y975475D01*
X607431Y976569D01*
X606709Y977509D01*
X605769Y978231D01*
X604675Y978684D01*
X603500Y978839D01*
X602325Y978684D01*
X601231Y978231D01*
X600291Y977509D01*
X599784Y976849D01*
X599261D01*
Y978143D01*
X597449D01*
Y985527D01*
X597705Y985861D01*
X598133Y986893D01*
X598278Y988000D01*
X598133Y989107D01*
X597705Y990139D01*
X597025Y991025D01*
X596139Y991705D01*
X595107Y992133D01*
X594000Y992278D01*
X592893Y992133D01*
X591861Y991705D01*
X590975Y991025D01*
X590295Y990139D01*
X589867Y989107D01*
X589722Y988000D01*
X589867Y986893D01*
X590295Y985861D01*
X590975Y984975D01*
X591861Y984295D01*
X592351Y984092D01*
Y978143D01*
X591762D01*
Y970984D01*
X591300Y970793D01*
X588238Y973855D01*
Y978143D01*
X580739D01*
Y976061D01*
X578143D01*
Y977261D01*
X576549D01*
Y983758D01*
X578242D01*
Y992242D01*
X569758D01*
Y983758D01*
X571451D01*
Y977261D01*
X569857D01*
Y969762D01*
X578143D01*
Y970963D01*
X580739D01*
Y969857D01*
X585027D01*
X608286Y946598D01*
X609113Y946045D01*
X610088Y945851D01*
X624471D01*
X624749Y945435D01*
X624539Y944927D01*
X624417Y944000D01*
X624539Y943073D01*
X624897Y942208D01*
X625466Y941466D01*
X626208Y940897D01*
X627072Y940539D01*
X628000Y940417D01*
X628865Y940530D01*
X630551Y938844D01*
Y937086D01*
X630103Y936865D01*
X629792Y937103D01*
X628928Y937461D01*
X628000Y937583D01*
X627072Y937461D01*
X626208Y937103D01*
X625466Y936534D01*
X624897Y935792D01*
X624539Y934927D01*
X624417Y934000D01*
X624539Y933073D01*
X624897Y932208D01*
X625466Y931466D01*
X626208Y930897D01*
X627072Y930539D01*
X628000Y930417D01*
X628928Y930539D01*
X629792Y930897D01*
X630103Y931135D01*
X630551Y930914D01*
Y926400D01*
X630745Y925425D01*
X631298Y924598D01*
X652920Y902975D01*
X653039Y902073D01*
X653397Y901208D01*
X653966Y900466D01*
X654708Y899897D01*
X655573Y899539D01*
X656500Y899417D01*
X656923Y899472D01*
X707472Y848924D01*
Y846387D01*
X707010Y846195D01*
X650065Y903140D01*
X649961Y903927D01*
X649603Y904792D01*
X649034Y905534D01*
X648292Y906103D01*
X647428Y906461D01*
X646500Y906583D01*
X645573Y906461D01*
X644708Y906103D01*
X643966Y905534D01*
X643397Y904792D01*
X643039Y903927D01*
X642917Y903000D01*
X643039Y902073D01*
X643397Y901208D01*
X643966Y900466D01*
X644708Y899897D01*
X645573Y899539D01*
X646500Y899417D01*
X646569Y899426D01*
X705503Y840492D01*
Y838355D01*
X705041Y838164D01*
X640065Y903140D01*
X639961Y903927D01*
X639603Y904792D01*
X639034Y905534D01*
X638292Y906103D01*
X637428Y906461D01*
X636500Y906583D01*
X635572Y906461D01*
X634708Y906103D01*
X633966Y905534D01*
X633397Y904792D01*
X633039Y903927D01*
X632917Y903000D01*
X633039Y902073D01*
X633397Y901208D01*
X633966Y900466D01*
X634708Y899897D01*
X635572Y899539D01*
X636500Y899417D01*
X636569Y899426D01*
X703535Y832461D01*
Y829624D01*
X703073Y829432D01*
X630016Y902489D01*
X630083Y903000D01*
X629961Y903927D01*
X629603Y904792D01*
X629034Y905534D01*
X628292Y906103D01*
X627427Y906461D01*
X626500Y906583D01*
X625572Y906461D01*
X624708Y906103D01*
X624582Y906006D01*
X624325Y905955D01*
X623498Y905402D01*
X622945Y904575D01*
X622751Y903600D01*
X622945Y902625D01*
X622971Y902586D01*
X623039Y902073D01*
X623397Y901208D01*
X623966Y900466D01*
X624708Y899897D01*
X625572Y899539D01*
X625784Y899511D01*
X701566Y823729D01*
Y820992D01*
X701104Y820801D01*
X619923Y901981D01*
X619961Y902073D01*
X620083Y903000D01*
X619961Y903927D01*
X619603Y904792D01*
X619034Y905534D01*
X618292Y906103D01*
X617427Y906461D01*
X616500Y906583D01*
X615573Y906461D01*
X614708Y906103D01*
X613966Y905534D01*
X613397Y904792D01*
X613039Y903927D01*
X612917Y903000D01*
X613039Y902073D01*
X613397Y901208D01*
X613966Y900466D01*
X614708Y899897D01*
X614862Y899833D01*
X699598Y815098D01*
Y806461D01*
X699135Y806270D01*
X608649Y896757D01*
Y900171D01*
X609034Y900466D01*
X609603Y901208D01*
X609961Y902073D01*
X610083Y903000D01*
X609961Y903927D01*
X609603Y904792D01*
X609034Y905534D01*
X608292Y906103D01*
X607428Y906461D01*
X606500Y906583D01*
X605573Y906461D01*
X604708Y906103D01*
X603966Y905534D01*
X603397Y904792D01*
X603039Y903927D01*
X602917Y903000D01*
X603039Y902073D01*
X603397Y901208D01*
X603551Y901007D01*
Y895701D01*
X603551Y895701D01*
X603551D01*
X603745Y894725D01*
X604298Y893898D01*
X698376Y799820D01*
X698964Y799427D01*
Y798769D01*
X699056Y798304D01*
X699320Y797910D01*
X699713Y797647D01*
X700178Y797555D01*
X700642Y797647D01*
X701036Y797910D01*
X701288D01*
X701682Y797647D01*
X702146Y797555D01*
X702611Y797647D01*
X703005Y797910D01*
X703257D01*
X703650Y797647D01*
X704115Y797555D01*
X704579Y797647D01*
X704973Y797910D01*
X705225D01*
X705619Y797647D01*
X706083Y797555D01*
X706548Y797647D01*
X706942Y797910D01*
X707194D01*
X707587Y797647D01*
X708052Y797555D01*
X708517Y797647D01*
X708910Y797910D01*
X709162D01*
X709556Y797647D01*
X710020Y797555D01*
X710485Y797647D01*
X710879Y797910D01*
X711131D01*
X711524Y797647D01*
X711989Y797555D01*
X712454Y797647D01*
X712847Y797910D01*
X713099D01*
X713493Y797647D01*
X713958Y797555D01*
X714422Y797647D01*
X714816Y797910D01*
X715068D01*
X715461Y797647D01*
X715926Y797555D01*
X716391Y797647D01*
X716784Y797910D01*
X717036D01*
X717430Y797647D01*
X717895Y797555D01*
X718359Y797647D01*
X718753Y797910D01*
X718910D01*
X719245Y797540D01*
X719216Y797239D01*
X718231Y796831D01*
X717291Y796109D01*
X716569Y795169D01*
X716116Y794075D01*
X715961Y792900D01*
X716116Y791725D01*
X716569Y790631D01*
X717291Y789691D01*
X718231Y788969D01*
X719325Y788516D01*
X720500Y788361D01*
X721675Y788516D01*
X722769Y788969D01*
X723709Y789691D01*
X723817Y789831D01*
X724313Y789896D01*
X725131Y789269D01*
X726225Y788816D01*
X726900Y788727D01*
Y793201D01*
X727399D01*
Y793700D01*
X731873D01*
X731784Y794375D01*
X731331Y795469D01*
X730609Y796409D01*
X729669Y797131D01*
X729625Y797149D01*
X729705Y797555D01*
X730170Y797647D01*
X730564Y797910D01*
X730816D01*
X731210Y797647D01*
X731674Y797555D01*
X732139Y797647D01*
X732532Y797910D01*
X732784D01*
X733178Y797647D01*
X733642Y797555D01*
X734107Y797647D01*
X734501Y797910D01*
X734753D01*
X735147Y797647D01*
X735611Y797555D01*
X736076Y797647D01*
X736469Y797910D01*
X736721D01*
X737115Y797647D01*
X737579Y797555D01*
X738044Y797647D01*
X738438Y797910D01*
X738690D01*
X739083Y797647D01*
X739548Y797555D01*
X740013Y797647D01*
X740406Y797910D01*
X740658D01*
X741052Y797647D01*
X741516Y797555D01*
X741981Y797647D01*
X742375Y797910D01*
X742627D01*
X743020Y797647D01*
X743485Y797555D01*
X743950Y797647D01*
X744343Y797910D01*
X744595D01*
X744989Y797647D01*
X745454Y797555D01*
X745918Y797647D01*
X746312Y797910D01*
X746564D01*
X746957Y797647D01*
X747422Y797555D01*
X747887Y797647D01*
X748280Y797910D01*
X748544Y798304D01*
X748636Y798769D01*
Y799427D01*
X749224Y799820D01*
X848502Y899098D01*
X848736Y899447D01*
X850053D01*
Y906553D01*
X842947D01*
Y900753D01*
X748464Y806270D01*
X748002Y806461D01*
Y809898D01*
X837796Y899691D01*
X838292Y899897D01*
X839034Y900466D01*
X839603Y901208D01*
X839961Y902073D01*
X840083Y903000D01*
X839961Y903927D01*
X839603Y904792D01*
X839034Y905534D01*
X838292Y906103D01*
X837427Y906461D01*
X836500Y906583D01*
X835573Y906461D01*
X834708Y906103D01*
X833966Y905534D01*
X833397Y904792D01*
X833039Y903927D01*
X832917Y903000D01*
X833030Y902135D01*
X746496Y815601D01*
X746034Y815792D01*
Y817729D01*
X828138Y899833D01*
X828292Y899897D01*
X829034Y900466D01*
X829603Y901208D01*
X829961Y902073D01*
X830083Y903000D01*
X829961Y903927D01*
X829603Y904792D01*
X829034Y905534D01*
X828292Y906103D01*
X827427Y906461D01*
X826500Y906583D01*
X825573Y906461D01*
X824708Y906103D01*
X823966Y905534D01*
X823397Y904792D01*
X823039Y903927D01*
X822917Y903000D01*
X823039Y902073D01*
X823077Y901981D01*
X744527Y823432D01*
X744066Y823624D01*
Y826261D01*
X817331Y899526D01*
X817428Y899539D01*
X818292Y899897D01*
X819034Y900466D01*
X819603Y901208D01*
X819961Y902073D01*
X820083Y903000D01*
X819961Y903927D01*
X819603Y904792D01*
X819034Y905534D01*
X818292Y906103D01*
X817428Y906461D01*
X816500Y906583D01*
X815572Y906461D01*
X814708Y906103D01*
X813966Y905534D01*
X813397Y904792D01*
X813039Y903927D01*
X812917Y903000D01*
X812996Y902400D01*
X742559Y831964D01*
X742097Y832155D01*
Y834792D01*
X806755Y899450D01*
X807428Y899539D01*
X808292Y899897D01*
X809034Y900466D01*
X809603Y901208D01*
X809961Y902073D01*
X810083Y903000D01*
X809961Y903927D01*
X809603Y904792D01*
X809034Y905534D01*
X808292Y906103D01*
X807428Y906461D01*
X806525Y906580D01*
X761802Y951302D01*
X761049Y951806D01*
Y951806D01*
X761049D01*
X760976Y951855D01*
Y951855D01*
X760985Y951951D01*
X762284D01*
X762791Y951291D01*
X763731Y950569D01*
X764825Y950116D01*
X766000Y949961D01*
X767175Y950116D01*
X768269Y950569D01*
X769209Y951291D01*
X769931Y952231D01*
X770384Y953325D01*
X770518Y954343D01*
X770992Y954504D01*
X800398Y925098D01*
X801225Y924545D01*
X802200Y924351D01*
X844200D01*
X845175Y924545D01*
X846002Y925098D01*
X865458Y944553D01*
X865500Y944547D01*
X866525Y944682D01*
X867480Y945078D01*
X868301Y945707D01*
X868930Y946527D01*
X869326Y947483D01*
X869461Y948508D01*
X869326Y949533D01*
X868930Y950488D01*
X868301Y951309D01*
X867480Y951938D01*
X866525Y952334D01*
X865500Y952468D01*
X864475Y952334D01*
X863520Y951938D01*
X862699Y951309D01*
X862070Y950488D01*
X861674Y949533D01*
X861539Y948508D01*
X861617Y947921D01*
X843144Y929449D01*
X803256D01*
X802216Y930489D01*
X802407Y930951D01*
X840000D01*
X840975Y931145D01*
X841802Y931698D01*
X854661Y944556D01*
X855620Y944682D01*
X856575Y945078D01*
X857395Y945707D01*
X858025Y946527D01*
X858420Y947483D01*
X858555Y948508D01*
X858420Y949533D01*
X858025Y950488D01*
X857395Y951309D01*
X856575Y951938D01*
X855620Y952334D01*
X854595Y952468D01*
X853569Y952334D01*
X852614Y951938D01*
X851794Y951309D01*
X851165Y950488D01*
X850769Y949533D01*
X850634Y948508D01*
X850723Y947828D01*
X848078Y945183D01*
X847616Y945374D01*
Y952435D01*
X839762D01*
Y944581D01*
X846823D01*
X847014Y944119D01*
X838944Y936049D01*
X801056D01*
X770802Y966302D01*
X769976Y966855D01*
X769000Y967049D01*
X756106D01*
X755961Y967527D01*
X756195Y967684D01*
X757760D01*
X758455Y967822D01*
X759044Y968216D01*
X759438Y968805D01*
X759576Y969500D01*
X759438Y970195D01*
X759044Y970784D01*
X758455Y971178D01*
X757760Y971316D01*
X756195D01*
X755462Y971806D01*
Y971806D01*
X755462D01*
X755389Y971855D01*
Y971855D01*
X755398Y971951D01*
X757300D01*
X758276Y972145D01*
X759102Y972698D01*
X768261Y981857D01*
X771261D01*
Y983951D01*
X930444D01*
X938951Y975444D01*
Y883500D01*
X939145Y882525D01*
X939698Y881698D01*
X1045570Y775825D01*
X1045461Y775000D01*
X1045616Y773825D01*
X1046069Y772731D01*
X1046791Y771791D01*
X1047731Y771069D01*
X1048825Y770616D01*
X1050000Y770461D01*
X1051175Y770616D01*
X1052269Y771069D01*
X1053209Y771791D01*
X1053931Y772731D01*
X1054022Y772951D01*
X1058239D01*
Y771357D01*
X1065738D01*
Y779643D01*
X1058239D01*
Y778049D01*
X1053333D01*
X1053209Y778209D01*
X1052269Y778931D01*
X1051175Y779384D01*
X1050000Y779539D01*
X1049175Y779430D01*
X944049Y884556D01*
Y976500D01*
X943855Y977475D01*
X943302Y978302D01*
X933302Y988302D01*
X932475Y988855D01*
X931500Y989049D01*
X771261D01*
Y990143D01*
X763762D01*
Y984567D01*
X756244Y977049D01*
X748433D01*
X748309Y977209D01*
X747369Y977931D01*
X746275Y978384D01*
X745100Y978539D01*
X743925Y978384D01*
X742831Y977931D01*
X742446Y977636D01*
X742116Y978012D01*
X747456Y983351D01*
X752739D01*
Y981857D01*
X760238D01*
Y990143D01*
X752739D01*
Y988449D01*
X746400D01*
X745425Y988255D01*
X744598Y987702D01*
X728944Y972049D01*
X720280D01*
X720134Y972527D01*
X720369Y972684D01*
X721933D01*
X722628Y972822D01*
X723217Y973216D01*
X723611Y973805D01*
X723749Y974500D01*
X723611Y975195D01*
X723217Y975784D01*
X722628Y976178D01*
X721933Y976316D01*
X720375D01*
X703889Y992802D01*
X703062Y993355D01*
X702087Y993549D01*
X695643D01*
Y994761D01*
D02*
G37*
G36*
X941500Y1012973D02*
Y1009000D01*
X945473D01*
X945384Y1009675D01*
X944931Y1010769D01*
X944209Y1011709D01*
X943269Y1012431D01*
X942175Y1012884D01*
X941500Y1012973D01*
D02*
G37*
G36*
X940500D02*
X939825Y1012884D01*
X938731Y1012431D01*
X937791Y1011709D01*
X937069Y1010769D01*
X936616Y1009675D01*
X936527Y1009000D01*
X940500D01*
Y1012973D01*
D02*
G37*
G36*
X945473Y1008000D02*
X941500D01*
Y1004027D01*
X942175Y1004116D01*
X943269Y1004569D01*
X944209Y1005291D01*
X944931Y1006231D01*
X945384Y1007325D01*
X945473Y1008000D01*
D02*
G37*
G36*
X582900Y966173D02*
X582225Y966084D01*
X581131Y965631D01*
X580191Y964909D01*
X579469Y963969D01*
X579016Y962875D01*
X578927Y962200D01*
X582900D01*
Y966173D01*
D02*
G37*
G36*
X578143Y961988D02*
X574500D01*
Y958739D01*
X578143D01*
Y961988D01*
D02*
G37*
G36*
X573500D02*
X569857D01*
Y958739D01*
X573500D01*
Y961988D01*
D02*
G37*
G36*
X578143Y966238D02*
X574500D01*
Y962988D01*
X578143D01*
Y966238D01*
D02*
G37*
G36*
X573500D02*
X569857D01*
Y962988D01*
X573500D01*
Y966238D01*
D02*
G37*
G36*
X583900Y966173D02*
Y962200D01*
X587873D01*
X587784Y962875D01*
X587331Y963969D01*
X586609Y964909D01*
X585669Y965631D01*
X584575Y966084D01*
X583900Y966173D01*
D02*
G37*
G36*
X600053Y894553D02*
X592947D01*
Y887447D01*
X598347D01*
X601284Y884511D01*
X601092Y884049D01*
X598362D01*
X598292Y884103D01*
X597428Y884461D01*
X596500Y884583D01*
X595573Y884461D01*
X594708Y884103D01*
X593966Y883534D01*
X593397Y882792D01*
X593039Y881927D01*
X592917Y881000D01*
X593039Y880073D01*
X593397Y879208D01*
X593966Y878466D01*
X594708Y877897D01*
X595573Y877539D01*
X596500Y877417D01*
X597428Y877539D01*
X598292Y877897D01*
X599034Y878466D01*
X599406Y878951D01*
X600344D01*
X605384Y873911D01*
X605193Y873449D01*
X599099D01*
X599034Y873534D01*
X598292Y874103D01*
X597428Y874461D01*
X596500Y874583D01*
X595573Y874461D01*
X594708Y874103D01*
X593966Y873534D01*
X593397Y872792D01*
X593039Y871927D01*
X592917Y871000D01*
X593039Y870073D01*
X593397Y869208D01*
X593966Y868466D01*
X594708Y867897D01*
X595573Y867539D01*
X596500Y867417D01*
X597428Y867539D01*
X598292Y867897D01*
X598884Y868351D01*
X607844D01*
X612484Y863711D01*
X612293Y863249D01*
X599252D01*
X599034Y863534D01*
X598292Y864103D01*
X597428Y864461D01*
X596500Y864583D01*
X595573Y864461D01*
X594708Y864103D01*
X593966Y863534D01*
X593397Y862792D01*
X593039Y861927D01*
X592917Y861000D01*
X593039Y860073D01*
X593397Y859208D01*
X593966Y858466D01*
X594708Y857897D01*
X595573Y857539D01*
X596500Y857417D01*
X597428Y857539D01*
X598292Y857897D01*
X598623Y858151D01*
X614644D01*
X618084Y854711D01*
X617893Y854249D01*
X597940D01*
X597428Y854461D01*
X596500Y854583D01*
X595573Y854461D01*
X594708Y854103D01*
X593966Y853534D01*
X593397Y852792D01*
X593039Y851927D01*
X592917Y851000D01*
X593039Y850073D01*
X593397Y849208D01*
X593966Y848466D01*
X594708Y847897D01*
X595573Y847539D01*
X596500Y847417D01*
X597428Y847539D01*
X598292Y847897D01*
X599034Y848466D01*
X599559Y849151D01*
X619544D01*
X624184Y844511D01*
X623993Y844049D01*
X598362D01*
X598292Y844103D01*
X597428Y844461D01*
X596500Y844583D01*
X595573Y844461D01*
X594708Y844103D01*
X593966Y843534D01*
X593397Y842792D01*
X593039Y841927D01*
X592917Y841000D01*
X593039Y840073D01*
X593397Y839208D01*
X593966Y838466D01*
X594708Y837897D01*
X595573Y837539D01*
X596500Y837417D01*
X597428Y837539D01*
X598292Y837897D01*
X599034Y838466D01*
X599406Y838951D01*
X627144D01*
X632184Y833911D01*
X631993Y833449D01*
X599099D01*
X599034Y833534D01*
X598292Y834103D01*
X597428Y834461D01*
X596500Y834583D01*
X595573Y834461D01*
X594708Y834103D01*
X593966Y833534D01*
X593397Y832792D01*
X593039Y831927D01*
X592917Y831000D01*
X593039Y830073D01*
X593397Y829208D01*
X593966Y828466D01*
X594708Y827897D01*
X595573Y827539D01*
X596500Y827417D01*
X597428Y827539D01*
X598292Y827897D01*
X598884Y828351D01*
X635044D01*
X638784Y824611D01*
X638593Y824149D01*
X598181D01*
X597428Y824461D01*
X596500Y824583D01*
X595573Y824461D01*
X594708Y824103D01*
X594617Y824033D01*
X594225Y823955D01*
X593398Y823402D01*
X592845Y822575D01*
X592651Y821600D01*
X592845Y820625D01*
X592996Y820399D01*
X593039Y820073D01*
X593397Y819208D01*
X593966Y818466D01*
X594708Y817897D01*
X595573Y817539D01*
X596500Y817417D01*
X597428Y817539D01*
X598292Y817897D01*
X599034Y818466D01*
X599483Y819051D01*
X642081D01*
X647121Y814011D01*
X646930Y813549D01*
X599014D01*
X598292Y814103D01*
X597428Y814461D01*
X596500Y814583D01*
X595573Y814461D01*
X594708Y814103D01*
X593966Y813534D01*
X593397Y812792D01*
X593039Y811928D01*
X592917Y811000D01*
X593039Y810073D01*
X593397Y809208D01*
X593966Y808466D01*
X594708Y807897D01*
X595573Y807539D01*
X596500Y807417D01*
X597428Y807539D01*
X598292Y807897D01*
X599014Y808451D01*
X650419D01*
X655159Y803711D01*
X654967Y803249D01*
X599252D01*
X599034Y803534D01*
X598292Y804103D01*
X597428Y804461D01*
X596500Y804583D01*
X595573Y804461D01*
X594708Y804103D01*
X593966Y803534D01*
X593397Y802792D01*
X593039Y801927D01*
X592917Y801000D01*
X593039Y800072D01*
X593397Y799208D01*
X593966Y798466D01*
X594708Y797897D01*
X595573Y797539D01*
X596500Y797417D01*
X597428Y797539D01*
X598292Y797897D01*
X598623Y798151D01*
X658344D01*
X665890Y790605D01*
X665699Y790143D01*
X659762D01*
Y781857D01*
X661863D01*
Y780406D01*
X660700D01*
Y774205D01*
X661947D01*
X662489Y773714D01*
X663425Y773379D01*
X664418Y773427D01*
X667532Y774205D01*
X672390D01*
X673753Y772842D01*
X673561Y772380D01*
X666732D01*
X665756Y772186D01*
X665477Y772000D01*
X660700D01*
Y765800D01*
X661851D01*
Y764143D01*
X659762D01*
Y755857D01*
X667261D01*
Y764143D01*
X666949D01*
Y765800D01*
X672900D01*
Y767282D01*
X688607D01*
X688864Y766854D01*
X688661Y766475D01*
X687426D01*
X686450Y766281D01*
X685624Y765728D01*
X653444Y733549D01*
X599014D01*
X598292Y734103D01*
X597428Y734461D01*
X596500Y734583D01*
X595573Y734461D01*
X594708Y734103D01*
X593966Y733534D01*
X593397Y732792D01*
X593039Y731927D01*
X592917Y731000D01*
X593039Y730072D01*
X593397Y729208D01*
X593966Y728466D01*
X594708Y727897D01*
X595573Y727539D01*
X596500Y727417D01*
X597428Y727539D01*
X598292Y727897D01*
X599014Y728451D01*
X650030D01*
X650221Y727989D01*
X645381Y723149D01*
X599329D01*
X599034Y723534D01*
X598292Y724103D01*
X597428Y724461D01*
X596500Y724583D01*
X595573Y724461D01*
X594708Y724103D01*
X593966Y723534D01*
X593397Y722792D01*
X593039Y721927D01*
X592917Y721000D01*
X593039Y720073D01*
X593397Y719208D01*
X593966Y718466D01*
X594708Y717897D01*
X595573Y717539D01*
X596500Y717417D01*
X597428Y717539D01*
X598292Y717897D01*
X598493Y718051D01*
X641893D01*
X642084Y717589D01*
X638244Y713749D01*
X598753D01*
X598292Y714103D01*
X597428Y714461D01*
X596500Y714583D01*
X595573Y714461D01*
X594708Y714103D01*
X593966Y713534D01*
X593397Y712792D01*
X593039Y711928D01*
X592917Y711000D01*
X593039Y710073D01*
X593397Y709208D01*
X593966Y708466D01*
X594708Y707897D01*
X595573Y707539D01*
X596500Y707417D01*
X597428Y707539D01*
X598292Y707897D01*
X599034Y708466D01*
X599176Y708651D01*
X634968D01*
X635159Y708189D01*
X630619Y703649D01*
X598884D01*
X598292Y704103D01*
X597428Y704461D01*
X596500Y704583D01*
X595573Y704461D01*
X594708Y704103D01*
X593966Y703534D01*
X593397Y702792D01*
X593039Y701928D01*
X592917Y701000D01*
X593039Y700072D01*
X593397Y699208D01*
X593966Y698466D01*
X594708Y697897D01*
X595573Y697539D01*
X596500Y697417D01*
X597428Y697539D01*
X598292Y697897D01*
X599034Y698466D01*
X599099Y698551D01*
X627130D01*
X627321Y698089D01*
X622281Y693049D01*
X599406D01*
X599034Y693534D01*
X598292Y694103D01*
X597428Y694461D01*
X596500Y694583D01*
X595573Y694461D01*
X594708Y694103D01*
X593966Y693534D01*
X593397Y692792D01*
X593039Y691927D01*
X592917Y691000D01*
X593039Y690072D01*
X593397Y689208D01*
X593966Y688466D01*
X594708Y687897D01*
X595573Y687539D01*
X596500Y687417D01*
X597428Y687539D01*
X598292Y687897D01*
X598362Y687951D01*
X618793D01*
X618984Y687489D01*
X616444Y684949D01*
X599900D01*
X598924Y684755D01*
X598098Y684202D01*
X598084Y684189D01*
X597428Y684461D01*
X596500Y684583D01*
X595573Y684461D01*
X594708Y684103D01*
X593966Y683534D01*
X593397Y682792D01*
X593039Y681927D01*
X592917Y681000D01*
X593039Y680072D01*
X593397Y679208D01*
X593966Y678466D01*
X594708Y677897D01*
X595573Y677539D01*
X596404Y677429D01*
X597300Y677251D01*
X598276Y677445D01*
X599102Y677998D01*
X600956Y679851D01*
X612930D01*
X613122Y679389D01*
X607681Y673949D01*
X598493D01*
X598292Y674103D01*
X597428Y674461D01*
X596500Y674583D01*
X595573Y674461D01*
X594708Y674103D01*
X593966Y673534D01*
X593397Y672792D01*
X593039Y671927D01*
X592917Y671000D01*
X593039Y670073D01*
X593397Y669208D01*
X593966Y668466D01*
X594708Y667897D01*
X595573Y667539D01*
X596500Y667417D01*
X597428Y667539D01*
X598292Y667897D01*
X599034Y668466D01*
X599329Y668851D01*
X604193D01*
X604384Y668389D01*
X599544Y663549D01*
X599014D01*
X598292Y664103D01*
X597428Y664461D01*
X596500Y664583D01*
X595573Y664461D01*
X594708Y664103D01*
X593966Y663534D01*
X593397Y662792D01*
X593039Y661928D01*
X592917Y661000D01*
X593039Y660073D01*
X593397Y659208D01*
X593966Y658466D01*
X594708Y657897D01*
X595573Y657539D01*
X596500Y657417D01*
X597428Y657539D01*
X598292Y657897D01*
X599014Y658451D01*
X599992D01*
X600183Y657989D01*
X596745Y654551D01*
X596500Y654583D01*
X595573Y654461D01*
X594708Y654103D01*
X593966Y653534D01*
X593397Y652792D01*
X593039Y651928D01*
X592917Y651000D01*
X593039Y650072D01*
X593397Y649208D01*
X593966Y648466D01*
X594708Y647897D01*
X595573Y647539D01*
X596500Y647417D01*
X597428Y647539D01*
X598292Y647897D01*
X599034Y648466D01*
X599603Y649208D01*
X599961Y650072D01*
X600035Y650631D01*
X695780Y746376D01*
X696173Y746964D01*
X696832D01*
X697296Y747056D01*
X697690Y747320D01*
X697953Y747713D01*
X698045Y748178D01*
X697953Y748642D01*
X697690Y749036D01*
Y749288D01*
X697953Y749682D01*
X698045Y750146D01*
X697953Y750611D01*
X697690Y751005D01*
Y751257D01*
X697953Y751650D01*
X698045Y752115D01*
X697953Y752579D01*
X697690Y752973D01*
Y753225D01*
X697953Y753619D01*
X698045Y754083D01*
X697953Y754548D01*
X697690Y754942D01*
Y755194D01*
X697953Y755587D01*
X698045Y756052D01*
X697953Y756517D01*
X697690Y756910D01*
Y757162D01*
X697953Y757556D01*
X698045Y758020D01*
X697953Y758485D01*
X697690Y758879D01*
Y759131D01*
X697953Y759524D01*
X698045Y759989D01*
X697953Y760454D01*
X697690Y760847D01*
Y761099D01*
X697953Y761493D01*
X698045Y761958D01*
X697953Y762422D01*
X697690Y762816D01*
Y763068D01*
X697953Y763461D01*
X698045Y763926D01*
X697953Y764391D01*
X697690Y764784D01*
Y765036D01*
X697875Y765314D01*
X698950D01*
X699279Y764938D01*
X699327Y765300D01*
X708273D01*
X708184Y765975D01*
X707731Y767069D01*
X707009Y768009D01*
Y768091D01*
X707731Y769031D01*
X708184Y770125D01*
X708339Y771300D01*
X708184Y772475D01*
X707731Y773569D01*
X707009Y774509D01*
X706069Y775231D01*
X706067Y775251D01*
X706509Y775591D01*
X707231Y776531D01*
X707684Y777625D01*
X707773Y778300D01*
X698827D01*
X698916Y777625D01*
X699285Y776733D01*
X699008Y776318D01*
X697875D01*
X697690Y776595D01*
Y776847D01*
X697953Y777241D01*
X698045Y777705D01*
X697953Y778170D01*
X697690Y778564D01*
Y778816D01*
X697953Y779210D01*
X698045Y779674D01*
X697953Y780138D01*
X697690Y780532D01*
Y780784D01*
X697953Y781178D01*
X698045Y781642D01*
X697953Y782107D01*
X697690Y782501D01*
Y782753D01*
X697953Y783146D01*
X698045Y783611D01*
X697953Y784076D01*
X697690Y784469D01*
Y784721D01*
X697953Y785115D01*
X698045Y785579D01*
X697953Y786044D01*
X697690Y786438D01*
Y786690D01*
X697953Y787083D01*
X698045Y787548D01*
X697953Y788013D01*
X697690Y788406D01*
Y788658D01*
X697953Y789052D01*
X698045Y789516D01*
X697953Y789981D01*
X697690Y790375D01*
Y790627D01*
X697953Y791020D01*
X698045Y791485D01*
X697953Y791950D01*
X697690Y792343D01*
Y792595D01*
X697953Y792989D01*
X698045Y793454D01*
X697953Y793918D01*
X697690Y794312D01*
Y794564D01*
X697953Y794957D01*
X698045Y795422D01*
X697953Y795887D01*
X697690Y796280D01*
X697296Y796544D01*
X696832Y796636D01*
X696173D01*
X695780Y797224D01*
X600702Y892302D01*
X600053Y892736D01*
Y894553D01*
D02*
G37*
G36*
X1146238Y842143D02*
X1138739D01*
Y839699D01*
X1133750D01*
Y840899D01*
X1126250D01*
Y833400D01*
X1133750D01*
Y834601D01*
X1138739D01*
Y833857D01*
X1146238D01*
Y842143D01*
D02*
G37*
G36*
Y822143D02*
X1138739D01*
Y819699D01*
X1133750D01*
Y820899D01*
X1126250D01*
Y818987D01*
X1126198Y818952D01*
X1125645Y818125D01*
X1125451Y817150D01*
X1125645Y816174D01*
X1126198Y815347D01*
X1126250Y815312D01*
Y813400D01*
X1133750D01*
Y814601D01*
X1138739D01*
Y813857D01*
X1146238D01*
Y822143D01*
D02*
G37*
G36*
X953000Y892488D02*
X949357D01*
Y889239D01*
X953000D01*
Y892488D01*
D02*
G37*
G36*
X974643Y891988D02*
X971000D01*
Y888739D01*
X974643D01*
Y891988D01*
D02*
G37*
G36*
X962500Y896973D02*
Y892499D01*
Y888027D01*
X963175Y888116D01*
X964269Y888569D01*
X965209Y889291D01*
X965883Y890169D01*
X966357Y890008D01*
Y888739D01*
X970000D01*
Y892487D01*
Y896238D01*
X966357D01*
Y894992D01*
X965883Y894831D01*
X965209Y895709D01*
X964269Y896431D01*
X963175Y896884D01*
X962500Y896973D01*
D02*
G37*
G36*
X1153012Y817500D02*
X1149762D01*
Y813857D01*
X1153012D01*
Y817500D01*
D02*
G37*
G36*
X1119970Y840899D02*
X1112471D01*
Y836892D01*
X1112145Y836405D01*
X1111951Y835429D01*
Y832229D01*
X1111231Y831931D01*
X1110291Y831209D01*
X1109569Y830269D01*
X1109116Y829175D01*
X1108961Y828000D01*
X1109116Y826825D01*
X1109569Y825731D01*
X1110291Y824791D01*
X1111231Y824069D01*
X1111672Y823887D01*
Y817150D01*
X1111866Y816174D01*
X1112418Y815347D01*
X1112471Y815312D01*
Y813400D01*
X1119970D01*
Y820899D01*
X1116769D01*
Y824869D01*
X1117431Y825731D01*
X1117884Y826825D01*
X1118039Y828000D01*
X1117884Y829175D01*
X1117431Y830269D01*
X1117049Y830767D01*
Y833400D01*
X1119970D01*
Y840899D01*
D02*
G37*
G36*
X1154000Y812473D02*
Y808500D01*
X1157973D01*
X1157884Y809175D01*
X1157431Y810269D01*
X1156709Y811209D01*
X1155769Y811931D01*
X1154675Y812384D01*
X1154000Y812473D01*
D02*
G37*
G36*
X1157261Y822143D02*
X1154012D01*
Y818500D01*
X1157261D01*
Y822143D01*
D02*
G37*
G36*
X1153012D02*
X1149762D01*
Y818500D01*
X1153012D01*
Y822143D01*
D02*
G37*
G36*
X1157261Y817500D02*
X1154012D01*
Y813857D01*
X1157261D01*
Y817500D01*
D02*
G37*
G36*
X858500Y896583D02*
X857573Y896461D01*
X856708Y896103D01*
X856377Y895849D01*
X851501D01*
X850525Y895655D01*
X849698Y895102D01*
X751820Y797224D01*
X751427Y796636D01*
X750769D01*
X750304Y796544D01*
X749910Y796280D01*
X749647Y795887D01*
X749555Y795422D01*
X749647Y794957D01*
X749910Y794564D01*
Y794312D01*
X749647Y793918D01*
X749555Y793454D01*
X749647Y792989D01*
X749910Y792595D01*
Y792343D01*
X749647Y791950D01*
X749555Y791485D01*
X749647Y791020D01*
X749910Y790627D01*
Y790375D01*
X749647Y789981D01*
X749555Y789516D01*
X749647Y789052D01*
X749910Y788658D01*
Y788406D01*
X749647Y788013D01*
X749555Y787548D01*
X749647Y787083D01*
X749910Y786690D01*
Y786438D01*
X749647Y786044D01*
X749555Y785579D01*
X749647Y785115D01*
X749910Y784721D01*
Y784469D01*
X749647Y784076D01*
X749555Y783611D01*
X749647Y783146D01*
X749910Y782753D01*
Y782501D01*
X749647Y782107D01*
X749555Y781642D01*
X749647Y781178D01*
X749910Y780784D01*
Y780532D01*
X749647Y780138D01*
X749555Y779674D01*
X749647Y779210D01*
X749910Y778816D01*
Y778564D01*
X749647Y778170D01*
X749555Y777705D01*
X749647Y777241D01*
X749910Y776847D01*
Y776595D01*
X749647Y776201D01*
X749555Y775737D01*
X749647Y775273D01*
X749910Y774879D01*
Y774627D01*
X749724Y774349D01*
X746440D01*
X746009Y774909D01*
X745716Y775135D01*
Y775635D01*
X746309Y776091D01*
X747031Y777031D01*
X747484Y778125D01*
X747573Y778800D01*
X738627D01*
X738716Y778125D01*
X739169Y777031D01*
X739891Y776091D01*
X740184Y775865D01*
Y775365D01*
X739591Y774909D01*
X738869Y773969D01*
X738416Y772875D01*
X738261Y771700D01*
X738416Y770525D01*
X738869Y769431D01*
X739591Y768491D01*
X740069Y768123D01*
Y767623D01*
X739791Y767409D01*
X739069Y766469D01*
X738616Y765375D01*
X738461Y764200D01*
X738616Y763025D01*
X739069Y761931D01*
X739791Y760991D01*
X740731Y760269D01*
X741825Y759816D01*
X743000Y759661D01*
X744175Y759816D01*
X745269Y760269D01*
X746209Y760991D01*
X746931Y761931D01*
X747384Y763025D01*
X747529Y764124D01*
X749137Y765732D01*
X749616Y765587D01*
X749647Y765430D01*
X749910Y765036D01*
Y764784D01*
X749647Y764391D01*
X749555Y763926D01*
X749647Y763461D01*
X749910Y763068D01*
Y762816D01*
X749647Y762422D01*
X749555Y761958D01*
X749647Y761493D01*
X749910Y761099D01*
Y760847D01*
X749647Y760454D01*
X749555Y759989D01*
X749647Y759524D01*
X749910Y759131D01*
Y758879D01*
X749647Y758485D01*
X749555Y758020D01*
X749647Y757556D01*
X749910Y757162D01*
Y756910D01*
X749647Y756517D01*
X749555Y756052D01*
X749647Y755587D01*
X749910Y755194D01*
Y754942D01*
X749647Y754548D01*
X749555Y754083D01*
X749647Y753619D01*
X749910Y753225D01*
Y752973D01*
X749647Y752579D01*
X749555Y752115D01*
X749647Y751650D01*
X749910Y751257D01*
Y751005D01*
X749647Y750611D01*
X749555Y750146D01*
X749647Y749682D01*
X749910Y749288D01*
Y749036D01*
X749647Y748642D01*
X749555Y748178D01*
X749647Y747713D01*
X749910Y747320D01*
X750304Y747056D01*
X750769Y746964D01*
X751427D01*
X751820Y746376D01*
X846898Y651298D01*
X846898D01*
X846898Y651298D01*
X846898D01*
X846898Y651298D01*
Y651298D01*
X846898Y651298D01*
Y651298D01*
X847725Y650745D01*
X848701Y650551D01*
X854947D01*
Y649447D01*
X862053D01*
Y656553D01*
X854947D01*
Y655649D01*
X849757D01*
X758270Y747135D01*
X758461Y747598D01*
X770598D01*
X854949Y663246D01*
X854917Y663000D01*
X855039Y662073D01*
X855397Y661208D01*
X855966Y660466D01*
X856708Y659897D01*
X857573Y659539D01*
X858500Y659417D01*
X859427Y659539D01*
X860292Y659897D01*
X861034Y660466D01*
X861603Y661208D01*
X861961Y662073D01*
X862083Y663000D01*
X861961Y663928D01*
X861603Y664792D01*
X861034Y665534D01*
X860292Y666103D01*
X859427Y666461D01*
X858870Y666535D01*
X776301Y749104D01*
X776492Y749566D01*
X778229D01*
X854935Y672860D01*
X855039Y672073D01*
X855397Y671208D01*
X855966Y670466D01*
X856708Y669897D01*
X857573Y669539D01*
X858500Y669417D01*
X859427Y669539D01*
X860292Y669897D01*
X861034Y670466D01*
X861603Y671208D01*
X861808Y671704D01*
X921056Y730951D01*
X1012013D01*
X1012290Y730535D01*
X1012039Y729927D01*
X1011917Y729000D01*
X1012039Y728073D01*
X1012397Y727208D01*
X1012966Y726466D01*
X1013708Y725897D01*
X1014573Y725539D01*
X1015475Y725420D01*
X1016698Y724198D01*
X1017525Y723645D01*
X1018500Y723451D01*
X1047000D01*
X1047218Y723494D01*
X1061146D01*
X1061154Y723484D01*
X1061270Y722904D01*
X1061598Y722413D01*
Y721996D01*
X1061270Y721505D01*
X1061154Y720925D01*
X1061270Y720345D01*
X1061598Y719854D01*
Y719437D01*
X1061270Y718946D01*
X1061154Y718366D01*
X1061270Y717786D01*
X1061598Y717295D01*
X1062090Y716966D01*
X1062669Y716851D01*
X1069165D01*
X1069745Y716966D01*
X1070237Y717295D01*
X1070565Y717786D01*
X1070680Y718366D01*
X1070565Y718946D01*
X1070237Y719437D01*
Y719854D01*
X1070565Y720345D01*
X1070680Y720925D01*
X1070565Y721505D01*
X1070237Y721996D01*
Y722413D01*
X1070565Y722904D01*
X1070680Y723484D01*
X1070565Y724064D01*
X1070237Y724555D01*
Y724972D01*
X1070565Y725464D01*
X1070680Y726043D01*
X1070565Y726623D01*
X1070237Y727114D01*
Y727531D01*
X1070565Y728023D01*
X1070680Y728602D01*
X1070565Y729182D01*
X1070237Y729674D01*
Y730090D01*
X1070565Y730582D01*
X1070680Y731161D01*
X1070565Y731741D01*
X1070237Y732233D01*
Y732649D01*
X1070565Y733141D01*
X1070680Y733720D01*
X1070565Y734300D01*
X1070237Y734792D01*
Y735208D01*
X1070565Y735700D01*
X1070680Y736279D01*
X1070565Y736859D01*
X1070237Y737351D01*
Y737767D01*
X1070565Y738259D01*
X1070680Y738839D01*
X1070565Y739418D01*
X1070237Y739910D01*
Y740326D01*
X1070565Y740818D01*
X1070680Y741398D01*
X1070565Y741977D01*
X1070237Y742469D01*
Y742885D01*
X1070565Y743377D01*
X1070680Y743957D01*
X1070565Y744536D01*
X1070237Y745028D01*
Y745444D01*
X1070565Y745936D01*
X1070680Y746516D01*
X1070565Y747095D01*
X1070237Y747587D01*
Y748004D01*
X1070565Y748495D01*
X1070680Y749075D01*
X1070565Y749654D01*
X1070237Y750146D01*
Y750563D01*
X1070565Y751054D01*
X1070680Y751634D01*
X1070565Y752214D01*
X1070237Y752705D01*
X1069745Y753033D01*
X1069165Y753149D01*
X1067912D01*
X1067720Y753436D01*
X1066893Y753989D01*
X1065917Y754183D01*
X1027922D01*
X1024302Y757802D01*
X1023475Y758355D01*
X1022500Y758549D01*
X931000D01*
X930025Y758355D01*
X929198Y757802D01*
X858050Y686655D01*
X791664Y753041D01*
X791855Y753503D01*
X793792D01*
X855011Y692284D01*
X855039Y692072D01*
X855397Y691208D01*
X855966Y690466D01*
X856708Y689897D01*
X857573Y689539D01*
X858500Y689417D01*
X858845Y689462D01*
X858900Y689451D01*
X859171Y689505D01*
X859427Y689539D01*
X859508Y689572D01*
X859875Y689645D01*
X860187Y689853D01*
X860292Y689897D01*
X860559Y690102D01*
X860702Y690198D01*
X860722Y690227D01*
X861034Y690466D01*
X861603Y691208D01*
X861961Y692072D01*
X862083Y693000D01*
X861961Y693927D01*
X861603Y694792D01*
X861034Y695534D01*
X860292Y696103D01*
X859427Y696461D01*
X858500Y696583D01*
X857989Y696516D01*
X799495Y755010D01*
X799687Y755472D01*
X802624D01*
X854937Y703158D01*
X854917Y703000D01*
X855039Y702072D01*
X855397Y701208D01*
X855966Y700466D01*
X856708Y699897D01*
X857573Y699539D01*
X858500Y699417D01*
X859427Y699539D01*
X860292Y699897D01*
X861034Y700466D01*
X861603Y701208D01*
X861961Y702072D01*
X862083Y703000D01*
X861961Y703928D01*
X861603Y704792D01*
X861034Y705534D01*
X860292Y706103D01*
X859427Y706461D01*
X858755Y706550D01*
X808327Y756978D01*
X808518Y757440D01*
X810155D01*
X854965Y712630D01*
X855039Y712073D01*
X855397Y711208D01*
X855966Y710466D01*
X856708Y709897D01*
X857573Y709539D01*
X858500Y709417D01*
X859427Y709539D01*
X860292Y709897D01*
X861034Y710466D01*
X861603Y711208D01*
X861961Y712073D01*
X862083Y713000D01*
X861961Y713928D01*
X861603Y714792D01*
X861034Y715534D01*
X860292Y716103D01*
X859427Y716461D01*
X858500Y716583D01*
X858254Y716551D01*
X815858Y758947D01*
X816050Y759409D01*
X818387D01*
X854935Y722860D01*
X855039Y722073D01*
X855397Y721208D01*
X855966Y720466D01*
X856708Y719897D01*
X857573Y719539D01*
X858500Y719417D01*
X859427Y719539D01*
X860292Y719897D01*
X861034Y720466D01*
X861603Y721208D01*
X861961Y722073D01*
X862083Y723000D01*
X861961Y723927D01*
X861603Y724792D01*
X861034Y725534D01*
X860292Y726103D01*
X859427Y726461D01*
X858500Y726583D01*
X858430Y726574D01*
X824090Y760915D01*
X824281Y761377D01*
X826518D01*
X854920Y732975D01*
X855039Y732072D01*
X855397Y731208D01*
X855966Y730466D01*
X856708Y729897D01*
X857573Y729539D01*
X858500Y729417D01*
X859427Y729539D01*
X860292Y729897D01*
X861034Y730466D01*
X861603Y731208D01*
X861961Y732072D01*
X862083Y733000D01*
X861961Y733927D01*
X861603Y734792D01*
X861034Y735534D01*
X860292Y736103D01*
X859427Y736461D01*
X858525Y736580D01*
X832221Y762884D01*
X832413Y763345D01*
X834350D01*
X854950Y742745D01*
X855039Y742072D01*
X855397Y741208D01*
X855966Y740466D01*
X856708Y739897D01*
X857573Y739539D01*
X858500Y739417D01*
X859427Y739539D01*
X860292Y739897D01*
X861034Y740466D01*
X861603Y741208D01*
X861961Y742072D01*
X862083Y743000D01*
X861961Y743927D01*
X861603Y744792D01*
X861034Y745534D01*
X860292Y746103D01*
X859427Y746461D01*
X858500Y746583D01*
X858342Y746563D01*
X840053Y764852D01*
X840244Y765314D01*
X842781D01*
X854937Y753158D01*
X854917Y753000D01*
X855039Y752072D01*
X855397Y751208D01*
X855966Y750466D01*
X856708Y749897D01*
X857573Y749539D01*
X858500Y749417D01*
X859427Y749539D01*
X860292Y749897D01*
X861034Y750466D01*
X861603Y751208D01*
X861961Y752072D01*
X862083Y753000D01*
X861961Y753928D01*
X861603Y754792D01*
X861034Y755534D01*
X860292Y756103D01*
X859427Y756461D01*
X858755Y756550D01*
X845639Y769665D01*
X844812Y770218D01*
X843837Y770412D01*
X757521D01*
X757336Y770690D01*
Y770942D01*
X757599Y771336D01*
X757691Y771800D01*
X757599Y772264D01*
X757336Y772658D01*
Y772910D01*
X757521Y773188D01*
X840037D01*
X841012Y773382D01*
X841839Y773935D01*
X857481Y789576D01*
X857573Y789539D01*
X858500Y789417D01*
X859427Y789539D01*
X860292Y789897D01*
X861034Y790466D01*
X861603Y791208D01*
X861961Y792072D01*
X862083Y793000D01*
X861961Y793927D01*
X861603Y794792D01*
X861034Y795534D01*
X860292Y796103D01*
X859427Y796461D01*
X858500Y796583D01*
X857573Y796461D01*
X856708Y796103D01*
X855966Y795534D01*
X855397Y794792D01*
X855333Y794638D01*
X838981Y778286D01*
X837244D01*
X837053Y778748D01*
X857812Y799507D01*
X858500Y799417D01*
X859427Y799539D01*
X860292Y799897D01*
X861034Y800466D01*
X861603Y801208D01*
X861961Y802073D01*
X862083Y803000D01*
X861961Y803928D01*
X861603Y804792D01*
X861034Y805534D01*
X860292Y806103D01*
X859427Y806461D01*
X858500Y806583D01*
X857573Y806461D01*
X856708Y806103D01*
X855966Y805534D01*
X855397Y804792D01*
X855050Y803955D01*
X831350Y780255D01*
X829913D01*
X829721Y780716D01*
X858430Y809426D01*
X858500Y809417D01*
X859427Y809539D01*
X860292Y809897D01*
X861034Y810466D01*
X861603Y811208D01*
X861961Y812072D01*
X862083Y813000D01*
X861961Y813927D01*
X861603Y814792D01*
X861034Y815534D01*
X860292Y816103D01*
X859427Y816461D01*
X858500Y816583D01*
X857573Y816461D01*
X856708Y816103D01*
X855966Y815534D01*
X855397Y814792D01*
X855039Y813927D01*
X854935Y813140D01*
X824018Y782223D01*
X821681D01*
X821490Y782685D01*
X858254Y819449D01*
X858500Y819417D01*
X859427Y819539D01*
X860292Y819897D01*
X861034Y820466D01*
X861603Y821208D01*
X861961Y822073D01*
X862083Y823000D01*
X861961Y823927D01*
X861603Y824792D01*
X861034Y825534D01*
X860292Y826103D01*
X859427Y826461D01*
X858500Y826583D01*
X857573Y826461D01*
X856708Y826103D01*
X855966Y825534D01*
X855397Y824792D01*
X855039Y823927D01*
X854965Y823370D01*
X815787Y784192D01*
X812550D01*
X812358Y784653D01*
X857340Y829635D01*
X857573Y829539D01*
X858500Y829417D01*
X859427Y829539D01*
X860292Y829897D01*
X861034Y830466D01*
X861603Y831208D01*
X861961Y832073D01*
X862083Y833000D01*
X861961Y833927D01*
X861603Y834792D01*
X861034Y835534D01*
X860292Y836103D01*
X859427Y836461D01*
X858500Y836583D01*
X857573Y836461D01*
X856708Y836103D01*
X855966Y835534D01*
X855759Y835264D01*
X806655Y786160D01*
X805218D01*
X805027Y786622D01*
X857900Y839495D01*
X858500Y839417D01*
X859427Y839539D01*
X860292Y839897D01*
X861034Y840466D01*
X861603Y841208D01*
X861961Y842073D01*
X862083Y843000D01*
X861961Y843927D01*
X861603Y844792D01*
X861034Y845534D01*
X860292Y846103D01*
X859427Y846461D01*
X858500Y846583D01*
X857573Y846461D01*
X856708Y846103D01*
X855966Y845534D01*
X855397Y844792D01*
X855039Y843927D01*
X855026Y843831D01*
X799324Y788129D01*
X797487D01*
X797295Y788590D01*
X858165Y849461D01*
X858500Y849417D01*
X859427Y849539D01*
X860292Y849897D01*
X861034Y850466D01*
X861603Y851208D01*
X861961Y852073D01*
X862083Y853000D01*
X861961Y853927D01*
X861603Y854792D01*
X861034Y855534D01*
X860292Y856103D01*
X859427Y856461D01*
X858500Y856583D01*
X857573Y856461D01*
X856708Y856103D01*
X855966Y855534D01*
X855397Y854792D01*
X855039Y853927D01*
X854980Y853485D01*
X791592Y790097D01*
X789555D01*
X789364Y790559D01*
X858254Y859449D01*
X858500Y859417D01*
X859427Y859539D01*
X860292Y859897D01*
X861034Y860466D01*
X861603Y861208D01*
X861961Y862073D01*
X862083Y863000D01*
X861961Y863927D01*
X861603Y864792D01*
X861034Y865534D01*
X860292Y866103D01*
X859427Y866461D01*
X858500Y866583D01*
X857573Y866461D01*
X856708Y866103D01*
X855966Y865534D01*
X855397Y864792D01*
X855039Y863927D01*
X854965Y863370D01*
X783661Y792065D01*
X781524D01*
X781332Y792527D01*
X858254Y869449D01*
X858500Y869417D01*
X859427Y869539D01*
X860292Y869897D01*
X861034Y870466D01*
X861603Y871208D01*
X861961Y872073D01*
X862083Y873000D01*
X861961Y873927D01*
X861603Y874792D01*
X861034Y875534D01*
X860292Y876103D01*
X859427Y876461D01*
X858500Y876583D01*
X857573Y876461D01*
X856708Y876103D01*
X855966Y875534D01*
X855397Y874792D01*
X855039Y873927D01*
X854965Y873370D01*
X775629Y794034D01*
X772792D01*
X772601Y794496D01*
X857635Y879530D01*
X858500Y879417D01*
X859427Y879539D01*
X860292Y879897D01*
X861034Y880466D01*
X861603Y881208D01*
X861961Y882073D01*
X862083Y883000D01*
X861961Y883927D01*
X861603Y884792D01*
X861034Y885534D01*
X860292Y886103D01*
X859427Y886461D01*
X858500Y886583D01*
X857573Y886461D01*
X856708Y886103D01*
X855966Y885534D01*
X855397Y884792D01*
X855192Y884296D01*
X766898Y796002D01*
X758461D01*
X758270Y796464D01*
X852557Y890751D01*
X855748D01*
X855966Y890466D01*
X856708Y889897D01*
X857573Y889539D01*
X858500Y889417D01*
X859427Y889539D01*
X860292Y889897D01*
X861034Y890466D01*
X861603Y891208D01*
X861961Y892073D01*
X862083Y893000D01*
X861961Y893927D01*
X861603Y894792D01*
X861034Y895534D01*
X860292Y896103D01*
X859427Y896461D01*
X858500Y896583D01*
D02*
G37*
G36*
X970500Y955039D02*
X969325Y954884D01*
X968231Y954431D01*
X967291Y953709D01*
X966569Y952769D01*
X966116Y951675D01*
X965961Y950500D01*
X966116Y949325D01*
X966569Y948231D01*
X967291Y947291D01*
X967951Y946784D01*
Y933529D01*
X965900D01*
Y926030D01*
X973399D01*
Y933529D01*
X973049D01*
Y946784D01*
X973709Y947291D01*
X974431Y948231D01*
X974884Y949325D01*
X975039Y950500D01*
X974884Y951675D01*
X974431Y952769D01*
X973709Y953709D01*
X972769Y954431D01*
X971675Y954884D01*
X970500Y955039D01*
D02*
G37*
G36*
X696143Y942238D02*
X687857D01*
Y934739D01*
X688854D01*
X689015Y934265D01*
X688291Y933709D01*
X687569Y932769D01*
X687116Y931675D01*
X686961Y930500D01*
X687116Y929325D01*
X687569Y928231D01*
X688291Y927291D01*
X689231Y926569D01*
X690325Y926116D01*
X691500Y925961D01*
X692675Y926116D01*
X693769Y926569D01*
X694709Y927291D01*
X695431Y928231D01*
X695884Y929325D01*
X696039Y930500D01*
X695884Y931675D01*
X695431Y932769D01*
X694709Y933709D01*
X694549Y933833D01*
Y934739D01*
X696143D01*
Y942238D01*
D02*
G37*
G36*
X958399Y920250D02*
X950900D01*
Y912750D01*
X950951D01*
Y907761D01*
X949357D01*
Y900262D01*
X957643D01*
Y907761D01*
X956049D01*
Y912750D01*
X958399D01*
Y920250D01*
D02*
G37*
G36*
X757760Y941316D02*
X751067D01*
X750372Y941178D01*
X749783Y940784D01*
X749389Y940195D01*
X749251Y939500D01*
X749389Y938805D01*
X749783Y938216D01*
X750372Y937822D01*
X751067Y937684D01*
X757760D01*
X758455Y937822D01*
X759044Y938216D01*
X759438Y938805D01*
X759576Y939500D01*
X759438Y940195D01*
X759044Y940784D01*
X758455Y941178D01*
X757760Y941316D01*
D02*
G37*
G36*
X721933D02*
X715240D01*
X714545Y941178D01*
X713956Y940784D01*
X713562Y940195D01*
X713424Y939500D01*
X713562Y938805D01*
X713956Y938216D01*
X714545Y937822D01*
X715240Y937684D01*
X721933D01*
X722628Y937822D01*
X723217Y938216D01*
X723611Y938805D01*
X723749Y939500D01*
X723611Y940195D01*
X723217Y940784D01*
X722628Y941178D01*
X721933Y941316D01*
D02*
G37*
G36*
X955000Y963039D02*
X953825Y962884D01*
X952731Y962431D01*
X951791Y961709D01*
X951069Y960769D01*
X950616Y959675D01*
X950461Y958500D01*
X950616Y957325D01*
X951069Y956231D01*
X951791Y955291D01*
X952101Y955053D01*
Y934029D01*
X950900D01*
Y926530D01*
X958399D01*
Y934029D01*
X957199D01*
Y954540D01*
X957269Y954569D01*
X958209Y955291D01*
X958931Y956231D01*
X959384Y957325D01*
X959539Y958500D01*
X959384Y959675D01*
X958931Y960769D01*
X958209Y961709D01*
X957269Y962431D01*
X956175Y962884D01*
X955000Y963039D01*
D02*
G37*
G36*
X961500Y896973D02*
X960825Y896884D01*
X959731Y896431D01*
X958791Y895709D01*
X958117Y894831D01*
X957643Y894992D01*
Y896738D01*
X954000D01*
Y892987D01*
Y889239D01*
X957643D01*
Y890008D01*
X958117Y890169D01*
X958791Y889291D01*
X959731Y888569D01*
X960825Y888116D01*
X961500Y888027D01*
Y892499D01*
Y896973D01*
D02*
G37*
G36*
X953000Y896738D02*
X949357D01*
Y893488D01*
X953000D01*
Y896738D01*
D02*
G37*
G36*
X974643Y896238D02*
X971000D01*
Y892988D01*
X974643D01*
Y896238D01*
D02*
G37*
G36*
X973399Y919750D02*
X965900D01*
Y912250D01*
X967951D01*
Y907261D01*
X966357D01*
Y899762D01*
X974643D01*
Y907261D01*
X973049D01*
Y912250D01*
X973399D01*
Y919750D01*
D02*
G37*
G36*
X736500Y906583D02*
X735572Y906461D01*
X734708Y906103D01*
X733966Y905534D01*
X733397Y904792D01*
X733039Y903927D01*
X732917Y903000D01*
X733039Y902073D01*
X733397Y901208D01*
X733966Y900466D01*
X734708Y899897D01*
X735572Y899539D01*
X736500Y899417D01*
X737428Y899539D01*
X738292Y899897D01*
X739034Y900466D01*
X739603Y901208D01*
X739961Y902073D01*
X740083Y903000D01*
X739961Y903927D01*
X739603Y904792D01*
X739034Y905534D01*
X738292Y906103D01*
X737428Y906461D01*
X736500Y906583D01*
D02*
G37*
G36*
X726500D02*
X725572Y906461D01*
X724708Y906103D01*
X723966Y905534D01*
X723397Y904792D01*
X723039Y903927D01*
X722917Y903000D01*
X723039Y902073D01*
X723397Y901208D01*
X723966Y900466D01*
X724708Y899897D01*
X725572Y899539D01*
X726500Y899417D01*
X727427Y899539D01*
X728292Y899897D01*
X729034Y900466D01*
X729603Y901208D01*
X729961Y902073D01*
X730083Y903000D01*
X729961Y903927D01*
X729603Y904792D01*
X729034Y905534D01*
X728292Y906103D01*
X727427Y906461D01*
X726500Y906583D01*
D02*
G37*
%LPD*%
D10*
X1116220Y817150D02*
D03*
X1130000D02*
D03*
X1116220Y777150D02*
D03*
X1130000D02*
D03*
X1116220Y797150D02*
D03*
X1130000D02*
D03*
Y837150D02*
D03*
X1116220D02*
D03*
D11*
X1073012Y775500D02*
D03*
X1061988D02*
D03*
X1142488Y798000D02*
D03*
X1153512D02*
D03*
X663512Y786000D02*
D03*
X652488D02*
D03*
X663512Y760000D02*
D03*
X652488D02*
D03*
X1061988Y765500D02*
D03*
X1073012D02*
D03*
X767512Y986000D02*
D03*
X756488D02*
D03*
X584488Y974000D02*
D03*
X595512D02*
D03*
X1142488Y818000D02*
D03*
X1153512D02*
D03*
X1142488Y838000D02*
D03*
X1153512D02*
D03*
Y778000D02*
D03*
X1142488D02*
D03*
D12*
X953500Y904012D02*
D03*
Y892988D02*
D03*
X970500Y903512D02*
D03*
Y892488D02*
D03*
X1121700Y707912D02*
D03*
Y696888D02*
D03*
X691500Y991012D02*
D03*
Y979988D02*
D03*
X692000Y969512D02*
D03*
Y958488D02*
D03*
Y938488D02*
D03*
Y949512D02*
D03*
X574000Y962488D02*
D03*
Y973512D02*
D03*
D13*
X1065917Y751634D02*
D03*
Y749075D02*
D03*
Y746516D02*
D03*
Y743957D02*
D03*
Y741398D02*
D03*
Y738839D02*
D03*
Y736279D02*
D03*
Y733720D02*
D03*
Y731161D02*
D03*
Y728602D02*
D03*
Y726043D02*
D03*
Y723484D02*
D03*
Y720925D02*
D03*
Y718366D02*
D03*
X1093083Y751634D02*
D03*
Y749075D02*
D03*
Y746516D02*
D03*
Y743957D02*
D03*
Y741398D02*
D03*
Y738839D02*
D03*
Y736279D02*
D03*
Y733720D02*
D03*
Y731161D02*
D03*
Y728602D02*
D03*
Y726043D02*
D03*
Y723484D02*
D03*
Y720925D02*
D03*
Y718366D02*
D03*
D14*
X1121445Y728000D02*
D03*
X1114555D02*
D03*
D15*
X693977Y795422D02*
D03*
Y793454D02*
D03*
Y791485D02*
D03*
Y789516D02*
D03*
Y787548D02*
D03*
Y785579D02*
D03*
Y783611D02*
D03*
Y781642D02*
D03*
Y779674D02*
D03*
Y777705D02*
D03*
Y775737D02*
D03*
Y773769D02*
D03*
Y771800D02*
D03*
Y769832D02*
D03*
Y767863D02*
D03*
Y765895D02*
D03*
Y763926D02*
D03*
Y761958D02*
D03*
Y759989D02*
D03*
Y758020D02*
D03*
Y756052D02*
D03*
Y754083D02*
D03*
Y752115D02*
D03*
Y750146D02*
D03*
Y748178D02*
D03*
X753623D02*
D03*
Y750146D02*
D03*
Y752115D02*
D03*
Y754083D02*
D03*
Y756052D02*
D03*
Y758020D02*
D03*
Y759989D02*
D03*
Y761958D02*
D03*
Y763926D02*
D03*
Y765895D02*
D03*
Y767863D02*
D03*
Y769832D02*
D03*
Y771800D02*
D03*
Y773769D02*
D03*
Y775737D02*
D03*
Y777705D02*
D03*
Y779674D02*
D03*
Y781642D02*
D03*
Y783611D02*
D03*
Y785579D02*
D03*
Y787548D02*
D03*
Y789516D02*
D03*
Y791485D02*
D03*
Y793454D02*
D03*
Y795422D02*
D03*
D16*
X700178Y741977D02*
D03*
X702146D02*
D03*
X704115D02*
D03*
X706083D02*
D03*
X708052D02*
D03*
X710020D02*
D03*
X711989D02*
D03*
X713958D02*
D03*
X715926D02*
D03*
X717895D02*
D03*
X719863D02*
D03*
X721832D02*
D03*
X723800D02*
D03*
X725769D02*
D03*
X727737D02*
D03*
X729705D02*
D03*
X731674D02*
D03*
X733642D02*
D03*
X735611D02*
D03*
X737579D02*
D03*
X739548D02*
D03*
X741516D02*
D03*
X743485D02*
D03*
X745454D02*
D03*
X747422D02*
D03*
Y801623D02*
D03*
X745454D02*
D03*
X743485D02*
D03*
X741516D02*
D03*
X739548D02*
D03*
X737579D02*
D03*
X735611D02*
D03*
X733642D02*
D03*
X731674D02*
D03*
X729705D02*
D03*
X727737D02*
D03*
X725769D02*
D03*
X723800D02*
D03*
X721832D02*
D03*
X719863D02*
D03*
X717895D02*
D03*
X715926D02*
D03*
X713958D02*
D03*
X711989D02*
D03*
X710020D02*
D03*
X708052D02*
D03*
X706083D02*
D03*
X704115D02*
D03*
X702146D02*
D03*
X700178D02*
D03*
D17*
X718587Y974500D02*
D03*
Y969500D02*
D03*
Y964500D02*
D03*
Y959500D02*
D03*
Y954500D02*
D03*
Y949500D02*
D03*
Y944500D02*
D03*
Y939500D02*
D03*
X754413Y974500D02*
D03*
Y969500D02*
D03*
Y964500D02*
D03*
Y959500D02*
D03*
Y954500D02*
D03*
Y949500D02*
D03*
Y944500D02*
D03*
Y939500D02*
D03*
D18*
X954650Y916500D02*
D03*
Y930280D02*
D03*
X969650Y916000D02*
D03*
Y929780D02*
D03*
D19*
X643083Y772790D02*
D03*
D20*
X666800Y777306D02*
D03*
Y768900D02*
D03*
D21*
X954650Y930280D02*
Y959150D01*
X970500Y932000D02*
Y950000D01*
X1153000Y837500D02*
Y870248D01*
X1111500Y911748D02*
X1153000Y870248D01*
X1130000Y837150D02*
X1142650D01*
X1114221Y817150D02*
Y828780D01*
X1114500Y829000D02*
Y835429D01*
X1116220Y837150D01*
X1047000Y726000D02*
X1047043Y726043D01*
X1018500Y726000D02*
X1047000D01*
X1016000Y728500D02*
X1018500Y726000D01*
X941500Y883500D02*
Y976500D01*
X1054500Y765000D02*
X1062000D01*
X859500Y673000D02*
X920000Y733500D01*
X1048000D01*
X1055500Y741000D01*
X1065520D01*
X1065917Y741398D01*
X859000Y684000D02*
X931000Y756000D01*
X1022500D01*
X1026866Y751634D01*
X1065917D01*
X1056000Y733500D02*
X1058780Y736279D01*
X1065917D01*
X1108500Y789500D02*
X1116000Y797000D01*
X1108500Y750462D02*
Y789500D01*
X1096876Y738839D02*
X1108500Y750462D01*
X1093083Y738839D02*
X1096876D01*
X1096801Y736500D02*
X1115500Y755199D01*
X1093303Y736500D02*
X1096801D01*
X1093083Y736279D02*
X1093303Y736500D01*
X1115500Y755199D02*
Y775500D01*
X693300Y767800D02*
X696800D01*
X700363Y767863D02*
X702800Y770300D01*
X693977Y767863D02*
X700363D01*
X693977Y773769D02*
X700331D01*
X692000Y931000D02*
Y938488D01*
X942000Y1008500D02*
X983500D01*
X941000D02*
X942000D01*
X983500D02*
X1024500Y967500D01*
X931500Y986500D02*
X941500Y976500D01*
X718587Y969500D02*
X730000D01*
X694000Y969000D02*
X703500Y959500D01*
X718587D01*
X696000D02*
X701000Y954500D01*
X718587D01*
X691500Y949500D02*
X718587D01*
X700000Y980000D02*
X715500Y964500D01*
X691500Y979988D02*
X699988D01*
X715500Y964500D02*
X718587D01*
X692500Y991000D02*
X702087D01*
X718587Y974500D01*
X716500Y969500D02*
X718587D01*
X941500Y883500D02*
X1049500Y775500D01*
X1153512Y807512D02*
Y818000D01*
X1153500Y798500D02*
Y808000D01*
X1153512Y778000D02*
Y797012D01*
X1128000Y817150D02*
X1141150D01*
X1128000Y797150D02*
X1142150D01*
X1128000Y777150D02*
X1143150D01*
X1073012Y775500D02*
Y775988D01*
Y765500D02*
Y775500D01*
X1061988D02*
X1062000D01*
X1151512Y798500D02*
Y799488D01*
X1062366Y751634D02*
X1065917D01*
X1052091Y746500D02*
X1067000D01*
X1023609D02*
X1052000D01*
X1016000Y739000D02*
X1023600Y746600D01*
X1015500Y739000D02*
X1016000D01*
X1016575Y749075D02*
X1065917D01*
X1074000Y739500D02*
Y764000D01*
X1121445Y728000D02*
Y730445D01*
X1122000Y728500D02*
X1146500D01*
X1152500Y722500D01*
Y715500D02*
Y722500D01*
X1112500Y728000D02*
X1114555D01*
X1084000Y745000D02*
Y745500D01*
X1084016Y746516D02*
X1093083D01*
X1074000Y739500D02*
X1084898Y728602D01*
X1093083D01*
X1083500Y737500D02*
Y745500D01*
Y737500D02*
X1087280Y733720D01*
X1093083D01*
Y731161D02*
X1106161D01*
X691237Y767863D02*
X693977D01*
X691237D02*
X691300Y767800D01*
X693909Y769900D02*
X693977Y769832D01*
X1092803Y734000D02*
X1093083Y733720D01*
X1083500Y746000D02*
X1083972Y746025D01*
X1083500Y745500D02*
X1084000Y745000D01*
X1085043Y743957D01*
X596500Y651000D02*
X596602D01*
X1047043Y726043D02*
X1065917D01*
X1093083Y736279D02*
X1093403Y736600D01*
X1093083Y723484D02*
X1093267Y723300D01*
X1093083Y731161D02*
X1093421Y731500D01*
X1093083Y728602D02*
X1093185Y728500D01*
X1148500Y711500D02*
X1152500Y715500D01*
X1138500Y711500D02*
X1148500D01*
X1134500Y707500D02*
X1138500Y711500D01*
X1134500Y706000D02*
Y707500D01*
X1085043Y743957D02*
X1093083D01*
Y718366D02*
X1132134D01*
X1093083Y720925D02*
X1135373D01*
X1140298Y716000D01*
X1142500D01*
X1132134Y718366D02*
X1134500Y716000D01*
X840000Y933500D02*
X855000Y948500D01*
X800000Y933500D02*
X840000D01*
X769000Y964500D02*
X800000Y933500D01*
X754413Y964500D02*
X769000D01*
X760000Y949500D02*
X806500Y903000D01*
X754413Y949500D02*
X760000D01*
X596000Y841000D02*
X596500D01*
Y801000D02*
X597000D01*
X753623Y771800D02*
X753723Y771900D01*
X753623Y769832D02*
X753654Y769800D01*
X723800Y741977D02*
Y743300D01*
X608500Y641000D02*
X610394D01*
X704115Y801485D02*
Y801623D01*
X754413Y954500D02*
X766000D01*
X836086Y902586D02*
X836500Y903000D01*
X955000Y892488D02*
X968012D01*
X953500Y904012D02*
Y916500D01*
X970500Y903512D02*
Y916000D01*
X693977Y765895D02*
X702705D01*
X700331Y773769D02*
X703300Y770800D01*
X693977Y775737D02*
X700237D01*
X703300Y778800D01*
X703800Y779300D01*
X643900Y760500D02*
X652888D01*
X664400Y760200D02*
Y768000D01*
X664412Y777912D02*
Y786600D01*
X644300Y786400D02*
X652788D01*
X666732Y769832D02*
X693977D01*
X678400Y771800D02*
X693977D01*
X673000Y777200D02*
X678400Y771800D01*
X663800Y775900D02*
X666929Y776682D01*
X666954Y776689D01*
X666800Y777200D02*
X673000D01*
X721832Y741977D02*
Y749368D01*
X723800Y741977D02*
Y747500D01*
X727800Y751500D01*
X723800Y796400D02*
Y801623D01*
X720600Y793200D02*
X723800Y796400D01*
X725769Y795031D02*
Y801623D01*
X749632Y769832D02*
X753623D01*
X743800Y764000D02*
X749632Y769832D01*
X748631Y773769D02*
X753623D01*
X743200Y779200D02*
X748631Y773769D01*
X743500Y771800D02*
X753623D01*
X706083Y708484D02*
Y741977D01*
X638800Y641200D02*
X706083Y708484D01*
X708052Y701952D02*
Y741977D01*
X647800Y641700D02*
X708052Y701952D01*
X710020Y693020D02*
Y741977D01*
X658400Y641400D02*
X710020Y693020D01*
X711989Y685489D02*
Y741977D01*
X667500Y641000D02*
X711989Y685489D01*
X678600Y641800D02*
X713958Y677157D01*
Y741977D01*
X688200Y641900D02*
X715926Y669626D01*
Y741977D01*
X717895Y660595D02*
Y741977D01*
X698400Y641100D02*
X717895Y660595D01*
X719863Y653163D02*
Y741977D01*
X708100Y641400D02*
X719863Y653163D01*
X725769Y654331D02*
Y741977D01*
Y654331D02*
X738600Y641500D01*
X727737Y661563D02*
Y741977D01*
Y661563D02*
X747800Y641500D01*
X729705Y670094D02*
Y741977D01*
Y670094D02*
X758400Y641400D01*
X731674Y677926D02*
Y741977D01*
Y677926D02*
X768500Y641100D01*
X733642Y686958D02*
Y741977D01*
Y686958D02*
X778200Y642400D01*
X735611Y694889D02*
Y741977D01*
Y694889D02*
X788700Y641800D01*
X737579Y702720D02*
Y741977D01*
Y702720D02*
X798600Y641700D01*
X739548Y709752D02*
Y741977D01*
Y709752D02*
X808200Y641100D01*
X741516Y718583D02*
Y741977D01*
Y718583D02*
X819000Y641100D01*
X743485Y726715D02*
Y741977D01*
Y726715D02*
X829300Y640900D01*
X745454Y734146D02*
Y741977D01*
Y734146D02*
X838800Y640800D01*
X747422Y741977D02*
X848299Y641100D01*
X608200Y649999D02*
X700178Y741977D01*
X608200Y642100D02*
Y649999D01*
X700300Y738800D02*
Y743300D01*
X704115Y717715D02*
Y741977D01*
X628200Y641800D02*
X628500Y642100D01*
X704115Y717715D01*
X628500Y641000D02*
Y642100D01*
Y643000D01*
X702146Y724847D02*
Y741977D01*
X618600Y641300D02*
X702146Y724847D01*
X617000Y642500D02*
X618500Y641000D01*
X753623Y748178D02*
X848701Y653100D01*
X857600D01*
X753623Y750146D02*
X771654D01*
X858700Y663100D01*
X753623Y752115D02*
X779285D01*
X858900Y672500D01*
X753623Y754083D02*
X787016D01*
X858700Y682400D01*
X753623Y756052D02*
X794848D01*
X858900Y692000D01*
X753623Y758020D02*
X803679D01*
X858700Y703000D01*
X753623Y759989D02*
X811211D01*
X858400Y712800D01*
X753623Y761958D02*
X819442D01*
X858800Y722600D01*
X753623Y763926D02*
X827574D01*
X858300Y733200D01*
X753623Y765895D02*
X835406D01*
X858800Y742500D01*
X753623Y767863D02*
X843837D01*
X859000Y752700D01*
X753623Y795422D02*
X851501Y893300D01*
X858600D01*
X753623Y793454D02*
X767953D01*
X858100Y883600D01*
X753623Y791485D02*
X776685D01*
X857800Y872600D01*
X753623Y789516D02*
X784717D01*
X858600Y863400D01*
X753623Y787548D02*
X792648D01*
X858100Y853000D01*
X753623Y785579D02*
X800379D01*
X858100Y843300D01*
X753623Y783611D02*
X807711D01*
X857600Y833500D01*
X753623Y781642D02*
X816842D01*
X858300Y823100D01*
X753623Y779674D02*
X825074D01*
X857800Y812400D01*
X753623Y777705D02*
X832405D01*
X858100Y803400D01*
X753623Y775737D02*
X840037D01*
X857800Y793500D01*
X747422Y801623D02*
X846700Y900901D01*
X745454Y801623D02*
Y810954D01*
X837500Y903000D01*
X743485Y801623D02*
Y818785D01*
X827500Y902800D01*
X741516Y801623D02*
Y827316D01*
X816500Y902300D01*
X739548Y801623D02*
Y835848D01*
X806500Y902800D01*
X737579Y801623D02*
Y843979D01*
X797000Y903400D01*
X735611Y801623D02*
Y852411D01*
X786400Y903200D01*
X733642Y801623D02*
Y860242D01*
X776800Y903400D01*
X731674Y801623D02*
Y867974D01*
X767100Y903400D01*
X729705Y801623D02*
Y876005D01*
X756600Y902900D01*
X727737Y884237D02*
X746500Y903000D01*
X727737Y801623D02*
Y884237D01*
X606100Y895701D02*
X700178Y801623D01*
X606100Y895701D02*
Y902200D01*
X702146Y801623D02*
Y816154D01*
X615800Y902500D02*
X702146Y816154D01*
X704115Y801623D02*
Y824785D01*
X625300Y903600D02*
X704115Y824785D01*
X706083Y801623D02*
Y833517D01*
X636600Y903000D02*
X706083Y833517D01*
X708052Y801623D02*
Y841548D01*
X646600Y903000D02*
X708052Y841548D01*
X710020Y801623D02*
Y849979D01*
X711989Y801623D02*
Y857711D01*
X666700Y903000D02*
X711989Y857711D01*
X713958Y801623D02*
Y865143D01*
X676400Y902700D02*
X713958Y865143D01*
X715926Y801623D02*
Y873674D01*
X686600Y903000D02*
X715926Y873674D01*
X717895Y801623D02*
Y881505D01*
X696400Y903000D02*
X717895Y881505D01*
X719863Y801623D02*
Y888937D01*
X706100Y902700D02*
X719863Y888937D01*
X721832Y801623D02*
Y897169D01*
X716500Y902500D02*
X721832Y897169D01*
X597699Y651900D02*
X693977Y748178D01*
X598899Y890500D02*
X693977Y795422D01*
X689184Y754083D02*
X693977D01*
X689478Y752115D02*
X693977D01*
X689772Y750146D02*
X693977D01*
X618825Y679200D02*
X689772Y750146D01*
X597300Y679800D02*
X599900Y682400D01*
X596500Y661000D02*
X600600D01*
X619300Y679700D01*
X608737Y671400D02*
X618637Y681300D01*
X618663D01*
X689478Y752115D01*
X599900Y682400D02*
X617475D01*
X617975Y682900D01*
X618000D01*
X689184Y754083D01*
X688889Y756052D02*
X693977D01*
X623337Y690500D02*
X688889Y756052D01*
X596400Y690500D02*
X623337D01*
X631674Y701100D02*
X688317Y757743D01*
X597000Y701100D02*
X631674D01*
X688420Y758020D02*
X693977D01*
X688126Y759989D02*
X693977D01*
X686821Y758683D02*
X688126Y759989D01*
X597000Y711200D02*
X639300D01*
X686783Y758683D01*
X686821D01*
X687795Y761958D02*
X693977D01*
X646437Y720600D02*
X687795Y761958D01*
X597300Y720600D02*
X646437D01*
X687426Y763926D02*
X693977D01*
X654500Y731000D02*
X687426Y763926D01*
X596700Y731000D02*
X654500D01*
X689446Y793454D02*
X693977D01*
X601400Y881500D02*
X689446Y793454D01*
X596700Y881500D02*
X601400D01*
X688315Y791485D02*
X693977D01*
X608900Y870900D02*
X688315Y791485D01*
X596800Y870900D02*
X608900D01*
X596800Y860700D02*
X615700D01*
X596500Y861000D02*
X597500D01*
X597300Y851700D02*
X620600D01*
X596800Y841500D02*
X628200D01*
X596100Y830900D02*
X636100D01*
X595200Y821600D02*
X643137D01*
X597000Y811000D02*
X651475D01*
X615700Y860700D02*
X686883Y789516D01*
X693977D01*
X620600Y851700D02*
X684752Y787548D01*
X693977D01*
X628200Y841500D02*
X684121Y785579D01*
X693977D01*
X636100Y830900D02*
X683389Y783611D01*
X693977D01*
X643137Y821600D02*
X683095Y781642D01*
X693977D01*
X651475Y811000D02*
X682800Y779674D01*
X693977D01*
X659400Y800700D02*
X682395Y777705D01*
X693977D01*
X596400Y800700D02*
X659400D01*
X596700Y671200D02*
X596900Y671400D01*
X608737D01*
X1122500Y706000D02*
X1134500D01*
X1133588Y696888D02*
X1142500Y705800D01*
X1121700Y688800D02*
Y696200D01*
Y696888D02*
X1133588D01*
X1079043Y726043D02*
X1093083D01*
X1088484Y723484D02*
X1093083D01*
X1078600Y713600D02*
X1088484Y723484D01*
X574000Y972600D02*
Y973512D01*
Y988000D01*
X574800Y961700D02*
X583400D01*
X595600Y974300D02*
X603500D01*
X594900Y974100D02*
Y986700D01*
X662000Y964000D02*
X662100D01*
X674400Y915100D02*
X686500Y903000D01*
X674400Y915100D02*
Y961600D01*
X667000Y969000D02*
X674400Y961600D01*
X633000Y969000D02*
X667000D01*
X628000Y974000D02*
X633000Y969000D01*
X627600Y974400D02*
X628000Y974000D01*
X670400Y909100D02*
X676500Y903000D01*
X670400Y909100D02*
Y948900D01*
X660000Y959300D02*
X670400Y948900D01*
X633300Y959300D02*
X660000D01*
X629300Y963300D02*
X633300Y959300D01*
X666500Y903000D02*
Y926900D01*
X644100Y949300D02*
X666500Y926900D01*
X632900Y949300D02*
X644100D01*
X628100Y954100D02*
X632900Y949300D01*
X633100Y926400D02*
Y939900D01*
Y926400D02*
X656500Y903000D01*
X628500Y944500D02*
X633100Y939900D01*
X656500Y903500D02*
X710020Y849979D01*
X754413Y959500D02*
X769600D01*
X802200Y926900D01*
X844200D01*
X865700Y948400D01*
X843689Y948508D02*
Y949389D01*
Y948508D02*
X844500Y949319D01*
X748800Y969500D02*
X754413D01*
X745900Y966600D02*
X748800Y969500D01*
X754413Y974500D02*
X757300D01*
X769100Y986300D01*
X744900Y974500D02*
X754413D01*
X1107500Y733000D02*
X1112500Y728000D01*
X1049500Y775500D02*
X1061988D01*
X1049997Y743958D02*
X1065917Y743993D01*
X767900Y986500D02*
X931500D01*
X730000Y969500D02*
X746400Y985900D01*
X756800D01*
X584488Y974000D02*
X610088Y948400D01*
X631200D01*
X635800Y943800D01*
X574000Y973512D02*
X584888D01*
D22*
X574000Y988000D02*
D03*
D23*
X594000D02*
D03*
D24*
X1015500Y749000D02*
D03*
X596500Y891000D02*
D03*
X858500Y653000D02*
D03*
X628000Y974000D02*
D03*
X662000D02*
D03*
D25*
X1015500Y739000D02*
D03*
Y729000D02*
D03*
X618500Y641000D02*
D03*
X628500D02*
D03*
X638500D02*
D03*
X648500D02*
D03*
X658500D02*
D03*
X668500D02*
D03*
X678500D02*
D03*
X688500D02*
D03*
X698500D02*
D03*
X708500D02*
D03*
X718500D02*
D03*
X728500D02*
D03*
X738500D02*
D03*
X748500D02*
D03*
X758500D02*
D03*
X768500D02*
D03*
X778500D02*
D03*
X788500D02*
D03*
X798500D02*
D03*
X808500D02*
D03*
X818500D02*
D03*
X828500D02*
D03*
X838500D02*
D03*
X848500D02*
D03*
X596500Y881000D02*
D03*
Y871000D02*
D03*
Y861000D02*
D03*
Y851000D02*
D03*
Y841000D02*
D03*
Y831000D02*
D03*
Y821000D02*
D03*
Y811000D02*
D03*
Y801000D02*
D03*
Y791000D02*
D03*
Y781000D02*
D03*
Y771000D02*
D03*
Y761000D02*
D03*
Y751000D02*
D03*
Y741000D02*
D03*
Y731000D02*
D03*
Y721000D02*
D03*
Y711000D02*
D03*
Y701000D02*
D03*
Y691000D02*
D03*
Y681000D02*
D03*
Y671000D02*
D03*
Y661000D02*
D03*
Y651000D02*
D03*
X836500Y903000D02*
D03*
X826500D02*
D03*
X816500D02*
D03*
X806500D02*
D03*
X796500D02*
D03*
X786500D02*
D03*
X776500D02*
D03*
X766500D02*
D03*
X756500D02*
D03*
X746500D02*
D03*
X736500D02*
D03*
X726500D02*
D03*
X716500D02*
D03*
X706500D02*
D03*
X696500D02*
D03*
X686500D02*
D03*
X676500D02*
D03*
X666500D02*
D03*
X656500D02*
D03*
X646500D02*
D03*
X636500D02*
D03*
X626500D02*
D03*
X616500D02*
D03*
X606500D02*
D03*
X858500Y663000D02*
D03*
Y673000D02*
D03*
Y683000D02*
D03*
Y693000D02*
D03*
Y703000D02*
D03*
Y713000D02*
D03*
Y723000D02*
D03*
Y733000D02*
D03*
Y743000D02*
D03*
Y753000D02*
D03*
Y763000D02*
D03*
Y773000D02*
D03*
Y783000D02*
D03*
Y793000D02*
D03*
Y803000D02*
D03*
Y813000D02*
D03*
Y823000D02*
D03*
Y833000D02*
D03*
Y843000D02*
D03*
Y853000D02*
D03*
Y863000D02*
D03*
Y873000D02*
D03*
Y883000D02*
D03*
Y893000D02*
D03*
X638000Y934000D02*
D03*
X628000D02*
D03*
X638000Y944000D02*
D03*
X628000D02*
D03*
X638000Y954000D02*
D03*
X628000D02*
D03*
X638000Y964000D02*
D03*
X628000D02*
D03*
X638000Y974000D02*
D03*
X662000Y964000D02*
D03*
D26*
X608500Y641000D02*
D03*
X846500Y903000D02*
D03*
D27*
X914693Y954098D02*
D03*
X816307D02*
D03*
D28*
X843689Y948508D02*
D03*
D29*
X849142Y959689D02*
D03*
X854595Y948508D02*
D03*
X860047Y959689D02*
D03*
X865500Y948508D02*
D03*
X870953Y959689D02*
D03*
X876406Y948508D02*
D03*
X881858Y959689D02*
D03*
X887311Y948508D02*
D03*
D30*
X1153500Y735000D02*
D03*
Y687500D02*
D03*
D31*
X1142500Y706000D02*
D03*
Y716000D02*
D03*
X1134500Y706000D02*
D03*
Y716000D02*
D03*
X1024500Y896000D02*
D03*
Y903874D02*
D03*
Y911748D02*
D03*
Y919622D02*
D03*
Y927496D02*
D03*
Y935370D02*
D03*
Y943244D02*
D03*
Y951118D02*
D03*
Y958992D02*
D03*
Y966866D02*
D03*
X1111500Y896000D02*
D03*
Y903874D02*
D03*
Y911748D02*
D03*
Y919622D02*
D03*
Y927496D02*
D03*
Y935370D02*
D03*
Y943244D02*
D03*
Y951118D02*
D03*
Y958992D02*
D03*
Y966866D02*
D03*
D32*
X816600Y968800D02*
D03*
X962000Y892500D02*
D03*
X970500Y950500D02*
D03*
X955000Y958500D02*
D03*
X1054500Y765000D02*
D03*
X720500Y792900D02*
D03*
X742800Y771700D02*
D03*
X720500Y751200D02*
D03*
X703800Y764800D02*
D03*
Y771300D02*
D03*
X941000Y1008500D02*
D03*
X691500Y930500D02*
D03*
X1153500Y808000D02*
D03*
X1113500Y828000D02*
D03*
X1050000Y742500D02*
D03*
X1121700Y688800D02*
D03*
X644300Y786200D02*
D03*
X1083500Y745500D02*
D03*
X1056000Y733000D02*
D03*
X1107000Y732500D02*
D03*
X583400Y961700D02*
D03*
X743100Y779300D02*
D03*
X743500Y753400D02*
D03*
X743000Y764200D02*
D03*
X727300Y751100D02*
D03*
X745500Y966700D02*
D03*
X766000Y954500D02*
D03*
X1050000Y775000D02*
D03*
X703300Y778800D02*
D03*
X643900Y760800D02*
D03*
X727400Y793200D02*
D03*
X743400Y790500D02*
D03*
X1078200Y725400D02*
D03*
X603500Y974300D02*
D03*
X745100Y974000D02*
D03*
X899200Y954400D02*
D03*
X1078100Y714600D02*
D03*
D33*
X1148000Y1000000D02*
D03*
X1146000Y618000D02*
D03*
X367000Y617500D02*
D03*
X373000Y1000500D02*
D03*
M02*
