%FSLAX25Y25*%
%MOIN*%
G70*
G01*
G75*
G04 Layer_Physical_Order=2*
G04 Layer_Color=16711680*
%ADD10R,0.06299X0.06299*%
%ADD11R,0.06299X0.07087*%
%ADD12R,0.07087X0.06299*%
%ADD13O,0.08268X0.01772*%
%ADD14R,0.04921X0.05709*%
%ADD15O,0.06890X0.01181*%
%ADD16O,0.01181X0.06890*%
%ADD17O,0.09055X0.02362*%
%ADD18R,0.06299X0.06299*%
%ADD19R,0.25000X0.11000*%
%ADD20R,0.11000X0.05000*%
%ADD21C,0.01000*%
%ADD22R,0.07284X0.07284*%
%ADD23C,0.07284*%
%ADD24R,0.05906X0.05906*%
%ADD25C,0.05906*%
%ADD26R,0.05906X0.05906*%
%ADD27C,0.18740*%
%ADD28R,0.06654X0.06654*%
%ADD29C,0.06654*%
%ADD30C,0.14000*%
%ADD31C,0.06000*%
%ADD32C,0.05000*%
%ADD33C,0.30000*%
G36*
X1170500Y1021646D02*
Y1021500D01*
X1170000Y1021000D01*
X982500D01*
X982318Y961541D01*
X958339D01*
X958209Y961709D01*
X957269Y962431D01*
X956175Y962884D01*
X955000Y963039D01*
X953825Y962884D01*
X952731Y962431D01*
X951791Y961709D01*
X951069Y960769D01*
X950616Y959675D01*
X950461Y958500D01*
X950616Y957325D01*
X950793Y956898D01*
X869444Y875549D01*
X861014D01*
X860292Y876103D01*
X859427Y876461D01*
X858500Y876583D01*
X857573Y876461D01*
X856708Y876103D01*
X855966Y875534D01*
X855397Y874792D01*
X855039Y873927D01*
X854917Y873000D01*
X855039Y872073D01*
X855397Y871208D01*
X855966Y870466D01*
X856708Y869897D01*
X857573Y869539D01*
X858500Y869417D01*
X859427Y869539D01*
X860292Y869897D01*
X861014Y870451D01*
X870500D01*
X871475Y870645D01*
X872302Y871198D01*
X955076Y953971D01*
X956175Y954116D01*
X957269Y954569D01*
X958209Y955291D01*
X958931Y956231D01*
X959019Y956443D01*
X981948D01*
X982302Y956089D01*
X982294Y953549D01*
X973833D01*
X973709Y953709D01*
X972769Y954431D01*
X971675Y954884D01*
X970500Y955039D01*
X969325Y954884D01*
X968231Y954431D01*
X967291Y953709D01*
X966569Y952769D01*
X966116Y951675D01*
X965961Y950500D01*
X966012Y950117D01*
X881444Y865549D01*
X861014D01*
X860292Y866103D01*
X859427Y866461D01*
X858500Y866583D01*
X857573Y866461D01*
X856708Y866103D01*
X855966Y865534D01*
X855397Y864792D01*
X855039Y863927D01*
X854917Y863000D01*
X855039Y862073D01*
X855397Y861208D01*
X855966Y860466D01*
X856708Y859897D01*
X857573Y859539D01*
X858500Y859417D01*
X859427Y859539D01*
X860292Y859897D01*
X861014Y860451D01*
X882500D01*
X883475Y860645D01*
X884302Y861198D01*
X969251Y946146D01*
X969325Y946116D01*
X970500Y945961D01*
X971675Y946116D01*
X972769Y946569D01*
X973709Y947291D01*
X974431Y948231D01*
X974522Y948451D01*
X981924D01*
X982277Y948097D01*
X982000Y857500D01*
X982500Y858000D01*
X1170500D01*
Y596000D01*
X346854D01*
X346501Y596354D01*
X347500Y1021000D01*
X1170146Y1022000D01*
X1170500Y1021646D01*
D02*
G37*
%LPC*%
G36*
X1044143Y734238D02*
X1040500D01*
Y730988D01*
X1044143D01*
Y734238D01*
D02*
G37*
G36*
X1055500Y737473D02*
X1054825Y737384D01*
X1053731Y736931D01*
X1052791Y736209D01*
X1052069Y735269D01*
X1051616Y734175D01*
X1051527Y733500D01*
X1055500D01*
Y737473D01*
D02*
G37*
G36*
X1039500Y734238D02*
X1035857D01*
Y730988D01*
X1039500D01*
Y734238D01*
D02*
G37*
G36*
X1031750Y732860D02*
X1028500D01*
Y729610D01*
X1031750D01*
Y732860D01*
D02*
G37*
G36*
X1153000Y734500D02*
X1148392D01*
X1148502Y733661D01*
X1149019Y732413D01*
X1149841Y731341D01*
X1150913Y730519D01*
X1152161Y730002D01*
X1153000Y729892D01*
Y734500D01*
D02*
G37*
G36*
X1158608D02*
X1154000D01*
Y729892D01*
X1154839Y730002D01*
X1156087Y730519D01*
X1157159Y731341D01*
X1157981Y732413D01*
X1158498Y733661D01*
X1158608Y734500D01*
D02*
G37*
G36*
X1056500Y737473D02*
Y733500D01*
X1060473D01*
X1060384Y734175D01*
X1059931Y735269D01*
X1059209Y736209D01*
X1058269Y736931D01*
X1057175Y737384D01*
X1056500Y737473D01*
D02*
G37*
G36*
X858500Y746583D02*
X857573Y746461D01*
X856708Y746103D01*
X855966Y745534D01*
X855397Y744792D01*
X855039Y743927D01*
X854917Y743000D01*
X855039Y742072D01*
X855397Y741208D01*
X855966Y740466D01*
X856708Y739897D01*
X857573Y739539D01*
X858500Y739417D01*
X859427Y739539D01*
X860292Y739897D01*
X861034Y740466D01*
X861603Y741208D01*
X861961Y742072D01*
X862083Y743000D01*
X861961Y743927D01*
X861603Y744792D01*
X861034Y745534D01*
X860292Y746103D01*
X859427Y746461D01*
X858500Y746583D01*
D02*
G37*
G36*
X1019053Y752553D02*
X1011947D01*
Y745447D01*
X1019053D01*
Y752553D01*
D02*
G37*
G36*
X1084000Y749973D02*
Y746000D01*
X1087973D01*
X1087884Y746675D01*
X1087431Y747769D01*
X1086709Y748709D01*
X1085769Y749431D01*
X1084675Y749884D01*
X1084000Y749973D01*
D02*
G37*
G36*
X596500Y744583D02*
X595573Y744461D01*
X594708Y744103D01*
X593966Y743534D01*
X593397Y742792D01*
X593039Y741927D01*
X592917Y741000D01*
X593039Y740072D01*
X593397Y739208D01*
X593966Y738466D01*
X594708Y737897D01*
X595573Y737539D01*
X596500Y737417D01*
X597428Y737539D01*
X598292Y737897D01*
X599034Y738466D01*
X599603Y739208D01*
X599961Y740072D01*
X600083Y741000D01*
X599961Y741927D01*
X599603Y742792D01*
X599034Y743534D01*
X598292Y744103D01*
X597428Y744461D01*
X596500Y744583D01*
D02*
G37*
G36*
X1015500Y742583D02*
X1014573Y742461D01*
X1013708Y742103D01*
X1012966Y741534D01*
X1012397Y740792D01*
X1012039Y739927D01*
X1011917Y739000D01*
X1012039Y738072D01*
X1012397Y737208D01*
X1012966Y736466D01*
X1013708Y735897D01*
X1014573Y735539D01*
X1015500Y735417D01*
X1016427Y735539D01*
X1017292Y735897D01*
X1018034Y736466D01*
X1018603Y737208D01*
X1018961Y738072D01*
X1019083Y739000D01*
X1018961Y739927D01*
X1018603Y740792D01*
X1018034Y741534D01*
X1017292Y742103D01*
X1016427Y742461D01*
X1015500Y742583D01*
D02*
G37*
G36*
X1153000Y740108D02*
X1152161Y739998D01*
X1150913Y739481D01*
X1149841Y738659D01*
X1149019Y737587D01*
X1148502Y736339D01*
X1148392Y735500D01*
X1153000D01*
Y740108D01*
D02*
G37*
G36*
X1154000D02*
Y735500D01*
X1158608D01*
X1158498Y736339D01*
X1157981Y737587D01*
X1157159Y738659D01*
X1156087Y739481D01*
X1154839Y739998D01*
X1154000Y740108D01*
D02*
G37*
G36*
X1031750Y728610D02*
X1028500D01*
Y725361D01*
X1031750D01*
Y728610D01*
D02*
G37*
G36*
X1015500Y732583D02*
X1014573Y732461D01*
X1013708Y732103D01*
X1012966Y731534D01*
X1012397Y730792D01*
X1012039Y729927D01*
X1011917Y729000D01*
X1012039Y728073D01*
X1012397Y727208D01*
X1012966Y726466D01*
X1013708Y725897D01*
X1014573Y725539D01*
X1015500Y725417D01*
X1016427Y725539D01*
X1017292Y725897D01*
X1018034Y726466D01*
X1018603Y727208D01*
X1018961Y728073D01*
X1019083Y729000D01*
X1018961Y729927D01*
X1018603Y730792D01*
X1018034Y731534D01*
X1017292Y732103D01*
X1016427Y732461D01*
X1015500Y732583D01*
D02*
G37*
G36*
X1077700Y729873D02*
X1077025Y729784D01*
X1075931Y729331D01*
X1075840Y729261D01*
X1073857D01*
Y726673D01*
X1073816Y726575D01*
X1073727Y725900D01*
X1077700D01*
Y729873D01*
D02*
G37*
G36*
X1027500Y728610D02*
X1024250D01*
Y725361D01*
X1027500D01*
Y728610D01*
D02*
G37*
G36*
X858500Y726583D02*
X857573Y726461D01*
X856708Y726103D01*
X855966Y725534D01*
X855397Y724792D01*
X855039Y723927D01*
X854917Y723000D01*
X855039Y722073D01*
X855397Y721208D01*
X855966Y720466D01*
X856708Y719897D01*
X857573Y719539D01*
X858500Y719417D01*
X859427Y719539D01*
X860292Y719897D01*
X861034Y720466D01*
X861603Y721208D01*
X861961Y722073D01*
X862083Y723000D01*
X861961Y723927D01*
X861603Y724792D01*
X861034Y725534D01*
X860292Y726103D01*
X859427Y726461D01*
X858500Y726583D01*
D02*
G37*
G36*
X1077700Y724900D02*
X1073727D01*
X1073816Y724225D01*
X1073857Y724127D01*
Y721762D01*
X1075549D01*
X1075931Y721469D01*
X1077025Y721016D01*
X1077700Y720927D01*
Y724900D01*
D02*
G37*
G36*
X1082673D02*
X1078700D01*
Y720927D01*
X1079375Y721016D01*
X1080469Y721469D01*
X1080851Y721762D01*
X1082143D01*
Y723161D01*
X1082584Y724225D01*
X1082673Y724900D01*
D02*
G37*
G36*
X1078700Y729873D02*
Y725900D01*
X1082673D01*
X1082584Y726575D01*
X1082143Y727639D01*
Y729261D01*
X1080560D01*
X1080469Y729331D01*
X1079375Y729784D01*
X1078700Y729873D01*
D02*
G37*
G36*
X1060473Y732500D02*
X1056500D01*
Y728527D01*
X1057175Y728616D01*
X1058269Y729069D01*
X1059209Y729791D01*
X1059931Y730731D01*
X1060384Y731825D01*
X1060473Y732500D01*
D02*
G37*
G36*
X858500Y736583D02*
X857573Y736461D01*
X856708Y736103D01*
X855966Y735534D01*
X855397Y734792D01*
X855039Y733927D01*
X854917Y733000D01*
X855039Y732072D01*
X855397Y731208D01*
X855966Y730466D01*
X856708Y729897D01*
X857573Y729539D01*
X858500Y729417D01*
X859427Y729539D01*
X860292Y729897D01*
X861034Y730466D01*
X861603Y731208D01*
X861961Y732072D01*
X862083Y733000D01*
X861961Y733927D01*
X861603Y734792D01*
X861034Y735534D01*
X860292Y736103D01*
X859427Y736461D01*
X858500Y736583D01*
D02*
G37*
G36*
X1027500Y732860D02*
X1024250D01*
Y729610D01*
X1027500D01*
Y732860D01*
D02*
G37*
G36*
X1055500Y732500D02*
X1051527D01*
X1051616Y731825D01*
X1052069Y730731D01*
X1052791Y729791D01*
X1053731Y729069D01*
X1054825Y728616D01*
X1055500Y728527D01*
Y732500D01*
D02*
G37*
G36*
X1039500Y729988D02*
X1035857D01*
Y726739D01*
X1039500D01*
Y729988D01*
D02*
G37*
G36*
X1044143D02*
X1040500D01*
Y726739D01*
X1044143D01*
Y729988D01*
D02*
G37*
G36*
X596500Y734583D02*
X595573Y734461D01*
X594708Y734103D01*
X593966Y733534D01*
X593397Y732792D01*
X593039Y731927D01*
X592917Y731000D01*
X593039Y730072D01*
X593397Y729208D01*
X593966Y728466D01*
X594708Y727897D01*
X595573Y727539D01*
X596500Y727417D01*
X597428Y727539D01*
X598292Y727897D01*
X599034Y728466D01*
X599603Y729208D01*
X599961Y730072D01*
X600083Y731000D01*
X599961Y731927D01*
X599603Y732792D01*
X599034Y733534D01*
X598292Y734103D01*
X597428Y734461D01*
X596500Y734583D01*
D02*
G37*
G36*
X644400Y765273D02*
Y761300D01*
X648373D01*
X648284Y761975D01*
X647831Y763069D01*
X647109Y764009D01*
X646169Y764731D01*
X645075Y765184D01*
X644400Y765273D01*
D02*
G37*
G36*
X715443Y765812D02*
X711800D01*
Y762562D01*
X715443D01*
Y765812D01*
D02*
G37*
G36*
X1055000Y769473D02*
Y765500D01*
X1058973D01*
X1058884Y766175D01*
X1058431Y767269D01*
X1057709Y768209D01*
X1056769Y768931D01*
X1055675Y769384D01*
X1055000Y769473D01*
D02*
G37*
G36*
X643400Y765273D02*
X642725Y765184D01*
X641631Y764731D01*
X640691Y764009D01*
X639969Y763069D01*
X639516Y761975D01*
X639427Y761300D01*
X643400D01*
Y765273D01*
D02*
G37*
G36*
X747273Y771200D02*
X738327D01*
X738416Y770525D01*
X738869Y769431D01*
X739576Y768510D01*
X739355Y768061D01*
X739157D01*
Y766583D01*
X739069Y766469D01*
X738616Y765375D01*
X738461Y764200D01*
X738616Y763025D01*
X739069Y761931D01*
X739157Y761817D01*
Y760562D01*
X740349D01*
X740731Y760269D01*
X741825Y759816D01*
X743000Y759661D01*
X744175Y759816D01*
X745269Y760269D01*
X745651Y760562D01*
X747443D01*
Y763474D01*
X747539Y764200D01*
X747443Y764926D01*
Y768061D01*
X746245D01*
X746024Y768510D01*
X746731Y769431D01*
X747184Y770525D01*
X747273Y771200D01*
D02*
G37*
G36*
X1050000Y779539D02*
X1048825Y779384D01*
X1047731Y778931D01*
X1046791Y778209D01*
X1046069Y777269D01*
X1045616Y776175D01*
X1045461Y775000D01*
X1045616Y773825D01*
X1046069Y772731D01*
X1046791Y771791D01*
X1047451Y771284D01*
Y746216D01*
X1046791Y745709D01*
X1046069Y744769D01*
X1045776Y744061D01*
X1044143D01*
Y745261D01*
X1035857D01*
Y744061D01*
X1031750D01*
Y746639D01*
X1024250D01*
Y739140D01*
X1026620D01*
X1027512Y738963D01*
X1035857D01*
Y737762D01*
X1044143D01*
Y738963D01*
X1047218D01*
X1047731Y738569D01*
X1048825Y738116D01*
X1050000Y737961D01*
X1051175Y738116D01*
X1052269Y738569D01*
X1053209Y739291D01*
X1053931Y740231D01*
X1054384Y741325D01*
X1054401Y741451D01*
X1077944D01*
X1089198Y730198D01*
X1090024Y729645D01*
X1091000Y729451D01*
X1103667D01*
X1103791Y729291D01*
X1104731Y728569D01*
X1105825Y728116D01*
X1107000Y727961D01*
X1108175Y728116D01*
X1109269Y728569D01*
X1110209Y729291D01*
X1110931Y730231D01*
X1111384Y731325D01*
X1111539Y732500D01*
X1111384Y733675D01*
X1110931Y734769D01*
X1110209Y735709D01*
X1109269Y736431D01*
X1108175Y736884D01*
X1107000Y737039D01*
X1105825Y736884D01*
X1104731Y736431D01*
X1103791Y735709D01*
X1103069Y734769D01*
X1102978Y734549D01*
X1092056D01*
X1085569Y741036D01*
X1085666Y741527D01*
X1085769Y741569D01*
X1086709Y742291D01*
X1087431Y743231D01*
X1087884Y744325D01*
X1087973Y745000D01*
X1083499D01*
Y745499D01*
X1083000D01*
Y749973D01*
X1082325Y749884D01*
X1081231Y749431D01*
X1080291Y748709D01*
X1079569Y747769D01*
X1079116Y746675D01*
X1079110Y746628D01*
X1079000Y746549D01*
X1052549D01*
Y760487D01*
X1052965Y760765D01*
X1053325Y760616D01*
X1054000Y760527D01*
Y764999D01*
Y769473D01*
X1053325Y769384D01*
X1052965Y769235D01*
X1052549Y769513D01*
Y771284D01*
X1053209Y771791D01*
X1053931Y772731D01*
X1054384Y773825D01*
X1054539Y775000D01*
X1054384Y776175D01*
X1053931Y777269D01*
X1053209Y778209D01*
X1052269Y778931D01*
X1051175Y779384D01*
X1050000Y779539D01*
D02*
G37*
G36*
X1058973Y764500D02*
X1055000D01*
Y760527D01*
X1055675Y760616D01*
X1056769Y761069D01*
X1057709Y761791D01*
X1058431Y762731D01*
X1058884Y763825D01*
X1058973Y764500D01*
D02*
G37*
G36*
X743100Y783839D02*
X741925Y783684D01*
X740831Y783231D01*
X740579Y783038D01*
X739157D01*
Y781539D01*
X738716Y780475D01*
X738561Y779300D01*
X738716Y778125D01*
X739157Y777061D01*
Y775539D01*
X739633D01*
X739793Y775065D01*
X739591Y774909D01*
X738869Y773969D01*
X738416Y772875D01*
X738327Y772200D01*
X747273D01*
X747184Y772875D01*
X746731Y773969D01*
X746009Y774909D01*
X745590Y775231D01*
X745897Y775539D01*
X747443D01*
Y778027D01*
X747484Y778125D01*
X747639Y779300D01*
X747484Y780475D01*
X747443Y780573D01*
Y783038D01*
X745621D01*
X745369Y783231D01*
X744275Y783684D01*
X743100Y783839D01*
D02*
G37*
G36*
X715443Y779038D02*
X711800D01*
Y775788D01*
X715443D01*
Y779038D01*
D02*
G37*
G36*
X596500Y784583D02*
X595573Y784461D01*
X594708Y784103D01*
X593966Y783534D01*
X593397Y782792D01*
X593039Y781927D01*
X592917Y781000D01*
X593039Y780072D01*
X593397Y779208D01*
X593966Y778466D01*
X594708Y777897D01*
X595573Y777539D01*
X596500Y777417D01*
X597428Y777539D01*
X598292Y777897D01*
X599034Y778466D01*
X599603Y779208D01*
X599961Y780072D01*
X600083Y781000D01*
X599961Y781927D01*
X599603Y782792D01*
X599034Y783534D01*
X598292Y784103D01*
X597428Y784461D01*
X596500Y784583D01*
D02*
G37*
G36*
X715443Y774788D02*
X711800D01*
Y771539D01*
X715443D01*
Y774788D01*
D02*
G37*
G36*
Y770061D02*
X711800D01*
Y766812D01*
X715443D01*
Y770061D01*
D02*
G37*
G36*
X596500Y774583D02*
X595573Y774461D01*
X594708Y774103D01*
X593966Y773534D01*
X593397Y772792D01*
X593039Y771927D01*
X592917Y771000D01*
X593039Y770073D01*
X593397Y769208D01*
X593966Y768466D01*
X594708Y767897D01*
X595573Y767539D01*
X596500Y767417D01*
X597428Y767539D01*
X598292Y767897D01*
X599034Y768466D01*
X599603Y769208D01*
X599961Y770073D01*
X600083Y771000D01*
X599961Y771927D01*
X599603Y772792D01*
X599034Y773534D01*
X598292Y774103D01*
X597428Y774461D01*
X596500Y774583D01*
D02*
G37*
G36*
X858500Y776583D02*
X857573Y776461D01*
X856708Y776103D01*
X855966Y775534D01*
X855397Y774792D01*
X855039Y773927D01*
X854917Y773000D01*
X855039Y772073D01*
X855397Y771208D01*
X855966Y770466D01*
X856708Y769897D01*
X857573Y769539D01*
X858500Y769417D01*
X859427Y769539D01*
X860292Y769897D01*
X861034Y770466D01*
X861603Y771208D01*
X861961Y772073D01*
X862083Y773000D01*
X861961Y773927D01*
X861603Y774792D01*
X861034Y775534D01*
X860292Y776103D01*
X859427Y776461D01*
X858500Y776583D01*
D02*
G37*
G36*
Y766583D02*
X857573Y766461D01*
X856708Y766103D01*
X855966Y765534D01*
X855397Y764792D01*
X855039Y763928D01*
X854917Y763000D01*
X855039Y762073D01*
X855397Y761208D01*
X855966Y760466D01*
X856708Y759897D01*
X857573Y759539D01*
X858500Y759417D01*
X859427Y759539D01*
X860292Y759897D01*
X861034Y760466D01*
X861603Y761208D01*
X861961Y762073D01*
X862083Y763000D01*
X861961Y763928D01*
X861603Y764792D01*
X861034Y765534D01*
X860292Y766103D01*
X859427Y766461D01*
X858500Y766583D01*
D02*
G37*
G36*
Y756583D02*
X857573Y756461D01*
X856708Y756103D01*
X855966Y755534D01*
X855397Y754792D01*
X855039Y753928D01*
X854917Y753000D01*
X855039Y752072D01*
X855397Y751208D01*
X855966Y750466D01*
X856708Y749897D01*
X857573Y749539D01*
X858500Y749417D01*
X859427Y749539D01*
X860292Y749897D01*
X861034Y750466D01*
X861603Y751208D01*
X861961Y752072D01*
X862083Y753000D01*
X861961Y753928D01*
X861603Y754792D01*
X861034Y755534D01*
X860292Y756103D01*
X859427Y756461D01*
X858500Y756583D01*
D02*
G37*
G36*
X708273Y770800D02*
X699327D01*
X699416Y770125D01*
X699869Y769031D01*
X700591Y768091D01*
Y768009D01*
X699869Y767069D01*
X699416Y765975D01*
X699261Y764800D01*
X699416Y763625D01*
X699869Y762531D01*
X700591Y761591D01*
X701531Y760869D01*
X702547Y760448D01*
X707157Y755838D01*
Y751539D01*
X715443D01*
Y759038D01*
X711167D01*
X707706Y762499D01*
X707731Y762531D01*
X707744Y762562D01*
X710800D01*
Y766311D01*
Y770061D01*
X708555D01*
X708225Y770437D01*
X708273Y770800D01*
D02*
G37*
G36*
X743000Y757873D02*
X742325Y757784D01*
X741231Y757331D01*
X740849Y757038D01*
X739157D01*
Y754673D01*
X739116Y754575D01*
X739027Y753900D01*
X743000D01*
Y757873D01*
D02*
G37*
G36*
X747973Y752900D02*
X744000D01*
Y748927D01*
X744675Y749016D01*
X745769Y749469D01*
X745860Y749539D01*
X747443D01*
Y751161D01*
X747884Y752225D01*
X747973Y752900D01*
D02*
G37*
G36*
X720000Y750700D02*
X716027D01*
X716116Y750025D01*
X716569Y748931D01*
X717291Y747991D01*
X718231Y747269D01*
X719325Y746816D01*
X720000Y746727D01*
Y750700D01*
D02*
G37*
G36*
X596500Y754583D02*
X595573Y754461D01*
X594708Y754103D01*
X593966Y753534D01*
X593397Y752792D01*
X593039Y751928D01*
X592917Y751000D01*
X593039Y750072D01*
X593397Y749208D01*
X593966Y748466D01*
X594708Y747897D01*
X595573Y747539D01*
X596500Y747417D01*
X597428Y747539D01*
X598292Y747897D01*
X599034Y748466D01*
X599603Y749208D01*
X599961Y750072D01*
X600083Y751000D01*
X599961Y751928D01*
X599603Y752792D01*
X599034Y753534D01*
X598292Y754103D01*
X597428Y754461D01*
X596500Y754583D01*
D02*
G37*
G36*
X743000Y752900D02*
X739027D01*
X739116Y752225D01*
X739157Y752127D01*
Y749539D01*
X741140D01*
X741231Y749469D01*
X742325Y749016D01*
X743000Y748927D01*
Y752900D01*
D02*
G37*
G36*
X596500Y764583D02*
X595573Y764461D01*
X594708Y764103D01*
X593966Y763534D01*
X593397Y762792D01*
X593039Y761928D01*
X592917Y761000D01*
X593039Y760073D01*
X593397Y759208D01*
X593966Y758466D01*
X594708Y757897D01*
X595573Y757539D01*
X596500Y757417D01*
X597428Y757539D01*
X598292Y757897D01*
X599034Y758466D01*
X599603Y759208D01*
X599961Y760073D01*
X600083Y761000D01*
X599961Y761928D01*
X599603Y762792D01*
X599034Y763534D01*
X598292Y764103D01*
X597428Y764461D01*
X596500Y764583D01*
D02*
G37*
G36*
X721288Y762943D02*
X718039D01*
Y759300D01*
X721288D01*
Y762943D01*
D02*
G37*
G36*
X725538D02*
X722288D01*
Y759300D01*
X725538D01*
Y762943D01*
D02*
G37*
G36*
X648373Y760300D02*
X644400D01*
Y756327D01*
X645075Y756416D01*
X646169Y756869D01*
X647109Y757591D01*
X647831Y758531D01*
X648284Y759625D01*
X648373Y760300D01*
D02*
G37*
G36*
X744000Y757873D02*
Y753900D01*
X747973D01*
X747884Y754575D01*
X747443Y755639D01*
Y757038D01*
X746151D01*
X745769Y757331D01*
X744675Y757784D01*
X744000Y757873D01*
D02*
G37*
G36*
X736561Y762943D02*
X729062D01*
Y756367D01*
X728214Y755518D01*
X727300Y755639D01*
X726125Y755484D01*
X725953Y755413D01*
X725538Y755691D01*
Y758300D01*
X718039D01*
Y754983D01*
X717291Y754409D01*
X716569Y753469D01*
X716116Y752375D01*
X716027Y751700D01*
X720501D01*
Y751201D01*
X721000D01*
Y746727D01*
X721675Y746816D01*
X722769Y747269D01*
X723709Y747991D01*
X724091Y747891D01*
X725031Y747169D01*
X726125Y746716D01*
X727300Y746561D01*
X728475Y746716D01*
X729569Y747169D01*
X730509Y747891D01*
X731231Y748831D01*
X731684Y749925D01*
X731839Y751100D01*
X731742Y751837D01*
X734561Y754657D01*
X736561D01*
Y762943D01*
D02*
G37*
G36*
X643400Y760300D02*
X639427D01*
X639516Y759625D01*
X639969Y758531D01*
X640691Y757591D01*
X641631Y756869D01*
X642725Y756416D01*
X643400Y756327D01*
Y760300D01*
D02*
G37*
G36*
X788500Y644583D02*
X787572Y644461D01*
X786708Y644103D01*
X785966Y643534D01*
X785397Y642792D01*
X785039Y641927D01*
X784917Y641000D01*
X785039Y640072D01*
X785397Y639208D01*
X785966Y638466D01*
X786708Y637897D01*
X787572Y637539D01*
X788500Y637417D01*
X789428Y637539D01*
X790292Y637897D01*
X791034Y638466D01*
X791603Y639208D01*
X791961Y640072D01*
X792083Y641000D01*
X791961Y641927D01*
X791603Y642792D01*
X791034Y643534D01*
X790292Y644103D01*
X789428Y644461D01*
X788500Y644583D01*
D02*
G37*
G36*
X798500D02*
X797573Y644461D01*
X796708Y644103D01*
X795966Y643534D01*
X795397Y642792D01*
X795039Y641927D01*
X794917Y641000D01*
X795039Y640072D01*
X795397Y639208D01*
X795966Y638466D01*
X796708Y637897D01*
X797573Y637539D01*
X798500Y637417D01*
X799428Y637539D01*
X800292Y637897D01*
X801034Y638466D01*
X801603Y639208D01*
X801961Y640072D01*
X802083Y641000D01*
X801961Y641927D01*
X801603Y642792D01*
X801034Y643534D01*
X800292Y644103D01*
X799428Y644461D01*
X798500Y644583D01*
D02*
G37*
G36*
X808500D02*
X807572Y644461D01*
X806708Y644103D01*
X805966Y643534D01*
X805397Y642792D01*
X805039Y641927D01*
X804917Y641000D01*
X805039Y640072D01*
X805397Y639208D01*
X805966Y638466D01*
X806708Y637897D01*
X807572Y637539D01*
X808500Y637417D01*
X809428Y637539D01*
X810292Y637897D01*
X811034Y638466D01*
X811603Y639208D01*
X811961Y640072D01*
X812083Y641000D01*
X811961Y641927D01*
X811603Y642792D01*
X811034Y643534D01*
X810292Y644103D01*
X809428Y644461D01*
X808500Y644583D01*
D02*
G37*
G36*
X778500D02*
X777572Y644461D01*
X776708Y644103D01*
X775966Y643534D01*
X775397Y642792D01*
X775039Y641927D01*
X774917Y641000D01*
X775039Y640072D01*
X775397Y639208D01*
X775966Y638466D01*
X776708Y637897D01*
X777572Y637539D01*
X778500Y637417D01*
X779427Y637539D01*
X780292Y637897D01*
X781034Y638466D01*
X781603Y639208D01*
X781961Y640072D01*
X782083Y641000D01*
X781961Y641927D01*
X781603Y642792D01*
X781034Y643534D01*
X780292Y644103D01*
X779427Y644461D01*
X778500Y644583D01*
D02*
G37*
G36*
X748500D02*
X747573Y644461D01*
X746708Y644103D01*
X745966Y643534D01*
X745397Y642792D01*
X745039Y641927D01*
X744917Y641000D01*
X745039Y640072D01*
X745397Y639208D01*
X745966Y638466D01*
X746708Y637897D01*
X747573Y637539D01*
X748500Y637417D01*
X749428Y637539D01*
X750292Y637897D01*
X751034Y638466D01*
X751603Y639208D01*
X751961Y640072D01*
X752083Y641000D01*
X751961Y641927D01*
X751603Y642792D01*
X751034Y643534D01*
X750292Y644103D01*
X749428Y644461D01*
X748500Y644583D01*
D02*
G37*
G36*
X758500D02*
X757573Y644461D01*
X756708Y644103D01*
X755966Y643534D01*
X755397Y642792D01*
X755039Y641927D01*
X754917Y641000D01*
X755039Y640072D01*
X755397Y639208D01*
X755966Y638466D01*
X756708Y637897D01*
X757573Y637539D01*
X758500Y637417D01*
X759427Y637539D01*
X760292Y637897D01*
X761034Y638466D01*
X761603Y639208D01*
X761961Y640072D01*
X762083Y641000D01*
X761961Y641927D01*
X761603Y642792D01*
X761034Y643534D01*
X760292Y644103D01*
X759427Y644461D01*
X758500Y644583D01*
D02*
G37*
G36*
X768500D02*
X767572Y644461D01*
X766708Y644103D01*
X765966Y643534D01*
X765397Y642792D01*
X765039Y641927D01*
X764917Y641000D01*
X765039Y640072D01*
X765397Y639208D01*
X765966Y638466D01*
X766708Y637897D01*
X767572Y637539D01*
X768500Y637417D01*
X769427Y637539D01*
X770292Y637897D01*
X771034Y638466D01*
X771603Y639208D01*
X771961Y640072D01*
X772083Y641000D01*
X771961Y641927D01*
X771603Y642792D01*
X771034Y643534D01*
X770292Y644103D01*
X769427Y644461D01*
X768500Y644583D01*
D02*
G37*
G36*
X612053Y644553D02*
X604947D01*
Y637447D01*
X612053D01*
Y644553D01*
D02*
G37*
G36*
X596500Y654583D02*
X595573Y654461D01*
X594708Y654103D01*
X593966Y653534D01*
X593397Y652792D01*
X593039Y651928D01*
X592917Y651000D01*
X593039Y650072D01*
X593397Y649208D01*
X593966Y648466D01*
X594708Y647897D01*
X595573Y647539D01*
X596500Y647417D01*
X597428Y647539D01*
X598292Y647897D01*
X599034Y648466D01*
X599603Y649208D01*
X599961Y650072D01*
X600083Y651000D01*
X599961Y651928D01*
X599603Y652792D01*
X599034Y653534D01*
X598292Y654103D01*
X597428Y654461D01*
X596500Y654583D01*
D02*
G37*
G36*
X862053Y656553D02*
X854947D01*
Y649447D01*
X862053D01*
Y656553D01*
D02*
G37*
G36*
X848500Y644583D02*
X847573Y644461D01*
X846708Y644103D01*
X845966Y643534D01*
X845397Y642792D01*
X845039Y641927D01*
X844917Y641000D01*
X845039Y640072D01*
X845397Y639208D01*
X845966Y638466D01*
X846708Y637897D01*
X847573Y637539D01*
X848500Y637417D01*
X849427Y637539D01*
X850292Y637897D01*
X851034Y638466D01*
X851603Y639208D01*
X851961Y640072D01*
X852083Y641000D01*
X851961Y641927D01*
X851603Y642792D01*
X851034Y643534D01*
X850292Y644103D01*
X849427Y644461D01*
X848500Y644583D01*
D02*
G37*
G36*
X818500D02*
X817572Y644461D01*
X816708Y644103D01*
X815966Y643534D01*
X815397Y642792D01*
X815039Y641927D01*
X814917Y641000D01*
X815039Y640072D01*
X815397Y639208D01*
X815966Y638466D01*
X816708Y637897D01*
X817572Y637539D01*
X818500Y637417D01*
X819427Y637539D01*
X820292Y637897D01*
X821034Y638466D01*
X821603Y639208D01*
X821961Y640072D01*
X822083Y641000D01*
X821961Y641927D01*
X821603Y642792D01*
X821034Y643534D01*
X820292Y644103D01*
X819427Y644461D01*
X818500Y644583D01*
D02*
G37*
G36*
X828500D02*
X827573Y644461D01*
X826708Y644103D01*
X825966Y643534D01*
X825397Y642792D01*
X825039Y641927D01*
X824917Y641000D01*
X825039Y640072D01*
X825397Y639208D01*
X825966Y638466D01*
X826708Y637897D01*
X827573Y637539D01*
X828500Y637417D01*
X829427Y637539D01*
X830292Y637897D01*
X831034Y638466D01*
X831603Y639208D01*
X831961Y640072D01*
X832083Y641000D01*
X831961Y641927D01*
X831603Y642792D01*
X831034Y643534D01*
X830292Y644103D01*
X829427Y644461D01*
X828500Y644583D01*
D02*
G37*
G36*
X838500D02*
X837573Y644461D01*
X836708Y644103D01*
X835966Y643534D01*
X835397Y642792D01*
X835039Y641927D01*
X834917Y641000D01*
X835039Y640072D01*
X835397Y639208D01*
X835966Y638466D01*
X836708Y637897D01*
X837573Y637539D01*
X838500Y637417D01*
X839427Y637539D01*
X840292Y637897D01*
X841034Y638466D01*
X841603Y639208D01*
X841961Y640072D01*
X842083Y641000D01*
X841961Y641927D01*
X841603Y642792D01*
X841034Y643534D01*
X840292Y644103D01*
X839427Y644461D01*
X838500Y644583D01*
D02*
G37*
G36*
X738500D02*
X737572Y644461D01*
X736708Y644103D01*
X735966Y643534D01*
X735397Y642792D01*
X735039Y641927D01*
X734917Y641000D01*
X735039Y640072D01*
X735397Y639208D01*
X735966Y638466D01*
X736708Y637897D01*
X737572Y637539D01*
X738500Y637417D01*
X739428Y637539D01*
X740292Y637897D01*
X741034Y638466D01*
X741603Y639208D01*
X741961Y640072D01*
X742083Y641000D01*
X741961Y641927D01*
X741603Y642792D01*
X741034Y643534D01*
X740292Y644103D01*
X739428Y644461D01*
X738500Y644583D01*
D02*
G37*
G36*
X638500D02*
X637572Y644461D01*
X636708Y644103D01*
X635966Y643534D01*
X635397Y642792D01*
X635039Y641927D01*
X634917Y641000D01*
X635039Y640072D01*
X635397Y639208D01*
X635966Y638466D01*
X636708Y637897D01*
X637572Y637539D01*
X638500Y637417D01*
X639428Y637539D01*
X640292Y637897D01*
X641034Y638466D01*
X641603Y639208D01*
X641961Y640072D01*
X642083Y641000D01*
X641961Y641927D01*
X641603Y642792D01*
X641034Y643534D01*
X640292Y644103D01*
X639428Y644461D01*
X638500Y644583D01*
D02*
G37*
G36*
X648500D02*
X647573Y644461D01*
X646708Y644103D01*
X645966Y643534D01*
X645397Y642792D01*
X645039Y641927D01*
X644917Y641000D01*
X645039Y640072D01*
X645397Y639208D01*
X645966Y638466D01*
X646708Y637897D01*
X647573Y637539D01*
X648500Y637417D01*
X649428Y637539D01*
X650292Y637897D01*
X651034Y638466D01*
X651603Y639208D01*
X651961Y640072D01*
X652083Y641000D01*
X651961Y641927D01*
X651603Y642792D01*
X651034Y643534D01*
X650292Y644103D01*
X649428Y644461D01*
X648500Y644583D01*
D02*
G37*
G36*
X658500D02*
X657573Y644461D01*
X656708Y644103D01*
X655966Y643534D01*
X655397Y642792D01*
X655039Y641927D01*
X654917Y641000D01*
X655039Y640072D01*
X655397Y639208D01*
X655966Y638466D01*
X656708Y637897D01*
X657573Y637539D01*
X658500Y637417D01*
X659427Y637539D01*
X660292Y637897D01*
X661034Y638466D01*
X661603Y639208D01*
X661961Y640072D01*
X662083Y641000D01*
X661961Y641927D01*
X661603Y642792D01*
X661034Y643534D01*
X660292Y644103D01*
X659427Y644461D01*
X658500Y644583D01*
D02*
G37*
G36*
X628500D02*
X627572Y644461D01*
X626708Y644103D01*
X625966Y643534D01*
X625397Y642792D01*
X625039Y641927D01*
X624917Y641000D01*
X625039Y640072D01*
X625397Y639208D01*
X625966Y638466D01*
X626708Y637897D01*
X627572Y637539D01*
X628500Y637417D01*
X629427Y637539D01*
X630292Y637897D01*
X631034Y638466D01*
X631603Y639208D01*
X631961Y640072D01*
X632083Y641000D01*
X631961Y641927D01*
X631603Y642792D01*
X631034Y643534D01*
X630292Y644103D01*
X629427Y644461D01*
X628500Y644583D01*
D02*
G37*
G36*
X367000Y634537D02*
X364776Y634391D01*
X362591Y633956D01*
X360480Y633240D01*
X358482Y632254D01*
X356629Y631016D01*
X354953Y629547D01*
X353484Y627871D01*
X352246Y626018D01*
X351260Y624020D01*
X350544Y621909D01*
X350109Y619724D01*
X349963Y617500D01*
X350109Y615276D01*
X350544Y613091D01*
X351260Y610980D01*
X352246Y608982D01*
X353484Y607129D01*
X354953Y605453D01*
X356629Y603984D01*
X358482Y602746D01*
X360480Y601760D01*
X362591Y601044D01*
X364776Y600609D01*
X367000Y600463D01*
X369224Y600609D01*
X371409Y601044D01*
X373520Y601760D01*
X375518Y602746D01*
X377371Y603984D01*
X379047Y605453D01*
X380516Y607129D01*
X381754Y608982D01*
X382740Y610980D01*
X383456Y613091D01*
X383891Y615276D01*
X384036Y617500D01*
X383891Y619724D01*
X383456Y621909D01*
X382740Y624020D01*
X381754Y626018D01*
X380516Y627871D01*
X379047Y629547D01*
X377371Y631016D01*
X375518Y632254D01*
X373520Y633240D01*
X371409Y633956D01*
X369224Y634391D01*
X367000Y634537D01*
D02*
G37*
G36*
X1146000Y635037D02*
X1143776Y634891D01*
X1141591Y634456D01*
X1139480Y633740D01*
X1137482Y632754D01*
X1135629Y631516D01*
X1133953Y630047D01*
X1132484Y628371D01*
X1131246Y626518D01*
X1130260Y624520D01*
X1129544Y622409D01*
X1129109Y620224D01*
X1128963Y618000D01*
X1129109Y615776D01*
X1129544Y613591D01*
X1130260Y611480D01*
X1131246Y609482D01*
X1132484Y607629D01*
X1133953Y605953D01*
X1135629Y604484D01*
X1137482Y603246D01*
X1139480Y602260D01*
X1141591Y601544D01*
X1143776Y601109D01*
X1146000Y600963D01*
X1148224Y601109D01*
X1150409Y601544D01*
X1152520Y602260D01*
X1154518Y603246D01*
X1156371Y604484D01*
X1158047Y605953D01*
X1159516Y607629D01*
X1160754Y609482D01*
X1161740Y611480D01*
X1162456Y613591D01*
X1162891Y615776D01*
X1163037Y618000D01*
X1162891Y620224D01*
X1162456Y622409D01*
X1161740Y624520D01*
X1160754Y626518D01*
X1159516Y628371D01*
X1158047Y630047D01*
X1156371Y631516D01*
X1154518Y632754D01*
X1152520Y633740D01*
X1150409Y634456D01*
X1148224Y634891D01*
X1146000Y635037D01*
D02*
G37*
G36*
X618500Y644583D02*
X617572Y644461D01*
X616708Y644103D01*
X615966Y643534D01*
X615397Y642792D01*
X615039Y641927D01*
X614917Y641000D01*
X615039Y640072D01*
X615397Y639208D01*
X615966Y638466D01*
X616708Y637897D01*
X617572Y637539D01*
X618500Y637417D01*
X619427Y637539D01*
X620292Y637897D01*
X621034Y638466D01*
X621603Y639208D01*
X621961Y640072D01*
X622083Y641000D01*
X621961Y641927D01*
X621603Y642792D01*
X621034Y643534D01*
X620292Y644103D01*
X619427Y644461D01*
X618500Y644583D01*
D02*
G37*
G36*
X708500D02*
X707573Y644461D01*
X706708Y644103D01*
X705966Y643534D01*
X705397Y642792D01*
X705039Y641927D01*
X704917Y641000D01*
X705039Y640072D01*
X705397Y639208D01*
X705966Y638466D01*
X706708Y637897D01*
X707573Y637539D01*
X708500Y637417D01*
X709427Y637539D01*
X710292Y637897D01*
X711034Y638466D01*
X711603Y639208D01*
X711961Y640072D01*
X712083Y641000D01*
X711961Y641927D01*
X711603Y642792D01*
X711034Y643534D01*
X710292Y644103D01*
X709427Y644461D01*
X708500Y644583D01*
D02*
G37*
G36*
X718500D02*
X717572Y644461D01*
X716708Y644103D01*
X715966Y643534D01*
X715397Y642792D01*
X715039Y641927D01*
X714917Y641000D01*
X715039Y640072D01*
X715397Y639208D01*
X715966Y638466D01*
X716708Y637897D01*
X717572Y637539D01*
X718500Y637417D01*
X719427Y637539D01*
X720292Y637897D01*
X721034Y638466D01*
X721603Y639208D01*
X721961Y640072D01*
X722083Y641000D01*
X721961Y641927D01*
X721603Y642792D01*
X721034Y643534D01*
X720292Y644103D01*
X719427Y644461D01*
X718500Y644583D01*
D02*
G37*
G36*
X728500D02*
X727572Y644461D01*
X726708Y644103D01*
X725966Y643534D01*
X725397Y642792D01*
X725039Y641927D01*
X724917Y641000D01*
X725039Y640072D01*
X725397Y639208D01*
X725966Y638466D01*
X726708Y637897D01*
X727572Y637539D01*
X728500Y637417D01*
X729427Y637539D01*
X730292Y637897D01*
X731034Y638466D01*
X731603Y639208D01*
X731961Y640072D01*
X732083Y641000D01*
X731961Y641927D01*
X731603Y642792D01*
X731034Y643534D01*
X730292Y644103D01*
X729427Y644461D01*
X728500Y644583D01*
D02*
G37*
G36*
X698500D02*
X697573Y644461D01*
X696708Y644103D01*
X695966Y643534D01*
X695397Y642792D01*
X695039Y641927D01*
X694917Y641000D01*
X695039Y640072D01*
X695397Y639208D01*
X695966Y638466D01*
X696708Y637897D01*
X697573Y637539D01*
X698500Y637417D01*
X699428Y637539D01*
X700292Y637897D01*
X701034Y638466D01*
X701603Y639208D01*
X701961Y640072D01*
X702083Y641000D01*
X701961Y641927D01*
X701603Y642792D01*
X701034Y643534D01*
X700292Y644103D01*
X699428Y644461D01*
X698500Y644583D01*
D02*
G37*
G36*
X668500D02*
X667572Y644461D01*
X666708Y644103D01*
X665966Y643534D01*
X665397Y642792D01*
X665039Y641927D01*
X664917Y641000D01*
X665039Y640072D01*
X665397Y639208D01*
X665966Y638466D01*
X666708Y637897D01*
X667572Y637539D01*
X668500Y637417D01*
X669427Y637539D01*
X670292Y637897D01*
X671034Y638466D01*
X671603Y639208D01*
X671961Y640072D01*
X672083Y641000D01*
X671961Y641927D01*
X671603Y642792D01*
X671034Y643534D01*
X670292Y644103D01*
X669427Y644461D01*
X668500Y644583D01*
D02*
G37*
G36*
X678500D02*
X677572Y644461D01*
X676708Y644103D01*
X675966Y643534D01*
X675397Y642792D01*
X675039Y641927D01*
X674917Y641000D01*
X675039Y640072D01*
X675397Y639208D01*
X675966Y638466D01*
X676708Y637897D01*
X677572Y637539D01*
X678500Y637417D01*
X679427Y637539D01*
X680292Y637897D01*
X681034Y638466D01*
X681603Y639208D01*
X681961Y640072D01*
X682083Y641000D01*
X681961Y641927D01*
X681603Y642792D01*
X681034Y643534D01*
X680292Y644103D01*
X679427Y644461D01*
X678500Y644583D01*
D02*
G37*
G36*
X688500D02*
X687572Y644461D01*
X686708Y644103D01*
X685966Y643534D01*
X685397Y642792D01*
X685039Y641927D01*
X684917Y641000D01*
X685039Y640072D01*
X685397Y639208D01*
X685966Y638466D01*
X686708Y637897D01*
X687572Y637539D01*
X688500Y637417D01*
X689428Y637539D01*
X690292Y637897D01*
X691034Y638466D01*
X691603Y639208D01*
X691961Y640072D01*
X692083Y641000D01*
X691961Y641927D01*
X691603Y642792D01*
X691034Y643534D01*
X690292Y644103D01*
X689428Y644461D01*
X688500Y644583D01*
D02*
G37*
G36*
X1142000Y705500D02*
X1138935D01*
X1138993Y705060D01*
X1139355Y704184D01*
X1139933Y703432D01*
X1140685Y702855D01*
X1141560Y702493D01*
X1142000Y702435D01*
Y705500D01*
D02*
G37*
G36*
X1146065D02*
X1143000D01*
Y702435D01*
X1143440Y702493D01*
X1144316Y702855D01*
X1145068Y703432D01*
X1145645Y704184D01*
X1146007Y705060D01*
X1146065Y705500D01*
D02*
G37*
G36*
X1142000Y709565D02*
X1141560Y709507D01*
X1140685Y709145D01*
X1139933Y708568D01*
X1139355Y707816D01*
X1138993Y706940D01*
X1138935Y706500D01*
X1142000D01*
Y709565D01*
D02*
G37*
G36*
X1134500Y709631D02*
X1133560Y709507D01*
X1132685Y709145D01*
X1131933Y708568D01*
X1131355Y707816D01*
X1130993Y706940D01*
X1130869Y706000D01*
X1130993Y705060D01*
X1131355Y704184D01*
X1131933Y703432D01*
X1132685Y702855D01*
X1133560Y702493D01*
X1134500Y702369D01*
X1135440Y702493D01*
X1136316Y702855D01*
X1137068Y703432D01*
X1137645Y704184D01*
X1138007Y705060D01*
X1138131Y706000D01*
X1138007Y706940D01*
X1137645Y707816D01*
X1137068Y708568D01*
X1136316Y709145D01*
X1135440Y709507D01*
X1134500Y709631D01*
D02*
G37*
G36*
X858500Y696583D02*
X857573Y696461D01*
X856708Y696103D01*
X855966Y695534D01*
X855397Y694792D01*
X855039Y693927D01*
X854917Y693000D01*
X855039Y692072D01*
X855397Y691208D01*
X855966Y690466D01*
X856708Y689897D01*
X857573Y689539D01*
X858500Y689417D01*
X859427Y689539D01*
X860292Y689897D01*
X861034Y690466D01*
X861603Y691208D01*
X861961Y692072D01*
X862083Y693000D01*
X861961Y693927D01*
X861603Y694792D01*
X861034Y695534D01*
X860292Y696103D01*
X859427Y696461D01*
X858500Y696583D01*
D02*
G37*
G36*
X596500Y704583D02*
X595573Y704461D01*
X594708Y704103D01*
X593966Y703534D01*
X593397Y702792D01*
X593039Y701928D01*
X592917Y701000D01*
X593039Y700072D01*
X593397Y699208D01*
X593966Y698466D01*
X594708Y697897D01*
X595573Y697539D01*
X596500Y697417D01*
X597428Y697539D01*
X598292Y697897D01*
X599034Y698466D01*
X599603Y699208D01*
X599961Y700072D01*
X600083Y701000D01*
X599961Y701928D01*
X599603Y702792D01*
X599034Y703534D01*
X598292Y704103D01*
X597428Y704461D01*
X596500Y704583D01*
D02*
G37*
G36*
X858500Y706583D02*
X857573Y706461D01*
X856708Y706103D01*
X855966Y705534D01*
X855397Y704792D01*
X855039Y703928D01*
X854917Y703000D01*
X855039Y702072D01*
X855397Y701208D01*
X855966Y700466D01*
X856708Y699897D01*
X857573Y699539D01*
X858500Y699417D01*
X859427Y699539D01*
X860292Y699897D01*
X861034Y700466D01*
X861603Y701208D01*
X861961Y702072D01*
X862083Y703000D01*
X861961Y703928D01*
X861603Y704792D01*
X861034Y705534D01*
X860292Y706103D01*
X859427Y706461D01*
X858500Y706583D01*
D02*
G37*
G36*
X1134500Y719631D02*
X1133560Y719507D01*
X1132685Y719145D01*
X1131933Y718568D01*
X1131355Y717815D01*
X1130993Y716940D01*
X1130869Y716000D01*
X1130993Y715060D01*
X1131355Y714185D01*
X1131933Y713432D01*
X1132685Y712855D01*
X1133560Y712493D01*
X1134500Y712369D01*
X1135440Y712493D01*
X1136316Y712855D01*
X1137068Y713432D01*
X1137645Y714185D01*
X1138007Y715060D01*
X1138131Y716000D01*
X1138007Y716940D01*
X1137645Y717815D01*
X1137068Y718568D01*
X1136316Y719145D01*
X1135440Y719507D01*
X1134500Y719631D01*
D02*
G37*
G36*
X1142500D02*
X1141560Y719507D01*
X1140685Y719145D01*
X1139933Y718568D01*
X1139355Y717815D01*
X1138993Y716940D01*
X1138869Y716000D01*
X1138993Y715060D01*
X1139355Y714185D01*
X1139933Y713432D01*
X1140685Y712855D01*
X1141560Y712493D01*
X1142500Y712369D01*
X1143440Y712493D01*
X1144316Y712855D01*
X1145068Y713432D01*
X1145645Y714185D01*
X1146007Y715060D01*
X1146131Y716000D01*
X1146007Y716940D01*
X1145645Y717815D01*
X1145068Y718568D01*
X1144316Y719145D01*
X1143440Y719507D01*
X1142500Y719631D01*
D02*
G37*
G36*
X596500Y724583D02*
X595573Y724461D01*
X594708Y724103D01*
X593966Y723534D01*
X593397Y722792D01*
X593039Y721927D01*
X592917Y721000D01*
X593039Y720073D01*
X593397Y719208D01*
X593966Y718466D01*
X594708Y717897D01*
X595573Y717539D01*
X596500Y717417D01*
X597428Y717539D01*
X598292Y717897D01*
X599034Y718466D01*
X599603Y719208D01*
X599961Y720073D01*
X600083Y721000D01*
X599961Y721927D01*
X599603Y722792D01*
X599034Y723534D01*
X598292Y724103D01*
X597428Y724461D01*
X596500Y724583D01*
D02*
G37*
G36*
X1078100Y719139D02*
X1076925Y718984D01*
X1075831Y718531D01*
X1075449Y718238D01*
X1073857D01*
Y716115D01*
X1073716Y715775D01*
X1073561Y714600D01*
X1073716Y713425D01*
X1073857Y713085D01*
Y710739D01*
X1075740D01*
X1075831Y710669D01*
X1076925Y710216D01*
X1078100Y710061D01*
X1079275Y710216D01*
X1080369Y710669D01*
X1080460Y710739D01*
X1082143D01*
Y712602D01*
X1082484Y713425D01*
X1082639Y714600D01*
X1082484Y715775D01*
X1082143Y716598D01*
Y718238D01*
X1080751D01*
X1080369Y718531D01*
X1079275Y718984D01*
X1078100Y719139D01*
D02*
G37*
G36*
X1143000Y709565D02*
Y706500D01*
X1146065D01*
X1146007Y706940D01*
X1145645Y707816D01*
X1145068Y708568D01*
X1144316Y709145D01*
X1143440Y709507D01*
X1143000Y709565D01*
D02*
G37*
G36*
X596500Y714583D02*
X595573Y714461D01*
X594708Y714103D01*
X593966Y713534D01*
X593397Y712792D01*
X593039Y711928D01*
X592917Y711000D01*
X593039Y710073D01*
X593397Y709208D01*
X593966Y708466D01*
X594708Y707897D01*
X595573Y707539D01*
X596500Y707417D01*
X597428Y707539D01*
X598292Y707897D01*
X599034Y708466D01*
X599603Y709208D01*
X599961Y710073D01*
X600083Y711000D01*
X599961Y711928D01*
X599603Y712792D01*
X599034Y713534D01*
X598292Y714103D01*
X597428Y714461D01*
X596500Y714583D01*
D02*
G37*
G36*
X858500Y716583D02*
X857573Y716461D01*
X856708Y716103D01*
X855966Y715534D01*
X855397Y714792D01*
X855039Y713928D01*
X854917Y713000D01*
X855039Y712073D01*
X855397Y711208D01*
X855966Y710466D01*
X856708Y709897D01*
X857573Y709539D01*
X858500Y709417D01*
X859427Y709539D01*
X860292Y709897D01*
X861034Y710466D01*
X861603Y711208D01*
X861961Y712073D01*
X862083Y713000D01*
X861961Y713928D01*
X861603Y714792D01*
X861034Y715534D01*
X860292Y716103D01*
X859427Y716461D01*
X858500Y716583D01*
D02*
G37*
G36*
X1122200Y693273D02*
Y689300D01*
X1126173D01*
X1126084Y689975D01*
X1125631Y691069D01*
X1124909Y692009D01*
X1123969Y692731D01*
X1122875Y693184D01*
X1122200Y693273D01*
D02*
G37*
G36*
X596500Y684583D02*
X595573Y684461D01*
X594708Y684103D01*
X593966Y683534D01*
X593397Y682792D01*
X593039Y681927D01*
X592917Y681000D01*
X593039Y680072D01*
X593397Y679208D01*
X593966Y678466D01*
X594708Y677897D01*
X595573Y677539D01*
X596500Y677417D01*
X597428Y677539D01*
X598292Y677897D01*
X599034Y678466D01*
X599603Y679208D01*
X599961Y680072D01*
X600083Y681000D01*
X599961Y681927D01*
X599603Y682792D01*
X599034Y683534D01*
X598292Y684103D01*
X597428Y684461D01*
X596500Y684583D01*
D02*
G37*
G36*
X858500Y686583D02*
X857573Y686461D01*
X856708Y686103D01*
X855966Y685534D01*
X855397Y684792D01*
X855039Y683927D01*
X854917Y683000D01*
X855039Y682072D01*
X855397Y681208D01*
X855966Y680466D01*
X856708Y679897D01*
X857573Y679539D01*
X858500Y679417D01*
X859427Y679539D01*
X860292Y679897D01*
X861034Y680466D01*
X861603Y681208D01*
X861961Y682072D01*
X862083Y683000D01*
X861961Y683927D01*
X861603Y684792D01*
X861034Y685534D01*
X860292Y686103D01*
X859427Y686461D01*
X858500Y686583D01*
D02*
G37*
G36*
X1153000Y687000D02*
X1148392D01*
X1148502Y686161D01*
X1149019Y684913D01*
X1149841Y683841D01*
X1150913Y683019D01*
X1152161Y682502D01*
X1153000Y682392D01*
Y687000D01*
D02*
G37*
G36*
X858500Y676583D02*
X857573Y676461D01*
X856708Y676103D01*
X855966Y675534D01*
X855397Y674792D01*
X855039Y673927D01*
X854917Y673000D01*
X855039Y672073D01*
X855397Y671208D01*
X855966Y670466D01*
X856708Y669897D01*
X857573Y669539D01*
X858500Y669417D01*
X859427Y669539D01*
X860292Y669897D01*
X861034Y670466D01*
X861603Y671208D01*
X861961Y672073D01*
X862083Y673000D01*
X861961Y673927D01*
X861603Y674792D01*
X861034Y675534D01*
X860292Y676103D01*
X859427Y676461D01*
X858500Y676583D01*
D02*
G37*
G36*
X596500Y664583D02*
X595573Y664461D01*
X594708Y664103D01*
X593966Y663534D01*
X593397Y662792D01*
X593039Y661928D01*
X592917Y661000D01*
X593039Y660073D01*
X593397Y659208D01*
X593966Y658466D01*
X594708Y657897D01*
X595573Y657539D01*
X596500Y657417D01*
X597428Y657539D01*
X598292Y657897D01*
X599034Y658466D01*
X599603Y659208D01*
X599961Y660073D01*
X600083Y661000D01*
X599961Y661928D01*
X599603Y662792D01*
X599034Y663534D01*
X598292Y664103D01*
X597428Y664461D01*
X596500Y664583D01*
D02*
G37*
G36*
X858500Y666583D02*
X857573Y666461D01*
X856708Y666103D01*
X855966Y665534D01*
X855397Y664792D01*
X855039Y663928D01*
X854917Y663000D01*
X855039Y662073D01*
X855397Y661208D01*
X855966Y660466D01*
X856708Y659897D01*
X857573Y659539D01*
X858500Y659417D01*
X859427Y659539D01*
X860292Y659897D01*
X861034Y660466D01*
X861603Y661208D01*
X861961Y662073D01*
X862083Y663000D01*
X861961Y663928D01*
X861603Y664792D01*
X861034Y665534D01*
X860292Y666103D01*
X859427Y666461D01*
X858500Y666583D01*
D02*
G37*
G36*
X596500Y674583D02*
X595573Y674461D01*
X594708Y674103D01*
X593966Y673534D01*
X593397Y672792D01*
X593039Y671927D01*
X592917Y671000D01*
X593039Y670073D01*
X593397Y669208D01*
X593966Y668466D01*
X594708Y667897D01*
X595573Y667539D01*
X596500Y667417D01*
X597428Y667539D01*
X598292Y667897D01*
X599034Y668466D01*
X599603Y669208D01*
X599961Y670073D01*
X600083Y671000D01*
X599961Y671927D01*
X599603Y672792D01*
X599034Y673534D01*
X598292Y674103D01*
X597428Y674461D01*
X596500Y674583D01*
D02*
G37*
G36*
X1153000Y692608D02*
X1152161Y692498D01*
X1150913Y691981D01*
X1149841Y691159D01*
X1149019Y690087D01*
X1148502Y688839D01*
X1148392Y688000D01*
X1153000D01*
Y692608D01*
D02*
G37*
G36*
X1154000D02*
Y688000D01*
X1158608D01*
X1158498Y688839D01*
X1157981Y690087D01*
X1157159Y691159D01*
X1156087Y691981D01*
X1154839Y692498D01*
X1154000Y692608D01*
D02*
G37*
G36*
X1121200Y693273D02*
X1120525Y693184D01*
X1119431Y692731D01*
X1118491Y692009D01*
X1117769Y691069D01*
X1117316Y689975D01*
X1117227Y689300D01*
X1121200D01*
Y693273D01*
D02*
G37*
G36*
X596500Y694583D02*
X595573Y694461D01*
X594708Y694103D01*
X593966Y693534D01*
X593397Y692792D01*
X593039Y691927D01*
X592917Y691000D01*
X593039Y690072D01*
X593397Y689208D01*
X593966Y688466D01*
X594708Y687897D01*
X595573Y687539D01*
X596500Y687417D01*
X597428Y687539D01*
X598292Y687897D01*
X599034Y688466D01*
X599603Y689208D01*
X599961Y690072D01*
X600083Y691000D01*
X599961Y691927D01*
X599603Y692792D01*
X599034Y693534D01*
X598292Y694103D01*
X597428Y694461D01*
X596500Y694583D01*
D02*
G37*
G36*
X1158608Y687000D02*
X1154000D01*
Y682392D01*
X1154839Y682502D01*
X1156087Y683019D01*
X1157159Y683841D01*
X1157981Y684913D01*
X1158498Y686161D01*
X1158608Y687000D01*
D02*
G37*
G36*
X1121200Y688300D02*
X1117227D01*
X1117316Y687625D01*
X1117769Y686531D01*
X1118491Y685591D01*
X1119431Y684869D01*
X1120525Y684416D01*
X1121200Y684327D01*
Y688300D01*
D02*
G37*
G36*
X1126173D02*
X1122200D01*
Y684327D01*
X1122875Y684416D01*
X1123969Y684869D01*
X1124909Y685591D01*
X1125631Y686531D01*
X1126084Y687625D01*
X1126173Y688300D01*
D02*
G37*
G36*
X858500Y786583D02*
X857573Y786461D01*
X856708Y786103D01*
X855966Y785534D01*
X855397Y784792D01*
X855039Y783927D01*
X854917Y783000D01*
X855039Y782072D01*
X855397Y781208D01*
X855966Y780466D01*
X856708Y779897D01*
X857573Y779539D01*
X858500Y779417D01*
X859427Y779539D01*
X860292Y779897D01*
X861034Y780466D01*
X861603Y781208D01*
X861961Y782072D01*
X862083Y783000D01*
X861961Y783927D01*
X861603Y784792D01*
X861034Y785534D01*
X860292Y786103D01*
X859427Y786461D01*
X858500Y786583D01*
D02*
G37*
G36*
X924662Y953598D02*
X915193D01*
Y944129D01*
X916647Y944273D01*
X918527Y944843D01*
X920259Y945769D01*
X921777Y947014D01*
X923023Y948533D01*
X923949Y950265D01*
X924519Y952144D01*
X924662Y953598D01*
D02*
G37*
G36*
X886811Y948008D02*
X883416D01*
X883485Y947483D01*
X883881Y946527D01*
X884510Y945707D01*
X885331Y945078D01*
X886286Y944682D01*
X886811Y944613D01*
Y948008D01*
D02*
G37*
G36*
X891206D02*
X887811D01*
Y944613D01*
X888336Y944682D01*
X889291Y945078D01*
X890112Y945707D01*
X890741Y946527D01*
X891137Y947483D01*
X891206Y948008D01*
D02*
G37*
G36*
X914193Y953598D02*
X904724D01*
X904867Y952144D01*
X905437Y950265D01*
X906363Y948533D01*
X907609Y947014D01*
X909127Y945769D01*
X910859Y944843D01*
X912738Y944273D01*
X914193Y944129D01*
Y953598D01*
D02*
G37*
G36*
X628000Y947583D02*
X627072Y947461D01*
X626208Y947103D01*
X625466Y946534D01*
X624897Y945792D01*
X624539Y944927D01*
X624417Y944000D01*
X624539Y943073D01*
X624897Y942208D01*
X625466Y941466D01*
X626208Y940897D01*
X627072Y940539D01*
X628000Y940417D01*
X628928Y940539D01*
X629792Y940897D01*
X630534Y941466D01*
X631103Y942208D01*
X631461Y943073D01*
X631583Y944000D01*
X631461Y944927D01*
X631103Y945792D01*
X630534Y946534D01*
X629792Y947103D01*
X628928Y947461D01*
X628000Y947583D01*
D02*
G37*
G36*
X815807Y953598D02*
X806338D01*
X806481Y952144D01*
X807051Y950265D01*
X807977Y948533D01*
X809223Y947014D01*
X810741Y945769D01*
X812473Y944843D01*
X814353Y944273D01*
X815807Y944129D01*
Y953598D01*
D02*
G37*
G36*
X826276D02*
X816807D01*
Y944129D01*
X818262Y944273D01*
X820141Y944843D01*
X821873Y945769D01*
X823391Y947014D01*
X824637Y948533D01*
X825563Y950265D01*
X826133Y952144D01*
X826276Y953598D01*
D02*
G37*
G36*
X628000Y957583D02*
X627072Y957461D01*
X626208Y957103D01*
X625466Y956534D01*
X624897Y955792D01*
X624539Y954927D01*
X624417Y954000D01*
X624539Y953073D01*
X624897Y952208D01*
X625466Y951466D01*
X626208Y950897D01*
X627072Y950539D01*
X628000Y950417D01*
X628928Y950539D01*
X629792Y950897D01*
X630534Y951466D01*
X631103Y952208D01*
X631461Y953073D01*
X631583Y954000D01*
X631461Y954927D01*
X631103Y955792D01*
X630534Y956534D01*
X629792Y957103D01*
X628928Y957461D01*
X628000Y957583D01*
D02*
G37*
G36*
X735500Y953988D02*
X731857D01*
Y950739D01*
X735500D01*
Y953988D01*
D02*
G37*
G36*
X740143D02*
X736500D01*
Y950739D01*
X740143D01*
Y953988D01*
D02*
G37*
G36*
X903673Y953900D02*
X899700D01*
Y949927D01*
X900375Y950016D01*
X901469Y950469D01*
X902409Y951191D01*
X903131Y952131D01*
X903584Y953225D01*
X903673Y953900D01*
D02*
G37*
G36*
X886811Y952403D02*
X886286Y952334D01*
X885331Y951938D01*
X884510Y951309D01*
X883881Y950488D01*
X883485Y949533D01*
X883416Y949008D01*
X886811D01*
Y952403D01*
D02*
G37*
G36*
X887811D02*
Y949008D01*
X891206D01*
X891137Y949533D01*
X890741Y950488D01*
X890112Y951309D01*
X889291Y951938D01*
X888336Y952334D01*
X887811Y952403D01*
D02*
G37*
G36*
X898700Y953900D02*
X894727D01*
X894816Y953225D01*
X895269Y952131D01*
X895991Y951191D01*
X896931Y950469D01*
X898025Y950016D01*
X898700Y949927D01*
Y953900D01*
D02*
G37*
G36*
X628500Y937518D02*
Y934500D01*
X631518D01*
X631461Y934927D01*
X631103Y935792D01*
X630534Y936534D01*
X629792Y937103D01*
X628928Y937461D01*
X628500Y937518D01*
D02*
G37*
G36*
X836500Y906583D02*
X835573Y906461D01*
X834708Y906103D01*
X833966Y905534D01*
X833397Y904792D01*
X833039Y903927D01*
X832917Y903000D01*
X833039Y902073D01*
X833397Y901208D01*
X833966Y900466D01*
X834708Y899897D01*
X835573Y899539D01*
X836500Y899417D01*
X837427Y899539D01*
X838292Y899897D01*
X839034Y900466D01*
X839603Y901208D01*
X839961Y902073D01*
X840083Y903000D01*
X839961Y903927D01*
X839603Y904792D01*
X839034Y905534D01*
X838292Y906103D01*
X837427Y906461D01*
X836500Y906583D01*
D02*
G37*
G36*
X850053Y906553D02*
X842947D01*
Y899447D01*
X850053D01*
Y906553D01*
D02*
G37*
G36*
X691000Y930000D02*
X687027D01*
X687116Y929325D01*
X687569Y928231D01*
X688291Y927291D01*
X689231Y926569D01*
X690325Y926116D01*
X691000Y926027D01*
Y930000D01*
D02*
G37*
G36*
X826500Y906583D02*
X825573Y906461D01*
X824708Y906103D01*
X823966Y905534D01*
X823397Y904792D01*
X823039Y903927D01*
X822917Y903000D01*
X823039Y902073D01*
X823397Y901208D01*
X823966Y900466D01*
X824708Y899897D01*
X825573Y899539D01*
X826500Y899417D01*
X827427Y899539D01*
X828292Y899897D01*
X829034Y900466D01*
X829603Y901208D01*
X829961Y902073D01*
X830083Y903000D01*
X829961Y903927D01*
X829603Y904792D01*
X829034Y905534D01*
X828292Y906103D01*
X827427Y906461D01*
X826500Y906583D01*
D02*
G37*
G36*
X766000Y959039D02*
X764825Y958884D01*
X763731Y958431D01*
X762791Y957709D01*
X762069Y956769D01*
X761616Y955675D01*
X761461Y954500D01*
X761616Y953325D01*
X762069Y952231D01*
X762791Y951291D01*
X763731Y950569D01*
X764825Y950116D01*
X766000Y949961D01*
X766825Y950070D01*
X793951Y922944D01*
Y905514D01*
X793397Y904792D01*
X793039Y903927D01*
X792917Y903000D01*
X793039Y902073D01*
X793397Y901208D01*
X793966Y900466D01*
X794708Y899897D01*
X795573Y899539D01*
X796500Y899417D01*
X797428Y899539D01*
X798292Y899897D01*
X799034Y900466D01*
X799603Y901208D01*
X799961Y902073D01*
X800083Y903000D01*
X799961Y903927D01*
X799603Y904792D01*
X799049Y905514D01*
Y924000D01*
X798855Y924975D01*
X798302Y925802D01*
X770430Y953675D01*
X770539Y954500D01*
X770384Y955675D01*
X769931Y956769D01*
X769209Y957709D01*
X768269Y958431D01*
X767175Y958884D01*
X766000Y959039D01*
D02*
G37*
G36*
X806500Y906583D02*
X805573Y906461D01*
X804708Y906103D01*
X803966Y905534D01*
X803397Y904792D01*
X803039Y903927D01*
X802917Y903000D01*
X803039Y902073D01*
X803397Y901208D01*
X803966Y900466D01*
X804708Y899897D01*
X805573Y899539D01*
X806500Y899417D01*
X807428Y899539D01*
X808292Y899897D01*
X809034Y900466D01*
X809603Y901208D01*
X809961Y902073D01*
X810083Y903000D01*
X809961Y903927D01*
X809603Y904792D01*
X809034Y905534D01*
X808292Y906103D01*
X807428Y906461D01*
X806500Y906583D01*
D02*
G37*
G36*
X816500D02*
X815572Y906461D01*
X814708Y906103D01*
X813966Y905534D01*
X813397Y904792D01*
X813039Y903927D01*
X812917Y903000D01*
X813039Y902073D01*
X813397Y901208D01*
X813966Y900466D01*
X814708Y899897D01*
X815572Y899539D01*
X816500Y899417D01*
X817428Y899539D01*
X818292Y899897D01*
X819034Y900466D01*
X819603Y901208D01*
X819961Y902073D01*
X820083Y903000D01*
X819961Y903927D01*
X819603Y904792D01*
X819034Y905534D01*
X818292Y906103D01*
X817428Y906461D01*
X816500Y906583D01*
D02*
G37*
G36*
X691000Y934973D02*
X690325Y934884D01*
X689231Y934431D01*
X688291Y933709D01*
X687569Y932769D01*
X687116Y931675D01*
X687027Y931000D01*
X691000D01*
Y934973D01*
D02*
G37*
G36*
X692000D02*
Y931000D01*
X695973D01*
X695884Y931675D01*
X695431Y932769D01*
X694709Y933709D01*
X693769Y934431D01*
X692675Y934884D01*
X692000Y934973D01*
D02*
G37*
G36*
X627500Y937518D02*
X627072Y937461D01*
X626208Y937103D01*
X625466Y936534D01*
X624897Y935792D01*
X624539Y934927D01*
X624482Y934500D01*
X627500D01*
Y937518D01*
D02*
G37*
G36*
X631518Y933500D02*
X628500D01*
Y930482D01*
X628928Y930539D01*
X629792Y930897D01*
X630534Y931466D01*
X631103Y932208D01*
X631461Y933073D01*
X631518Y933500D01*
D02*
G37*
G36*
X695973Y930000D02*
X692000D01*
Y926027D01*
X692675Y926116D01*
X693769Y926569D01*
X694709Y927291D01*
X695431Y928231D01*
X695884Y929325D01*
X695973Y930000D01*
D02*
G37*
G36*
X638000Y937583D02*
X637073Y937461D01*
X636208Y937103D01*
X635466Y936534D01*
X634897Y935792D01*
X634539Y934927D01*
X634417Y934000D01*
X634539Y933073D01*
X634897Y932208D01*
X635466Y931466D01*
X636208Y930897D01*
X637073Y930539D01*
X638000Y930417D01*
X638928Y930539D01*
X639792Y930897D01*
X640534Y931466D01*
X641103Y932208D01*
X641461Y933073D01*
X641583Y934000D01*
X641461Y934927D01*
X641103Y935792D01*
X640534Y936534D01*
X639792Y937103D01*
X638928Y937461D01*
X638000Y937583D01*
D02*
G37*
G36*
X627500Y933500D02*
X624482D01*
X624539Y933073D01*
X624897Y932208D01*
X625466Y931466D01*
X626208Y930897D01*
X627072Y930539D01*
X627500Y930482D01*
Y933500D01*
D02*
G37*
G36*
X638000Y977583D02*
X637073Y977461D01*
X636208Y977103D01*
X635466Y976534D01*
X634897Y975792D01*
X634539Y974927D01*
X634417Y974000D01*
X634539Y973073D01*
X634897Y972208D01*
X635466Y971466D01*
X636208Y970897D01*
X637073Y970539D01*
X638000Y970417D01*
X638928Y970539D01*
X639792Y970897D01*
X640514Y971451D01*
X658447D01*
Y970447D01*
X665553D01*
Y977553D01*
X658447D01*
Y976549D01*
X640514D01*
X639792Y977103D01*
X638928Y977461D01*
X638000Y977583D01*
D02*
G37*
G36*
X603000Y978773D02*
X602325Y978684D01*
X601231Y978231D01*
X600291Y977509D01*
X599569Y976569D01*
X599116Y975475D01*
X599027Y974800D01*
X603000D01*
Y978773D01*
D02*
G37*
G36*
X604000D02*
Y974800D01*
X607973D01*
X607884Y975475D01*
X607431Y976569D01*
X606709Y977509D01*
X605769Y978231D01*
X604675Y978684D01*
X604000Y978773D01*
D02*
G37*
G36*
X631553Y977553D02*
X624447D01*
Y970447D01*
X631553D01*
Y977553D01*
D02*
G37*
G36*
X817100Y973273D02*
Y969300D01*
X821073D01*
X820984Y969975D01*
X820531Y971069D01*
X819809Y972009D01*
X818869Y972731D01*
X817775Y973184D01*
X817100Y973273D01*
D02*
G37*
G36*
X603000Y973800D02*
X599027D01*
X599116Y973125D01*
X599569Y972031D01*
X600291Y971091D01*
X601231Y970369D01*
X602325Y969916D01*
X603000Y969827D01*
Y973800D01*
D02*
G37*
G36*
X607973D02*
X604000D01*
Y969827D01*
X604675Y969916D01*
X605769Y970369D01*
X606709Y971091D01*
X607431Y972031D01*
X607884Y973125D01*
X607973Y973800D01*
D02*
G37*
G36*
X593500Y992212D02*
X592893Y992133D01*
X591861Y991705D01*
X590975Y991025D01*
X590295Y990139D01*
X589867Y989107D01*
X589787Y988500D01*
X593500D01*
Y992212D01*
D02*
G37*
G36*
X594500D02*
Y988500D01*
X598212D01*
X598133Y989107D01*
X597705Y990139D01*
X597025Y991025D01*
X596139Y991705D01*
X595107Y992133D01*
X594500Y992212D01*
D02*
G37*
G36*
X941000Y1013039D02*
X939825Y1012884D01*
X938731Y1012431D01*
X937791Y1011709D01*
X937069Y1010769D01*
X936616Y1009675D01*
X936461Y1008500D01*
X936616Y1007325D01*
X937069Y1006231D01*
X937791Y1005291D01*
X938731Y1004569D01*
X939825Y1004116D01*
X941000Y1003961D01*
X942175Y1004116D01*
X943269Y1004569D01*
X944209Y1005291D01*
X944931Y1006231D01*
X945384Y1007325D01*
X945539Y1008500D01*
X945384Y1009675D01*
X944931Y1010769D01*
X944209Y1011709D01*
X943269Y1012431D01*
X942175Y1012884D01*
X941000Y1013039D01*
D02*
G37*
G36*
X598212Y987500D02*
X594500D01*
Y983788D01*
X595107Y983867D01*
X596139Y984295D01*
X597025Y984975D01*
X597705Y985861D01*
X598133Y986893D01*
X598212Y987500D01*
D02*
G37*
G36*
X373000Y1017537D02*
X370776Y1017391D01*
X368591Y1016956D01*
X366480Y1016240D01*
X364482Y1015254D01*
X362629Y1014016D01*
X360953Y1012547D01*
X359484Y1010871D01*
X358246Y1009018D01*
X357260Y1007020D01*
X356544Y1004909D01*
X356109Y1002724D01*
X355963Y1000500D01*
X356109Y998276D01*
X356544Y996091D01*
X357260Y993980D01*
X358246Y991982D01*
X359484Y990129D01*
X360953Y988453D01*
X362629Y986984D01*
X364482Y985746D01*
X366480Y984760D01*
X368591Y984044D01*
X370776Y983609D01*
X373000Y983463D01*
X375224Y983609D01*
X377409Y984044D01*
X379520Y984760D01*
X381518Y985746D01*
X383371Y986984D01*
X385047Y988453D01*
X386516Y990129D01*
X387754Y991982D01*
X388740Y993980D01*
X389456Y996091D01*
X389891Y998276D01*
X390037Y1000500D01*
X389891Y1002724D01*
X389456Y1004909D01*
X388740Y1007020D01*
X387754Y1009018D01*
X386516Y1010871D01*
X385047Y1012547D01*
X383371Y1014016D01*
X381518Y1015254D01*
X379520Y1016240D01*
X377409Y1016956D01*
X375224Y1017391D01*
X373000Y1017537D01*
D02*
G37*
G36*
X578242Y992242D02*
X569758D01*
Y983758D01*
X578242D01*
Y992242D01*
D02*
G37*
G36*
X593500Y987500D02*
X589787D01*
X589867Y986893D01*
X590295Y985861D01*
X590975Y984975D01*
X591861Y984295D01*
X592893Y983867D01*
X593500Y983788D01*
Y987500D01*
D02*
G37*
G36*
X816100Y973273D02*
X815425Y973184D01*
X814331Y972731D01*
X813391Y972009D01*
X812669Y971069D01*
X812216Y969975D01*
X812127Y969300D01*
X816100D01*
Y973273D01*
D02*
G37*
G36*
X899700Y958873D02*
Y954900D01*
X903673D01*
X903584Y955575D01*
X903131Y956669D01*
X902409Y957609D01*
X901469Y958331D01*
X900375Y958784D01*
X899700Y958873D01*
D02*
G37*
G36*
X735500Y958238D02*
X731857D01*
Y954988D01*
X735500D01*
Y958238D01*
D02*
G37*
G36*
X740143D02*
X736500D01*
Y954988D01*
X740143D01*
Y958238D01*
D02*
G37*
G36*
X898700Y958873D02*
X898025Y958784D01*
X896931Y958331D01*
X895991Y957609D01*
X895269Y956669D01*
X894816Y955575D01*
X894727Y954900D01*
X898700D01*
Y958873D01*
D02*
G37*
G36*
X821073Y968300D02*
X812127D01*
X812216Y967625D01*
X812669Y966531D01*
X813391Y965591D01*
X814331Y964869D01*
X815227Y964498D01*
X815154Y964003D01*
X814353Y963924D01*
X812473Y963354D01*
X810741Y962428D01*
X809223Y961182D01*
X807977Y959664D01*
X807051Y957932D01*
X806481Y956053D01*
X806338Y954598D01*
X826276D01*
X826133Y956053D01*
X825563Y957932D01*
X824637Y959664D01*
X823391Y961182D01*
X821873Y962428D01*
X820141Y963354D01*
X818262Y963924D01*
X817933Y963957D01*
X817860Y964451D01*
X818869Y964869D01*
X819809Y965591D01*
X820531Y966531D01*
X820984Y967625D01*
X821073Y968300D01*
D02*
G37*
G36*
X914193Y964067D02*
X912738Y963924D01*
X910859Y963354D01*
X909127Y962428D01*
X907609Y961182D01*
X906363Y959664D01*
X905437Y957932D01*
X904867Y956053D01*
X904724Y954598D01*
X914193D01*
Y964067D01*
D02*
G37*
G36*
X915193D02*
Y954598D01*
X924662D01*
X924519Y956053D01*
X923949Y957932D01*
X923023Y959664D01*
X921777Y961182D01*
X920259Y962428D01*
X918527Y963354D01*
X916647Y963924D01*
X915193Y964067D01*
D02*
G37*
G36*
X745100Y978539D02*
X743925Y978384D01*
X742831Y977931D01*
X741891Y977209D01*
X741169Y976269D01*
X740716Y975175D01*
X740561Y974000D01*
X740670Y973175D01*
X736757Y969261D01*
X731857D01*
Y961762D01*
X740143D01*
Y965438D01*
X740613Y965908D01*
X741087Y965748D01*
X741116Y965525D01*
X741569Y964431D01*
X742291Y963491D01*
X743231Y962769D01*
X744325Y962316D01*
X745000Y962227D01*
Y966701D01*
X745499D01*
Y967200D01*
X749973D01*
X749884Y967875D01*
X749431Y968969D01*
X748709Y969909D01*
X748261Y970253D01*
Y970753D01*
X748309Y970791D01*
X749031Y971731D01*
X749484Y972825D01*
X749639Y974000D01*
X749484Y975175D01*
X749031Y976269D01*
X748309Y977209D01*
X747369Y977931D01*
X746275Y978384D01*
X745100Y978539D01*
D02*
G37*
G36*
X749973Y966200D02*
X746000D01*
Y962227D01*
X746675Y962316D01*
X747769Y962769D01*
X748709Y963491D01*
X749431Y964431D01*
X749884Y965525D01*
X749973Y966200D01*
D02*
G37*
G36*
X662000Y967583D02*
X661072Y967461D01*
X660208Y967103D01*
X659486Y966549D01*
X640514D01*
X639792Y967103D01*
X638928Y967461D01*
X638000Y967583D01*
X637073Y967461D01*
X636208Y967103D01*
X635466Y966534D01*
X634897Y965792D01*
X634539Y964927D01*
X634417Y964000D01*
X634539Y963073D01*
X634897Y962208D01*
X635466Y961466D01*
X636208Y960897D01*
X637073Y960539D01*
X638000Y960417D01*
X638928Y960539D01*
X639792Y960897D01*
X640514Y961451D01*
X659486D01*
X660208Y960897D01*
X661072Y960539D01*
X662000Y960417D01*
X662927Y960539D01*
X663792Y960897D01*
X664534Y961466D01*
X665103Y962208D01*
X665461Y963073D01*
X665583Y964000D01*
X665461Y964927D01*
X665103Y965792D01*
X664534Y966534D01*
X663792Y967103D01*
X662927Y967461D01*
X662000Y967583D01*
D02*
G37*
G36*
X870953Y963650D02*
X869928Y963515D01*
X868972Y963119D01*
X868152Y962490D01*
X867737Y961949D01*
X863263D01*
X862848Y962490D01*
X862027Y963119D01*
X861072Y963515D01*
X860047Y963650D01*
X859022Y963515D01*
X858067Y963119D01*
X857247Y962490D01*
X856617Y961669D01*
X856221Y960714D01*
X856087Y959689D01*
X856221Y958664D01*
X856617Y957709D01*
X857010Y957197D01*
X856788Y956749D01*
X855656D01*
X853057Y959347D01*
X853102Y959689D01*
X852967Y960714D01*
X852572Y961669D01*
X851942Y962490D01*
X851122Y963119D01*
X850167Y963515D01*
X849142Y963650D01*
X848117Y963515D01*
X847161Y963119D01*
X846341Y962490D01*
X845712Y961669D01*
X845316Y960714D01*
X845272Y960376D01*
X841887Y956991D01*
X841334Y956164D01*
X841140Y955189D01*
Y952435D01*
X839762D01*
Y944581D01*
X847616D01*
Y952435D01*
X846238D01*
Y954133D01*
X848012Y955907D01*
X848117Y955863D01*
X849142Y955728D01*
X849429Y955766D01*
X852751Y952444D01*
X852653Y951954D01*
X852614Y951938D01*
X851794Y951309D01*
X851165Y950488D01*
X850769Y949533D01*
X850634Y948508D01*
X850769Y947483D01*
X851165Y946527D01*
X851794Y945707D01*
X852614Y945078D01*
X853569Y944682D01*
X854595Y944547D01*
X855620Y944682D01*
X856575Y945078D01*
X857395Y945707D01*
X858025Y946527D01*
X858420Y947483D01*
X858555Y948508D01*
X858420Y949533D01*
X858025Y950488D01*
X857395Y951309D01*
X857511Y951651D01*
X862397D01*
X862618Y951203D01*
X862070Y950488D01*
X861674Y949533D01*
X861539Y948508D01*
X861674Y947483D01*
X862070Y946527D01*
X862699Y945707D01*
X863520Y945078D01*
X864475Y944682D01*
X865500Y944547D01*
X866525Y944682D01*
X867480Y945078D01*
X868301Y945707D01*
X868930Y946527D01*
X869326Y947483D01*
X869461Y948508D01*
X869326Y949533D01*
X868930Y950488D01*
X868301Y951309D01*
X868417Y951651D01*
X869658D01*
X872486Y948822D01*
X872445Y948508D01*
X872580Y947483D01*
X872976Y946527D01*
X873605Y945707D01*
X874425Y945078D01*
X875380Y944682D01*
X876406Y944547D01*
X877431Y944682D01*
X878386Y945078D01*
X879206Y945707D01*
X879836Y946527D01*
X880231Y947483D01*
X880366Y948508D01*
X880231Y949533D01*
X879836Y950488D01*
X879206Y951309D01*
X878386Y951938D01*
X877431Y952334D01*
X876406Y952468D01*
X876091Y952427D01*
X872516Y956002D01*
X872524Y956090D01*
X872933Y956259D01*
X873753Y956888D01*
X874383Y957709D01*
X874778Y958664D01*
X874913Y959689D01*
X874778Y960714D01*
X874383Y961669D01*
X873753Y962490D01*
X872933Y963119D01*
X871978Y963515D01*
X870953Y963650D01*
D02*
G37*
G36*
X881858D02*
X880833Y963515D01*
X879878Y963119D01*
X879058Y962490D01*
X878428Y961669D01*
X878033Y960714D01*
X877898Y959689D01*
X878033Y958664D01*
X878428Y957709D01*
X879058Y956888D01*
X879878Y956259D01*
X880833Y955863D01*
X881858Y955728D01*
X882883Y955863D01*
X883839Y956259D01*
X884659Y956888D01*
X885288Y957709D01*
X885684Y958664D01*
X885819Y959689D01*
X885684Y960714D01*
X885288Y961669D01*
X884659Y962490D01*
X883839Y963119D01*
X882883Y963515D01*
X881858Y963650D01*
D02*
G37*
G36*
X583400Y966239D02*
X582225Y966084D01*
X581131Y965631D01*
X580191Y964909D01*
X579469Y963969D01*
X579016Y962875D01*
X578861Y961700D01*
X579016Y960525D01*
X579469Y959431D01*
X580191Y958491D01*
X581131Y957769D01*
X582225Y957316D01*
X583400Y957161D01*
X584575Y957316D01*
X585669Y957769D01*
X586609Y958491D01*
X587331Y959431D01*
X587784Y960525D01*
X587939Y961700D01*
X587784Y962875D01*
X587331Y963969D01*
X586609Y964909D01*
X585669Y965631D01*
X584575Y966084D01*
X583400Y966239D01*
D02*
G37*
G36*
X628000Y967583D02*
X627072Y967461D01*
X626208Y967103D01*
X625466Y966534D01*
X624897Y965792D01*
X624539Y964927D01*
X624417Y964000D01*
X624539Y963073D01*
X624897Y962208D01*
X625466Y961466D01*
X626208Y960897D01*
X627072Y960539D01*
X628000Y960417D01*
X628928Y960539D01*
X629792Y960897D01*
X630534Y961466D01*
X631103Y962208D01*
X631461Y963073D01*
X631583Y964000D01*
X631461Y964927D01*
X631103Y965792D01*
X630534Y966534D01*
X629792Y967103D01*
X628928Y967461D01*
X628000Y967583D01*
D02*
G37*
G36*
X858500Y816583D02*
X857573Y816461D01*
X856708Y816103D01*
X855966Y815534D01*
X855397Y814792D01*
X855039Y813927D01*
X854917Y813000D01*
X855039Y812072D01*
X855397Y811208D01*
X855966Y810466D01*
X856708Y809897D01*
X857573Y809539D01*
X858500Y809417D01*
X859427Y809539D01*
X860292Y809897D01*
X861034Y810466D01*
X861603Y811208D01*
X861961Y812072D01*
X862083Y813000D01*
X861961Y813927D01*
X861603Y814792D01*
X861034Y815534D01*
X860292Y816103D01*
X859427Y816461D01*
X858500Y816583D01*
D02*
G37*
G36*
X596500Y824583D02*
X595573Y824461D01*
X594708Y824103D01*
X593966Y823534D01*
X593397Y822792D01*
X593039Y821927D01*
X592917Y821000D01*
X593039Y820073D01*
X593397Y819208D01*
X593966Y818466D01*
X594708Y817897D01*
X595573Y817539D01*
X596500Y817417D01*
X597428Y817539D01*
X598292Y817897D01*
X599034Y818466D01*
X599603Y819208D01*
X599961Y820073D01*
X600083Y821000D01*
X599961Y821927D01*
X599603Y822792D01*
X599034Y823534D01*
X598292Y824103D01*
X597428Y824461D01*
X596500Y824583D01*
D02*
G37*
G36*
X858500Y826583D02*
X857573Y826461D01*
X856708Y826103D01*
X855966Y825534D01*
X855397Y824792D01*
X855039Y823927D01*
X854917Y823000D01*
X855039Y822073D01*
X855397Y821208D01*
X855966Y820466D01*
X856708Y819897D01*
X857573Y819539D01*
X858500Y819417D01*
X859427Y819539D01*
X860292Y819897D01*
X861034Y820466D01*
X861603Y821208D01*
X861961Y822073D01*
X862083Y823000D01*
X861961Y823927D01*
X861603Y824792D01*
X861034Y825534D01*
X860292Y826103D01*
X859427Y826461D01*
X858500Y826583D01*
D02*
G37*
G36*
X596500Y814583D02*
X595573Y814461D01*
X594708Y814103D01*
X593966Y813534D01*
X593397Y812792D01*
X593039Y811928D01*
X592917Y811000D01*
X593039Y810073D01*
X593397Y809208D01*
X593966Y808466D01*
X594708Y807897D01*
X595573Y807539D01*
X596500Y807417D01*
X597428Y807539D01*
X598292Y807897D01*
X599034Y808466D01*
X599603Y809208D01*
X599961Y810073D01*
X600083Y811000D01*
X599961Y811928D01*
X599603Y812792D01*
X599034Y813534D01*
X598292Y814103D01*
X597428Y814461D01*
X596500Y814583D01*
D02*
G37*
G36*
Y804583D02*
X595573Y804461D01*
X594708Y804103D01*
X593966Y803534D01*
X593397Y802792D01*
X593039Y801927D01*
X592917Y801000D01*
X593039Y800072D01*
X593397Y799208D01*
X593966Y798466D01*
X594708Y797897D01*
X595573Y797539D01*
X596500Y797417D01*
X597428Y797539D01*
X598292Y797897D01*
X599034Y798466D01*
X599603Y799208D01*
X599961Y800072D01*
X600083Y801000D01*
X599961Y801927D01*
X599603Y802792D01*
X599034Y803534D01*
X598292Y804103D01*
X597428Y804461D01*
X596500Y804583D01*
D02*
G37*
G36*
X858500Y806583D02*
X857573Y806461D01*
X856708Y806103D01*
X855966Y805534D01*
X855397Y804792D01*
X855039Y803928D01*
X854917Y803000D01*
X855039Y802073D01*
X855397Y801208D01*
X855966Y800466D01*
X856708Y799897D01*
X857573Y799539D01*
X858500Y799417D01*
X859427Y799539D01*
X860292Y799897D01*
X861034Y800466D01*
X861603Y801208D01*
X861961Y802073D01*
X862083Y803000D01*
X861961Y803928D01*
X861603Y804792D01*
X861034Y805534D01*
X860292Y806103D01*
X859427Y806461D01*
X858500Y806583D01*
D02*
G37*
G36*
X1153500Y812539D02*
X1152325Y812384D01*
X1151231Y811931D01*
X1150291Y811209D01*
X1149569Y810269D01*
X1149116Y809175D01*
X1148961Y808000D01*
X1149116Y806825D01*
X1149569Y805731D01*
X1150291Y804791D01*
X1151231Y804069D01*
X1152325Y803616D01*
X1153500Y803461D01*
X1154675Y803616D01*
X1155769Y804069D01*
X1156709Y804791D01*
X1157431Y805731D01*
X1157884Y806825D01*
X1158039Y808000D01*
X1157884Y809175D01*
X1157431Y810269D01*
X1156709Y811209D01*
X1155769Y811931D01*
X1154675Y812384D01*
X1153500Y812539D01*
D02*
G37*
G36*
X1114000Y832473D02*
Y828500D01*
X1117973D01*
X1117884Y829175D01*
X1117431Y830269D01*
X1116709Y831209D01*
X1115769Y831931D01*
X1114675Y832384D01*
X1114000Y832473D01*
D02*
G37*
G36*
X858500Y836583D02*
X857573Y836461D01*
X856708Y836103D01*
X855966Y835534D01*
X855397Y834792D01*
X855039Y833927D01*
X854917Y833000D01*
X855039Y832073D01*
X855397Y831208D01*
X855966Y830466D01*
X856708Y829897D01*
X857573Y829539D01*
X858500Y829417D01*
X859427Y829539D01*
X860292Y829897D01*
X861034Y830466D01*
X861603Y831208D01*
X861961Y832073D01*
X862083Y833000D01*
X861961Y833927D01*
X861603Y834792D01*
X861034Y835534D01*
X860292Y836103D01*
X859427Y836461D01*
X858500Y836583D01*
D02*
G37*
G36*
X596500Y844583D02*
X595573Y844461D01*
X594708Y844103D01*
X593966Y843534D01*
X593397Y842792D01*
X593039Y841927D01*
X592917Y841000D01*
X593039Y840073D01*
X593397Y839208D01*
X593966Y838466D01*
X594708Y837897D01*
X595573Y837539D01*
X596500Y837417D01*
X597428Y837539D01*
X598292Y837897D01*
X599034Y838466D01*
X599603Y839208D01*
X599961Y840073D01*
X600083Y841000D01*
X599961Y841927D01*
X599603Y842792D01*
X599034Y843534D01*
X598292Y844103D01*
X597428Y844461D01*
X596500Y844583D01*
D02*
G37*
G36*
X1113000Y832473D02*
X1112325Y832384D01*
X1111231Y831931D01*
X1110291Y831209D01*
X1109569Y830269D01*
X1109116Y829175D01*
X1109027Y828500D01*
X1113000D01*
Y832473D01*
D02*
G37*
G36*
Y827500D02*
X1109027D01*
X1109116Y826825D01*
X1109569Y825731D01*
X1110291Y824791D01*
X1111231Y824069D01*
X1112325Y823616D01*
X1113000Y823527D01*
Y827500D01*
D02*
G37*
G36*
X1117973D02*
X1114000D01*
Y823527D01*
X1114675Y823616D01*
X1115769Y824069D01*
X1116709Y824791D01*
X1117431Y825731D01*
X1117884Y826825D01*
X1117973Y827500D01*
D02*
G37*
G36*
X596500Y834583D02*
X595573Y834461D01*
X594708Y834103D01*
X593966Y833534D01*
X593397Y832792D01*
X593039Y831927D01*
X592917Y831000D01*
X593039Y830073D01*
X593397Y829208D01*
X593966Y828466D01*
X594708Y827897D01*
X595573Y827539D01*
X596500Y827417D01*
X597428Y827539D01*
X598292Y827897D01*
X599034Y828466D01*
X599603Y829208D01*
X599961Y830073D01*
X600083Y831000D01*
X599961Y831927D01*
X599603Y832792D01*
X599034Y833534D01*
X598292Y834103D01*
X597428Y834461D01*
X596500Y834583D01*
D02*
G37*
G36*
X727400Y797739D02*
X726225Y797584D01*
X725131Y797131D01*
X724191Y796409D01*
X724083Y796269D01*
X723587Y796204D01*
X722769Y796831D01*
X721675Y797284D01*
X721000Y797373D01*
Y792899D01*
X720501D01*
Y792400D01*
X716027D01*
X716116Y791725D01*
X716569Y790631D01*
X717291Y789691D01*
X718039Y789117D01*
X718039Y788943D01*
X718039D01*
Y785300D01*
X725538D01*
Y788651D01*
X725673Y788741D01*
D01*
X725953Y788928D01*
X726225Y788816D01*
X727400Y788661D01*
X728225Y788770D01*
X729062Y787933D01*
Y780657D01*
X736561D01*
Y788943D01*
X735261D01*
X731830Y792375D01*
X731939Y793200D01*
X731784Y794375D01*
X731331Y795469D01*
X730609Y796409D01*
X729669Y797131D01*
X728575Y797584D01*
X727400Y797739D01*
D02*
G37*
G36*
X715443Y790061D02*
X707157D01*
Y786762D01*
X703684Y783288D01*
X703300Y783339D01*
X702125Y783184D01*
X701031Y782731D01*
X700091Y782009D01*
X699369Y781069D01*
X698916Y779975D01*
X698761Y778800D01*
X698916Y777625D01*
X699369Y776531D01*
X700091Y775591D01*
X700719Y775108D01*
Y774608D01*
X700591Y774509D01*
X699869Y773569D01*
X699416Y772475D01*
X699327Y771800D01*
X708273D01*
X708339Y771300D01*
X708548Y771539D01*
X710800D01*
Y775287D01*
Y779038D01*
X707807D01*
X707684Y779975D01*
X707654Y780049D01*
X710167Y782562D01*
X715443D01*
Y790061D01*
D02*
G37*
G36*
X742900Y790000D02*
X738927D01*
X739016Y789325D01*
X739157Y788985D01*
Y786562D01*
X741148D01*
X742225Y786116D01*
X742900Y786027D01*
Y790000D01*
D02*
G37*
G36*
X747873D02*
X743900D01*
Y786027D01*
X744575Y786116D01*
X745652Y786562D01*
X747443D01*
Y788502D01*
X747784Y789325D01*
X747873Y790000D01*
D02*
G37*
G36*
X648773Y785700D02*
X644800D01*
Y781727D01*
X645475Y781816D01*
X646569Y782269D01*
X647509Y782991D01*
X648231Y783931D01*
X648684Y785025D01*
X648773Y785700D01*
D02*
G37*
G36*
X721288Y784300D02*
X718039D01*
Y780657D01*
X721288D01*
Y784300D01*
D02*
G37*
G36*
X725538D02*
X722288D01*
Y780657D01*
X725538D01*
Y784300D01*
D02*
G37*
G36*
X643800Y785700D02*
X639827D01*
X639916Y785025D01*
X640369Y783931D01*
X641091Y782991D01*
X642031Y782269D01*
X643125Y781816D01*
X643800Y781727D01*
Y785700D01*
D02*
G37*
G36*
X742900Y794973D02*
X742225Y794884D01*
X741131Y794431D01*
X740649Y794061D01*
X739157D01*
Y792015D01*
X739016Y791675D01*
X738927Y791000D01*
X742900D01*
Y794973D01*
D02*
G37*
G36*
X743900D02*
Y791000D01*
X747873D01*
X747784Y791675D01*
X747443Y792498D01*
Y794061D01*
X746151D01*
X745669Y794431D01*
X744575Y794884D01*
X743900Y794973D01*
D02*
G37*
G36*
X720000Y797373D02*
X719325Y797284D01*
X718231Y796831D01*
X717291Y796109D01*
X716569Y795169D01*
X716116Y794075D01*
X716027Y793400D01*
X720000D01*
Y797373D01*
D02*
G37*
G36*
X858500Y796583D02*
X857573Y796461D01*
X856708Y796103D01*
X855966Y795534D01*
X855397Y794792D01*
X855039Y793927D01*
X854917Y793000D01*
X855039Y792072D01*
X855397Y791208D01*
X855966Y790466D01*
X856708Y789897D01*
X857573Y789539D01*
X858500Y789417D01*
X859427Y789539D01*
X860292Y789897D01*
X861034Y790466D01*
X861603Y791208D01*
X861961Y792072D01*
X862083Y793000D01*
X861961Y793927D01*
X861603Y794792D01*
X861034Y795534D01*
X860292Y796103D01*
X859427Y796461D01*
X858500Y796583D01*
D02*
G37*
G36*
X643800Y790673D02*
X643125Y790584D01*
X642031Y790131D01*
X641091Y789409D01*
X640369Y788469D01*
X639916Y787375D01*
X639827Y786700D01*
X643800D01*
Y790673D01*
D02*
G37*
G36*
X644800D02*
Y786700D01*
X648773D01*
X648684Y787375D01*
X648231Y788469D01*
X647509Y789409D01*
X646569Y790131D01*
X645475Y790584D01*
X644800Y790673D01*
D02*
G37*
G36*
X596500Y794583D02*
X595573Y794461D01*
X594708Y794103D01*
X593966Y793534D01*
X593397Y792792D01*
X593039Y791927D01*
X592917Y791000D01*
X593039Y790072D01*
X593397Y789208D01*
X593966Y788466D01*
X594708Y787897D01*
X595573Y787539D01*
X596500Y787417D01*
X597428Y787539D01*
X598292Y787897D01*
X599034Y788466D01*
X599603Y789208D01*
X599961Y790072D01*
X600083Y791000D01*
X599961Y791927D01*
X599603Y792792D01*
X599034Y793534D01*
X598292Y794103D01*
X597428Y794461D01*
X596500Y794583D01*
D02*
G37*
G36*
X638000Y957583D02*
X637073Y957461D01*
X636208Y957103D01*
X635466Y956534D01*
X634897Y955792D01*
X634539Y954927D01*
X634417Y954000D01*
X634539Y953073D01*
X634897Y952208D01*
X635466Y951466D01*
X636208Y950897D01*
X637073Y950539D01*
X638000Y950417D01*
X638928Y950539D01*
X639792Y950897D01*
X640534Y951466D01*
X640599Y951551D01*
X644344D01*
X692920Y902975D01*
X693039Y902073D01*
X693397Y901208D01*
X693966Y900466D01*
X694708Y899897D01*
X695573Y899539D01*
X696500Y899417D01*
X697428Y899539D01*
X698292Y899897D01*
X699034Y900466D01*
X699603Y901208D01*
X699961Y902073D01*
X700083Y903000D01*
X699961Y903927D01*
X699603Y904792D01*
X699034Y905534D01*
X698292Y906103D01*
X697428Y906461D01*
X696525Y906580D01*
X647202Y955902D01*
X646376Y956455D01*
X645400Y956649D01*
X640384D01*
X639792Y957103D01*
X638928Y957461D01*
X638000Y957583D01*
D02*
G37*
G36*
X706500Y906583D02*
X705573Y906461D01*
X704708Y906103D01*
X703966Y905534D01*
X703397Y904792D01*
X703039Y903927D01*
X702917Y903000D01*
X703039Y902073D01*
X703397Y901208D01*
X703966Y900466D01*
X704708Y899897D01*
X705573Y899539D01*
X706500Y899417D01*
X707428Y899539D01*
X708292Y899897D01*
X709034Y900466D01*
X709603Y901208D01*
X709961Y902073D01*
X710083Y903000D01*
X709961Y903927D01*
X709603Y904792D01*
X709034Y905534D01*
X708292Y906103D01*
X707428Y906461D01*
X706500Y906583D01*
D02*
G37*
G36*
X716500D02*
X715573Y906461D01*
X714708Y906103D01*
X713966Y905534D01*
X713397Y904792D01*
X713039Y903927D01*
X712917Y903000D01*
X713039Y902073D01*
X713397Y901208D01*
X713966Y900466D01*
X714708Y899897D01*
X715573Y899539D01*
X716500Y899417D01*
X717427Y899539D01*
X718292Y899897D01*
X719034Y900466D01*
X719603Y901208D01*
X719961Y902073D01*
X720083Y903000D01*
X719961Y903927D01*
X719603Y904792D01*
X719034Y905534D01*
X718292Y906103D01*
X717427Y906461D01*
X716500Y906583D01*
D02*
G37*
G36*
X686500D02*
X685572Y906461D01*
X684708Y906103D01*
X683966Y905534D01*
X683397Y904792D01*
X683039Y903927D01*
X682917Y903000D01*
X683039Y902073D01*
X683397Y901208D01*
X683966Y900466D01*
X684708Y899897D01*
X685572Y899539D01*
X686500Y899417D01*
X687428Y899539D01*
X688292Y899897D01*
X689034Y900466D01*
X689603Y901208D01*
X689961Y902073D01*
X690083Y903000D01*
X689961Y903927D01*
X689603Y904792D01*
X689034Y905534D01*
X688292Y906103D01*
X687428Y906461D01*
X686500Y906583D01*
D02*
G37*
G36*
X656500D02*
X655573Y906461D01*
X654708Y906103D01*
X653966Y905534D01*
X653397Y904792D01*
X653039Y903927D01*
X652917Y903000D01*
X653039Y902073D01*
X653397Y901208D01*
X653966Y900466D01*
X654708Y899897D01*
X655573Y899539D01*
X656500Y899417D01*
X657428Y899539D01*
X658292Y899897D01*
X659034Y900466D01*
X659603Y901208D01*
X659961Y902073D01*
X660083Y903000D01*
X659961Y903927D01*
X659603Y904792D01*
X659034Y905534D01*
X658292Y906103D01*
X657428Y906461D01*
X656500Y906583D01*
D02*
G37*
G36*
X666500D02*
X665573Y906461D01*
X664708Y906103D01*
X663966Y905534D01*
X663397Y904792D01*
X663039Y903927D01*
X662917Y903000D01*
X663039Y902073D01*
X663397Y901208D01*
X663966Y900466D01*
X664708Y899897D01*
X665573Y899539D01*
X666500Y899417D01*
X667427Y899539D01*
X668292Y899897D01*
X669034Y900466D01*
X669603Y901208D01*
X669961Y902073D01*
X670083Y903000D01*
X669961Y903927D01*
X669603Y904792D01*
X669034Y905534D01*
X668292Y906103D01*
X667427Y906461D01*
X666500Y906583D01*
D02*
G37*
G36*
X676500D02*
X675572Y906461D01*
X674708Y906103D01*
X673966Y905534D01*
X673397Y904792D01*
X673039Y903927D01*
X672917Y903000D01*
X673039Y902073D01*
X673397Y901208D01*
X673966Y900466D01*
X674708Y899897D01*
X675572Y899539D01*
X676500Y899417D01*
X677427Y899539D01*
X678292Y899897D01*
X679034Y900466D01*
X679603Y901208D01*
X679961Y902073D01*
X680083Y903000D01*
X679961Y903927D01*
X679603Y904792D01*
X679034Y905534D01*
X678292Y906103D01*
X677427Y906461D01*
X676500Y906583D01*
D02*
G37*
G36*
X766500D02*
X765573Y906461D01*
X764708Y906103D01*
X763966Y905534D01*
X763397Y904792D01*
X763039Y903927D01*
X762917Y903000D01*
X763039Y902073D01*
X763397Y901208D01*
X763966Y900466D01*
X764708Y899897D01*
X765573Y899539D01*
X766500Y899417D01*
X767427Y899539D01*
X768292Y899897D01*
X769034Y900466D01*
X769603Y901208D01*
X769961Y902073D01*
X770083Y903000D01*
X769961Y903927D01*
X769603Y904792D01*
X769034Y905534D01*
X768292Y906103D01*
X767427Y906461D01*
X766500Y906583D01*
D02*
G37*
G36*
X776500D02*
X775572Y906461D01*
X774708Y906103D01*
X773966Y905534D01*
X773397Y904792D01*
X773039Y903927D01*
X772917Y903000D01*
X773039Y902073D01*
X773397Y901208D01*
X773966Y900466D01*
X774708Y899897D01*
X775572Y899539D01*
X776500Y899417D01*
X777427Y899539D01*
X778292Y899897D01*
X779034Y900466D01*
X779603Y901208D01*
X779961Y902073D01*
X780083Y903000D01*
X779961Y903927D01*
X779603Y904792D01*
X779034Y905534D01*
X778292Y906103D01*
X777427Y906461D01*
X776500Y906583D01*
D02*
G37*
G36*
X786500D02*
X785572Y906461D01*
X784708Y906103D01*
X783966Y905534D01*
X783397Y904792D01*
X783039Y903927D01*
X782917Y903000D01*
X783039Y902073D01*
X783397Y901208D01*
X783966Y900466D01*
X784708Y899897D01*
X785572Y899539D01*
X786500Y899417D01*
X787428Y899539D01*
X788292Y899897D01*
X789034Y900466D01*
X789603Y901208D01*
X789961Y902073D01*
X790083Y903000D01*
X789961Y903927D01*
X789603Y904792D01*
X789034Y905534D01*
X788292Y906103D01*
X787428Y906461D01*
X786500Y906583D01*
D02*
G37*
G36*
X756500D02*
X755573Y906461D01*
X754708Y906103D01*
X753966Y905534D01*
X753397Y904792D01*
X753039Y903927D01*
X752917Y903000D01*
X753039Y902073D01*
X753397Y901208D01*
X753966Y900466D01*
X754708Y899897D01*
X755573Y899539D01*
X756500Y899417D01*
X757428Y899539D01*
X758292Y899897D01*
X759034Y900466D01*
X759603Y901208D01*
X759961Y902073D01*
X760083Y903000D01*
X759961Y903927D01*
X759603Y904792D01*
X759034Y905534D01*
X758292Y906103D01*
X757428Y906461D01*
X756500Y906583D01*
D02*
G37*
G36*
X726500D02*
X725572Y906461D01*
X724708Y906103D01*
X723966Y905534D01*
X723397Y904792D01*
X723039Y903927D01*
X722917Y903000D01*
X723039Y902073D01*
X723397Y901208D01*
X723966Y900466D01*
X724708Y899897D01*
X725572Y899539D01*
X726500Y899417D01*
X727427Y899539D01*
X728292Y899897D01*
X729034Y900466D01*
X729603Y901208D01*
X729961Y902073D01*
X730083Y903000D01*
X729961Y903927D01*
X729603Y904792D01*
X729034Y905534D01*
X728292Y906103D01*
X727427Y906461D01*
X726500Y906583D01*
D02*
G37*
G36*
X736500D02*
X735572Y906461D01*
X734708Y906103D01*
X733966Y905534D01*
X733397Y904792D01*
X733039Y903927D01*
X732917Y903000D01*
X733039Y902073D01*
X733397Y901208D01*
X733966Y900466D01*
X734708Y899897D01*
X735572Y899539D01*
X736500Y899417D01*
X737428Y899539D01*
X738292Y899897D01*
X739034Y900466D01*
X739603Y901208D01*
X739961Y902073D01*
X740083Y903000D01*
X739961Y903927D01*
X739603Y904792D01*
X739034Y905534D01*
X738292Y906103D01*
X737428Y906461D01*
X736500Y906583D01*
D02*
G37*
G36*
X746500D02*
X745573Y906461D01*
X744708Y906103D01*
X743966Y905534D01*
X743397Y904792D01*
X743039Y903927D01*
X742917Y903000D01*
X743039Y902073D01*
X743397Y901208D01*
X743966Y900466D01*
X744708Y899897D01*
X745573Y899539D01*
X746500Y899417D01*
X747428Y899539D01*
X748292Y899897D01*
X749034Y900466D01*
X749603Y901208D01*
X749961Y902073D01*
X750083Y903000D01*
X749961Y903927D01*
X749603Y904792D01*
X749034Y905534D01*
X748292Y906103D01*
X747428Y906461D01*
X746500Y906583D01*
D02*
G37*
G36*
X638000Y947583D02*
X637073Y947461D01*
X636208Y947103D01*
X635466Y946534D01*
X634897Y945792D01*
X634539Y944927D01*
X634417Y944000D01*
X634539Y943073D01*
X634897Y942208D01*
X635466Y941466D01*
X636208Y940897D01*
X637073Y940539D01*
X638000Y940417D01*
X638688Y940507D01*
X643951Y935244D01*
Y905514D01*
X643397Y904792D01*
X643039Y903927D01*
X642917Y903000D01*
X643039Y902073D01*
X643397Y901208D01*
X643966Y900466D01*
X644708Y899897D01*
X645573Y899539D01*
X646500Y899417D01*
X647428Y899539D01*
X648292Y899897D01*
X649034Y900466D01*
X649603Y901208D01*
X649961Y902073D01*
X650083Y903000D01*
X649961Y903927D01*
X649603Y904792D01*
X649049Y905514D01*
Y936300D01*
X648855Y937275D01*
X648302Y938102D01*
X641450Y944955D01*
X641103Y945792D01*
X640534Y946534D01*
X639792Y947103D01*
X638928Y947461D01*
X638000Y947583D01*
D02*
G37*
G36*
X596500Y874583D02*
X595573Y874461D01*
X594708Y874103D01*
X593966Y873534D01*
X593397Y872792D01*
X593039Y871927D01*
X592917Y871000D01*
X593039Y870073D01*
X593397Y869208D01*
X593966Y868466D01*
X594708Y867897D01*
X595573Y867539D01*
X596500Y867417D01*
X597428Y867539D01*
X598292Y867897D01*
X599034Y868466D01*
X599603Y869208D01*
X599961Y870073D01*
X600083Y871000D01*
X599961Y871927D01*
X599603Y872792D01*
X599034Y873534D01*
X598292Y874103D01*
X597428Y874461D01*
X596500Y874583D01*
D02*
G37*
G36*
Y884583D02*
X595573Y884461D01*
X594708Y884103D01*
X593966Y883534D01*
X593397Y882792D01*
X593039Y881927D01*
X592917Y881000D01*
X593039Y880073D01*
X593397Y879208D01*
X593966Y878466D01*
X594708Y877897D01*
X595573Y877539D01*
X596500Y877417D01*
X597428Y877539D01*
X598292Y877897D01*
X599034Y878466D01*
X599603Y879208D01*
X599961Y880073D01*
X600083Y881000D01*
X599961Y881927D01*
X599603Y882792D01*
X599034Y883534D01*
X598292Y884103D01*
X597428Y884461D01*
X596500Y884583D01*
D02*
G37*
G36*
X858500Y886583D02*
X857573Y886461D01*
X856708Y886103D01*
X855966Y885534D01*
X855397Y884792D01*
X855039Y883927D01*
X854917Y883000D01*
X855039Y882073D01*
X855397Y881208D01*
X855966Y880466D01*
X856708Y879897D01*
X857573Y879539D01*
X858500Y879417D01*
X859427Y879539D01*
X860292Y879897D01*
X861034Y880466D01*
X861603Y881208D01*
X861961Y882073D01*
X862083Y883000D01*
X861961Y883927D01*
X861603Y884792D01*
X861034Y885534D01*
X860292Y886103D01*
X859427Y886461D01*
X858500Y886583D01*
D02*
G37*
G36*
X596500Y864583D02*
X595573Y864461D01*
X594708Y864103D01*
X593966Y863534D01*
X593397Y862792D01*
X593039Y861927D01*
X592917Y861000D01*
X593039Y860073D01*
X593397Y859208D01*
X593966Y858466D01*
X594708Y857897D01*
X595573Y857539D01*
X596500Y857417D01*
X597428Y857539D01*
X598292Y857897D01*
X599034Y858466D01*
X599603Y859208D01*
X599961Y860073D01*
X600083Y861000D01*
X599961Y861927D01*
X599603Y862792D01*
X599034Y863534D01*
X598292Y864103D01*
X597428Y864461D01*
X596500Y864583D01*
D02*
G37*
G36*
X858500Y846583D02*
X857573Y846461D01*
X856708Y846103D01*
X855966Y845534D01*
X855397Y844792D01*
X855039Y843927D01*
X854917Y843000D01*
X855039Y842073D01*
X855397Y841208D01*
X855966Y840466D01*
X856708Y839897D01*
X857573Y839539D01*
X858500Y839417D01*
X859427Y839539D01*
X860292Y839897D01*
X861034Y840466D01*
X861603Y841208D01*
X861961Y842073D01*
X862083Y843000D01*
X861961Y843927D01*
X861603Y844792D01*
X861034Y845534D01*
X860292Y846103D01*
X859427Y846461D01*
X858500Y846583D01*
D02*
G37*
G36*
X596500Y854583D02*
X595573Y854461D01*
X594708Y854103D01*
X593966Y853534D01*
X593397Y852792D01*
X593039Y851927D01*
X592917Y851000D01*
X593039Y850073D01*
X593397Y849208D01*
X593966Y848466D01*
X594708Y847897D01*
X595573Y847539D01*
X596500Y847417D01*
X597428Y847539D01*
X598292Y847897D01*
X599034Y848466D01*
X599603Y849208D01*
X599961Y850073D01*
X600083Y851000D01*
X599961Y851927D01*
X599603Y852792D01*
X599034Y853534D01*
X598292Y854103D01*
X597428Y854461D01*
X596500Y854583D01*
D02*
G37*
G36*
X858500Y856583D02*
X857573Y856461D01*
X856708Y856103D01*
X855966Y855534D01*
X855397Y854792D01*
X855039Y853927D01*
X854917Y853000D01*
X855039Y852073D01*
X855397Y851208D01*
X855966Y850466D01*
X856708Y849897D01*
X857573Y849539D01*
X858500Y849417D01*
X859427Y849539D01*
X860292Y849897D01*
X861034Y850466D01*
X861603Y851208D01*
X861961Y852073D01*
X862083Y853000D01*
X861961Y853927D01*
X861603Y854792D01*
X861034Y855534D01*
X860292Y856103D01*
X859427Y856461D01*
X858500Y856583D01*
D02*
G37*
G36*
X616500Y906583D02*
X615573Y906461D01*
X614708Y906103D01*
X613966Y905534D01*
X613397Y904792D01*
X613039Y903927D01*
X612917Y903000D01*
X613039Y902073D01*
X613397Y901208D01*
X613966Y900466D01*
X614708Y899897D01*
X615573Y899539D01*
X616500Y899417D01*
X617427Y899539D01*
X618292Y899897D01*
X619034Y900466D01*
X619603Y901208D01*
X619961Y902073D01*
X620083Y903000D01*
X619961Y903927D01*
X619603Y904792D01*
X619034Y905534D01*
X618292Y906103D01*
X617427Y906461D01*
X616500Y906583D01*
D02*
G37*
G36*
X626500D02*
X625572Y906461D01*
X624708Y906103D01*
X623966Y905534D01*
X623397Y904792D01*
X623039Y903927D01*
X622917Y903000D01*
X623039Y902073D01*
X623397Y901208D01*
X623966Y900466D01*
X624708Y899897D01*
X625572Y899539D01*
X626500Y899417D01*
X627427Y899539D01*
X628292Y899897D01*
X629034Y900466D01*
X629603Y901208D01*
X629961Y902073D01*
X630083Y903000D01*
X629961Y903927D01*
X629603Y904792D01*
X629034Y905534D01*
X628292Y906103D01*
X627427Y906461D01*
X626500Y906583D01*
D02*
G37*
G36*
X636500D02*
X635572Y906461D01*
X634708Y906103D01*
X633966Y905534D01*
X633397Y904792D01*
X633039Y903927D01*
X632917Y903000D01*
X633039Y902073D01*
X633397Y901208D01*
X633966Y900466D01*
X634708Y899897D01*
X635572Y899539D01*
X636500Y899417D01*
X637428Y899539D01*
X638292Y899897D01*
X639034Y900466D01*
X639603Y901208D01*
X639961Y902073D01*
X640083Y903000D01*
X639961Y903927D01*
X639603Y904792D01*
X639034Y905534D01*
X638292Y906103D01*
X637428Y906461D01*
X636500Y906583D01*
D02*
G37*
G36*
X606500D02*
X605573Y906461D01*
X604708Y906103D01*
X603966Y905534D01*
X603397Y904792D01*
X603039Y903927D01*
X602917Y903000D01*
X603039Y902073D01*
X603397Y901208D01*
X603966Y900466D01*
X604708Y899897D01*
X605573Y899539D01*
X606500Y899417D01*
X607428Y899539D01*
X608292Y899897D01*
X609034Y900466D01*
X609603Y901208D01*
X609961Y902073D01*
X610083Y903000D01*
X609961Y903927D01*
X609603Y904792D01*
X609034Y905534D01*
X608292Y906103D01*
X607428Y906461D01*
X606500Y906583D01*
D02*
G37*
G36*
X600053Y894553D02*
X592947D01*
Y887447D01*
X600053D01*
Y894553D01*
D02*
G37*
G36*
X962000Y897039D02*
X960825Y896884D01*
X959731Y896431D01*
X958791Y895709D01*
X958069Y894769D01*
X957616Y893675D01*
X957461Y892500D01*
X957616Y891325D01*
X958069Y890231D01*
X958791Y889291D01*
X959731Y888569D01*
X960825Y888116D01*
X962000Y887961D01*
X963175Y888116D01*
X964269Y888569D01*
X965209Y889291D01*
X965931Y890231D01*
X966384Y891325D01*
X966539Y892500D01*
X966384Y893675D01*
X965931Y894769D01*
X965209Y895709D01*
X964269Y896431D01*
X963175Y896884D01*
X962000Y897039D01*
D02*
G37*
G36*
X858500Y896583D02*
X857573Y896461D01*
X856708Y896103D01*
X855966Y895534D01*
X855397Y894792D01*
X855039Y893927D01*
X854917Y893000D01*
X855039Y892073D01*
X855397Y891208D01*
X855966Y890466D01*
X856708Y889897D01*
X857573Y889539D01*
X858500Y889417D01*
X859427Y889539D01*
X860292Y889897D01*
X861034Y890466D01*
X861603Y891208D01*
X861961Y892073D01*
X862083Y893000D01*
X861961Y893927D01*
X861603Y894792D01*
X861034Y895534D01*
X860292Y896103D01*
X859427Y896461D01*
X858500Y896583D01*
D02*
G37*
%LPD*%
D11*
X721788Y758800D02*
D03*
X732812D02*
D03*
X721788Y784800D02*
D03*
X732812D02*
D03*
D12*
X1040000Y730488D02*
D03*
Y741512D02*
D03*
X1078000Y714488D02*
D03*
Y725512D02*
D03*
X1048000Y941512D02*
D03*
Y930488D02*
D03*
X711300Y775288D02*
D03*
Y786312D02*
D03*
Y766312D02*
D03*
Y755288D02*
D03*
X743300Y753288D02*
D03*
Y764312D02*
D03*
Y790312D02*
D03*
Y779288D02*
D03*
X736000Y954488D02*
D03*
Y965512D02*
D03*
D18*
X1028000Y742890D02*
D03*
Y729110D02*
D03*
D21*
X956492Y958992D02*
X1024500D01*
X882500Y863000D02*
X970500Y951000D01*
X1024500D01*
X870500Y873000D02*
X956492Y958992D01*
X1054488Y730488D02*
X1056500Y732500D01*
X1040000Y730488D02*
X1054488D01*
X1028012D02*
X1040000D01*
X1028000Y741512D02*
X1040000D01*
X1027512D02*
X1028000D01*
X1113000Y830000D02*
Y865488D01*
X1048000Y930488D02*
X1113000Y865488D01*
X1048000Y930500D02*
X1048500D01*
X1048000D02*
Y931500D01*
Y930488D02*
Y930500D01*
X1050000Y744000D02*
Y774500D01*
X1024500Y896000D02*
X1048000Y930000D01*
X1091000Y732000D02*
X1106000D01*
X1079000Y744000D02*
X1091000Y732000D01*
X858500Y863000D02*
X882500D01*
X859000Y873000D02*
X870500D01*
X796500Y903000D02*
Y924000D01*
Y902500D02*
Y903000D01*
X766000Y954500D02*
X796500Y924000D01*
X1024500Y966866D02*
X1048500Y942866D01*
X888000Y949000D02*
X893098Y954098D01*
X914693D01*
X765500Y955500D02*
X766000Y955000D01*
Y954500D02*
Y955000D01*
X703800Y764800D02*
X705300D01*
X703800Y771300D02*
X706300D01*
X703800D02*
X710250Y764850D01*
X706300Y771300D02*
X710800Y775800D01*
X703800Y762800D02*
Y764800D01*
Y762800D02*
X710300Y756300D01*
X703300Y778800D02*
Y779300D01*
X709800Y785800D01*
X721788Y751688D02*
Y758800D01*
X732812Y756512D02*
Y758800D01*
X727200Y750900D02*
X732812Y756512D01*
X720500Y786400D02*
Y792900D01*
X727400Y793200D02*
X733500Y787100D01*
X645400Y954100D02*
X696500Y903000D01*
X638100Y954100D02*
X645400D01*
X646500Y903000D02*
Y936300D01*
X638500Y944300D02*
X646500Y936300D01*
X637100Y974000D02*
X638000D01*
X662000D01*
X638000Y964000D02*
X662000D01*
X860047Y959689D02*
X860336Y959400D01*
X870100D01*
X843689Y948508D02*
Y955189D01*
X847900Y959400D01*
X870713Y954200D02*
X876406Y948508D01*
X854600Y954200D02*
X870713D01*
X849000Y959800D02*
X854600Y954200D01*
X810102Y954098D02*
X816307D01*
X736900Y965800D02*
X745100Y974000D01*
X745500Y964900D02*
Y966700D01*
X816600Y958200D02*
Y968800D01*
X1040000Y741512D02*
X1050488D01*
X1050000Y744000D02*
X1079000D01*
X745500Y962500D02*
Y966700D01*
X736600Y953600D02*
X745500Y962500D01*
X603500Y958800D02*
Y974300D01*
Y958800D02*
X627900Y934400D01*
D22*
X574000Y988000D02*
D03*
D23*
X594000D02*
D03*
D24*
X1015500Y749000D02*
D03*
X596500Y891000D02*
D03*
X858500Y653000D02*
D03*
X628000Y974000D02*
D03*
X662000D02*
D03*
D25*
X1015500Y739000D02*
D03*
Y729000D02*
D03*
X618500Y641000D02*
D03*
X628500D02*
D03*
X638500D02*
D03*
X648500D02*
D03*
X658500D02*
D03*
X668500D02*
D03*
X678500D02*
D03*
X688500D02*
D03*
X698500D02*
D03*
X708500D02*
D03*
X718500D02*
D03*
X728500D02*
D03*
X738500D02*
D03*
X748500D02*
D03*
X758500D02*
D03*
X768500D02*
D03*
X778500D02*
D03*
X788500D02*
D03*
X798500D02*
D03*
X808500D02*
D03*
X818500D02*
D03*
X828500D02*
D03*
X838500D02*
D03*
X848500D02*
D03*
X596500Y881000D02*
D03*
Y871000D02*
D03*
Y861000D02*
D03*
Y851000D02*
D03*
Y841000D02*
D03*
Y831000D02*
D03*
Y821000D02*
D03*
Y811000D02*
D03*
Y801000D02*
D03*
Y791000D02*
D03*
Y781000D02*
D03*
Y771000D02*
D03*
Y761000D02*
D03*
Y751000D02*
D03*
Y741000D02*
D03*
Y731000D02*
D03*
Y721000D02*
D03*
Y711000D02*
D03*
Y701000D02*
D03*
Y691000D02*
D03*
Y681000D02*
D03*
Y671000D02*
D03*
Y661000D02*
D03*
Y651000D02*
D03*
X836500Y903000D02*
D03*
X826500D02*
D03*
X816500D02*
D03*
X806500D02*
D03*
X796500D02*
D03*
X786500D02*
D03*
X776500D02*
D03*
X766500D02*
D03*
X756500D02*
D03*
X746500D02*
D03*
X736500D02*
D03*
X726500D02*
D03*
X716500D02*
D03*
X706500D02*
D03*
X696500D02*
D03*
X686500D02*
D03*
X676500D02*
D03*
X666500D02*
D03*
X656500D02*
D03*
X646500D02*
D03*
X636500D02*
D03*
X626500D02*
D03*
X616500D02*
D03*
X606500D02*
D03*
X858500Y663000D02*
D03*
Y673000D02*
D03*
Y683000D02*
D03*
Y693000D02*
D03*
Y703000D02*
D03*
Y713000D02*
D03*
Y723000D02*
D03*
Y733000D02*
D03*
Y743000D02*
D03*
Y753000D02*
D03*
Y763000D02*
D03*
Y773000D02*
D03*
Y783000D02*
D03*
Y793000D02*
D03*
Y803000D02*
D03*
Y813000D02*
D03*
Y823000D02*
D03*
Y833000D02*
D03*
Y843000D02*
D03*
Y853000D02*
D03*
Y863000D02*
D03*
Y873000D02*
D03*
Y883000D02*
D03*
Y893000D02*
D03*
X638000Y934000D02*
D03*
X628000D02*
D03*
X638000Y944000D02*
D03*
X628000D02*
D03*
X638000Y954000D02*
D03*
X628000D02*
D03*
X638000Y964000D02*
D03*
X628000D02*
D03*
X638000Y974000D02*
D03*
X662000Y964000D02*
D03*
D26*
X608500Y641000D02*
D03*
X846500Y903000D02*
D03*
D27*
X914693Y954098D02*
D03*
X816307D02*
D03*
D28*
X843689Y948508D02*
D03*
D29*
X849142Y959689D02*
D03*
X854595Y948508D02*
D03*
X860047Y959689D02*
D03*
X865500Y948508D02*
D03*
X870953Y959689D02*
D03*
X876406Y948508D02*
D03*
X881858Y959689D02*
D03*
X887311Y948508D02*
D03*
D31*
X1142500Y706000D02*
D03*
Y716000D02*
D03*
X1134500Y706000D02*
D03*
Y716000D02*
D03*
X1024500Y896000D02*
D03*
Y903874D02*
D03*
Y911748D02*
D03*
Y919622D02*
D03*
Y927496D02*
D03*
Y935370D02*
D03*
Y943244D02*
D03*
Y951118D02*
D03*
Y958992D02*
D03*
Y966866D02*
D03*
X1111500Y896000D02*
D03*
Y903874D02*
D03*
Y911748D02*
D03*
Y919622D02*
D03*
Y927496D02*
D03*
Y935370D02*
D03*
Y943244D02*
D03*
Y951118D02*
D03*
Y958992D02*
D03*
Y966866D02*
D03*
D32*
X816600Y968800D02*
D03*
X962000Y892500D02*
D03*
X970500Y950500D02*
D03*
X955000Y958500D02*
D03*
X1054500Y765000D02*
D03*
X720500Y792900D02*
D03*
X742800Y771700D02*
D03*
X720500Y751200D02*
D03*
X703800Y764800D02*
D03*
Y771300D02*
D03*
X941000Y1008500D02*
D03*
X691500Y930500D02*
D03*
X1153500Y808000D02*
D03*
X1113500Y828000D02*
D03*
X1050000Y742500D02*
D03*
X1121700Y688800D02*
D03*
X644300Y786200D02*
D03*
X1083500Y745500D02*
D03*
X1056000Y733000D02*
D03*
X1107000Y732500D02*
D03*
X583400Y961700D02*
D03*
X743100Y779300D02*
D03*
X743500Y753400D02*
D03*
X743000Y764200D02*
D03*
X727300Y751100D02*
D03*
X745500Y966700D02*
D03*
X766000Y954500D02*
D03*
X1050000Y775000D02*
D03*
X703300Y778800D02*
D03*
X643900Y760800D02*
D03*
X727400Y793200D02*
D03*
X743400Y790500D02*
D03*
X1078200Y725400D02*
D03*
X603500Y974300D02*
D03*
X745100Y974000D02*
D03*
X899200Y954400D02*
D03*
X1078100Y714600D02*
D03*
D33*
X1148000Y1000000D02*
D03*
X1146000Y618000D02*
D03*
X367000Y617500D02*
D03*
X373000Y1000500D02*
D03*
M02*
