%FSLAX25Y25*%
%MOIN*%
G70*
G01*
G75*
G04 Layer_Color=32896*
%ADD10R,0.06299X0.06299*%
%ADD11R,0.06299X0.07087*%
%ADD12R,0.07087X0.06299*%
%ADD13O,0.08268X0.01772*%
%ADD14R,0.04921X0.05709*%
%ADD15O,0.06890X0.01181*%
%ADD16O,0.01181X0.06890*%
%ADD17O,0.09055X0.02362*%
%ADD18R,0.06299X0.06299*%
%ADD19R,0.25000X0.11000*%
%ADD20R,0.11000X0.05000*%
%ADD21C,0.01000*%
%ADD22R,0.07284X0.07284*%
%ADD23C,0.07284*%
%ADD24R,0.05906X0.05906*%
%ADD25C,0.05906*%
%ADD26R,0.05906X0.05906*%
%ADD27C,0.18740*%
%ADD28R,0.06654X0.06654*%
%ADD29C,0.06654*%
%ADD30C,0.14000*%
%ADD31C,0.06000*%
%ADD32C,0.05000*%
%ADD33C,0.30000*%
%ADD34C,0.00984*%
%ADD35C,0.02362*%
%ADD36C,0.00787*%
%ADD37C,0.00500*%
%ADD38C,0.00591*%
%ADD39C,0.03000*%
%ADD40C,0.00800*%
%ADD41R,0.02165X0.05512*%
%ADD42R,0.05512X0.02165*%
%ADD43R,0.07099X0.07099*%
%ADD44R,0.07099X0.07887*%
%ADD45R,0.07887X0.07099*%
%ADD46O,0.09068X0.02572*%
%ADD47R,0.05721X0.06509*%
%ADD48O,0.07690X0.01981*%
%ADD49O,0.01981X0.07690*%
%ADD50O,0.09855X0.03162*%
%ADD51R,0.07099X0.07099*%
%ADD52R,0.25800X0.11800*%
%ADD53R,0.11800X0.05800*%
%ADD54R,0.08083X0.08083*%
%ADD55C,0.08083*%
%ADD56R,0.06706X0.06706*%
%ADD57C,0.06706*%
%ADD58R,0.06706X0.06706*%
%ADD59C,0.19540*%
%ADD60R,0.07453X0.07453*%
%ADD61C,0.07453*%
%ADD62C,0.14800*%
%ADD63C,0.06800*%
%ADD64C,0.05800*%
%ADD65C,0.30800*%
%ADD66C,0.00800*%
D36*
X1036850Y736433D02*
X1043150D01*
X1036850Y737181D02*
X1043150D01*
Y734819D02*
Y737181D01*
X1036850Y734819D02*
Y737181D01*
X1074850Y720433D02*
X1081150D01*
X1074850Y721181D02*
X1081150D01*
Y718819D02*
Y721181D01*
X1074850Y718819D02*
Y721181D01*
X1044850Y935567D02*
X1051150D01*
X1044850Y934819D02*
X1051150D01*
X1044850D02*
Y937181D01*
X1051150Y934819D02*
Y937181D01*
X708150Y781233D02*
X714450D01*
X708150Y781981D02*
X714450D01*
Y779619D02*
Y781981D01*
X708150Y779619D02*
Y781981D01*
X727733Y755650D02*
Y761950D01*
X728481Y755650D02*
Y761950D01*
X726119Y755650D02*
X728481D01*
X726119Y761950D02*
X728481D01*
X727733Y781650D02*
Y787950D01*
X728481Y781650D02*
Y787950D01*
X726119Y781650D02*
X728481D01*
X726119Y787950D02*
X728481D01*
X708150Y760367D02*
X714450D01*
X708150Y759619D02*
X714450D01*
X708150D02*
Y761981D01*
X714450Y759619D02*
Y761981D01*
X740150Y759233D02*
X746450D01*
X740150Y759981D02*
X746450D01*
Y757619D02*
Y759981D01*
X740150Y757619D02*
Y759981D01*
Y784367D02*
X746450D01*
X740150Y783619D02*
X746450D01*
X740150D02*
Y785981D01*
X746450Y783619D02*
Y785981D01*
X732850Y960433D02*
X739150D01*
X732850Y961181D02*
X739150D01*
Y958819D02*
Y961181D01*
X732850Y958819D02*
Y961181D01*
X1025244Y735803D02*
Y736197D01*
X1030756Y735803D02*
Y736197D01*
X1025244D02*
X1030756D01*
D37*
X1028501Y720499D02*
X1029000Y720999D01*
X1030000D01*
X1030500Y720499D01*
Y718500D01*
X1030000Y718000D01*
X1029000D01*
X1028501Y718500D01*
X1027501Y718000D02*
X1026501D01*
X1027001D01*
Y720999D01*
X1027501Y720499D01*
X1023002Y720999D02*
X1024002Y720499D01*
X1025002Y719499D01*
Y718500D01*
X1024502Y718000D01*
X1023502D01*
X1023002Y718500D01*
Y719000D01*
X1023502Y719499D01*
X1025002D01*
X1048951Y950549D02*
X1049450Y951049D01*
X1050450D01*
X1050950Y950549D01*
Y948550D01*
X1050450Y948050D01*
X1049450D01*
X1048951Y948550D01*
X1047951Y948050D02*
X1046951D01*
X1047451D01*
Y951049D01*
X1047951Y950549D01*
X1045452Y948550D02*
X1044952Y948050D01*
X1043952D01*
X1043452Y948550D01*
Y950549D01*
X1043952Y951049D01*
X1044952D01*
X1045452Y950549D01*
Y950049D01*
X1044952Y949549D01*
X1043452D01*
X722401Y766499D02*
X722900Y766999D01*
X723900D01*
X724400Y766499D01*
Y764500D01*
X723900Y764000D01*
X722900D01*
X722401Y764500D01*
X721401Y766499D02*
X720901Y766999D01*
X719902D01*
X719402Y766499D01*
Y765999D01*
X719902Y765499D01*
X720401D01*
X719902D01*
X719402Y765000D01*
Y764500D01*
X719902Y764000D01*
X720901D01*
X721401Y764500D01*
X1041001Y720499D02*
X1041500Y720999D01*
X1042500D01*
X1043000Y720499D01*
Y718500D01*
X1042500Y718000D01*
X1041500D01*
X1041001Y718500D01*
X1040001Y718000D02*
X1039001D01*
X1039501D01*
Y720999D01*
X1040001Y720499D01*
X1035502Y720999D02*
X1037502D01*
Y719499D01*
X1036502Y719999D01*
X1036002D01*
X1035502Y719499D01*
Y718500D01*
X1036002Y718000D01*
X1037002D01*
X1037502Y718500D01*
X1077899Y706401D02*
X1077400Y705901D01*
X1076400D01*
X1075900Y706401D01*
Y708400D01*
X1076400Y708900D01*
X1077400D01*
X1077899Y708400D01*
X1078899Y708900D02*
X1079899D01*
X1079399D01*
Y705901D01*
X1078899Y706401D01*
X1081398D02*
X1081898Y705901D01*
X1082898D01*
X1083398Y706401D01*
Y706901D01*
X1082898Y707401D01*
X1083398Y707900D01*
Y708400D01*
X1082898Y708900D01*
X1081898D01*
X1081398Y708400D01*
Y707900D01*
X1081898Y707401D01*
X1081398Y706901D01*
Y706401D01*
X1081898Y707401D02*
X1082898D01*
X736601Y974299D02*
X737101Y974799D01*
X738100D01*
X738600Y974299D01*
Y972300D01*
X738100Y971800D01*
X737101D01*
X736601Y972300D01*
X735601Y971800D02*
X734601D01*
X735101D01*
Y974799D01*
X735601Y974299D01*
X733102Y971800D02*
X732102D01*
X732602D01*
Y974799D01*
X733102Y974299D01*
X737499Y750999D02*
X737999Y750499D01*
Y749500D01*
X737499Y749000D01*
X735500D01*
X735000Y749500D01*
Y750499D01*
X735500Y750999D01*
X737999Y753998D02*
X737499Y752999D01*
X736500Y751999D01*
X735500D01*
X735000Y752499D01*
Y753499D01*
X735500Y753998D01*
X736000D01*
X736500Y753499D01*
Y751999D01*
X720399Y777101D02*
X719900Y776601D01*
X718900D01*
X718400Y777101D01*
Y779100D01*
X718900Y779600D01*
X719900D01*
X720399Y779100D01*
X723398Y776601D02*
X721399D01*
Y778100D01*
X722399Y777601D01*
X722898D01*
X723398Y778100D01*
Y779100D01*
X722898Y779600D01*
X721899D01*
X721399Y779100D01*
X737299Y792399D02*
X737799Y791899D01*
Y790900D01*
X737299Y790400D01*
X735300D01*
X734800Y790900D01*
Y791899D01*
X735300Y792399D01*
X734800Y794899D02*
X737799D01*
X736300Y793399D01*
Y795398D01*
X701801Y787301D02*
X701301Y787801D01*
Y788800D01*
X701801Y789300D01*
X703800D01*
X704300Y788800D01*
Y787801D01*
X703800Y787301D01*
X704300Y784302D02*
Y786301D01*
X702301Y784302D01*
X701801D01*
X701301Y784801D01*
Y785801D01*
X701801Y786301D01*
X702301Y756801D02*
X701801Y757301D01*
Y758300D01*
X702301Y758800D01*
X704300D01*
X704800Y758300D01*
Y757301D01*
X704300Y756801D01*
X704800Y755801D02*
Y754801D01*
Y755301D01*
X701801D01*
X702301Y755801D01*
M02*
