%FSLAX25Y25*%
%MOIN*%
G70*
G01*
G75*
G04 Layer_Color=65535*
%ADD10R,0.06299X0.06299*%
%ADD11R,0.06299X0.07087*%
%ADD12R,0.07087X0.06299*%
%ADD13O,0.08268X0.01772*%
%ADD14R,0.04921X0.05709*%
%ADD15O,0.06890X0.01181*%
%ADD16O,0.01181X0.06890*%
%ADD17O,0.09055X0.02362*%
%ADD18R,0.06299X0.06299*%
%ADD19R,0.25000X0.11000*%
%ADD20R,0.11000X0.05000*%
%ADD21C,0.01000*%
%ADD22R,0.07284X0.07284*%
%ADD23C,0.07284*%
%ADD24R,0.05906X0.05906*%
%ADD25C,0.05906*%
%ADD26R,0.05906X0.05906*%
%ADD27C,0.18740*%
%ADD28R,0.06654X0.06654*%
%ADD29C,0.06654*%
%ADD30C,0.14000*%
%ADD31C,0.06000*%
%ADD32C,0.05000*%
%ADD33C,0.30000*%
%ADD34C,0.00984*%
%ADD35C,0.02362*%
%ADD36C,0.00787*%
%ADD37C,0.00500*%
%ADD38C,0.00591*%
%ADD39C,0.03000*%
%ADD40C,0.00800*%
%ADD41R,0.02165X0.05512*%
%ADD42R,0.05512X0.02165*%
D21*
X1120500Y970000D02*
Y976000D01*
X1096500Y1000000D02*
X1120500Y976000D01*
X1040000Y1000000D02*
X1096500D01*
X1016000Y976000D02*
X1040000Y1000000D01*
X1016000Y967500D02*
Y976000D01*
X1048500Y1000000D02*
X1091000D01*
X1016000Y886000D02*
Y967500D01*
Y886000D02*
X1120500D01*
Y975500D01*
X604000Y614500D02*
Y620498D01*
X605999Y618499D01*
X607999Y620498D01*
Y614500D01*
X613997Y619498D02*
X612997Y620498D01*
X610998D01*
X609998Y619498D01*
Y618499D01*
X610998Y617499D01*
X612997D01*
X613997Y616499D01*
Y615500D01*
X612997Y614500D01*
X610998D01*
X609998Y615500D01*
X615996Y614500D02*
Y620498D01*
X618995D01*
X619995Y619498D01*
Y617499D01*
X618995Y616499D01*
X615996D01*
X624993Y614500D02*
Y620498D01*
X621994Y617499D01*
X625993D01*
X627992Y619498D02*
X628992Y620498D01*
X630991D01*
X631991Y619498D01*
Y618499D01*
X630991Y617499D01*
X629992D01*
X630991D01*
X631991Y616499D01*
Y615500D01*
X630991Y614500D01*
X628992D01*
X627992Y615500D01*
X633990Y619498D02*
X634990Y620498D01*
X636989D01*
X637989Y619498D01*
Y615500D01*
X636989Y614500D01*
X634990D01*
X633990Y615500D01*
Y619498D01*
X643987Y620498D02*
X639988D01*
Y617499D01*
X641988D01*
X639988D01*
Y614500D01*
X649985Y620498D02*
X645986D01*
Y617499D01*
X647986Y618499D01*
X648985D01*
X649985Y617499D01*
Y615500D01*
X648985Y614500D01*
X646986D01*
X645986Y615500D01*
X654984Y614500D02*
Y620498D01*
X651985Y617499D01*
X655983D01*
X657982Y619498D02*
X658982Y620498D01*
X660982D01*
X661981Y619498D01*
Y618499D01*
X660982Y617499D01*
X659982D01*
X660982D01*
X661981Y616499D01*
Y615500D01*
X660982Y614500D01*
X658982D01*
X657982Y615500D01*
X663981Y619498D02*
X664980Y620498D01*
X666980D01*
X667979Y619498D01*
Y618499D01*
X666980Y617499D01*
X667979Y616499D01*
Y615500D01*
X666980Y614500D01*
X664980D01*
X663981Y615500D01*
Y616499D01*
X664980Y617499D01*
X663981Y618499D01*
Y619498D01*
X664980Y617499D02*
X666980D01*
X669979Y614500D02*
Y618499D01*
X671978Y620498D01*
X673977Y618499D01*
Y614500D01*
Y617499D01*
X669979D01*
X687000Y1005000D02*
Y1010998D01*
X689999D01*
X690999Y1009998D01*
Y1007999D01*
X689999Y1006999D01*
X687000D01*
X688999D02*
X690999Y1005000D01*
X696997Y1009998D02*
X695997Y1010998D01*
X693998D01*
X692998Y1009998D01*
Y1008999D01*
X693998Y1007999D01*
X695997D01*
X696997Y1006999D01*
Y1006000D01*
X695997Y1005000D01*
X693998D01*
X692998Y1006000D01*
X702995Y1005000D02*
X698996D01*
X702995Y1008999D01*
Y1009998D01*
X701995Y1010998D01*
X699996D01*
X698996Y1009998D01*
X704994D02*
X705994Y1010998D01*
X707993D01*
X708993Y1009998D01*
Y1008999D01*
X707993Y1007999D01*
X706993D01*
X707993D01*
X708993Y1006999D01*
Y1006000D01*
X707993Y1005000D01*
X705994D01*
X704994Y1006000D01*
X714991Y1005000D02*
X710992D01*
X714991Y1008999D01*
Y1009998D01*
X713991Y1010998D01*
X711992D01*
X710992Y1009998D01*
X722988Y1010998D02*
X724988D01*
X723988D01*
Y1005000D01*
X722988D01*
X724988D01*
X727987D02*
Y1008999D01*
X730986D01*
X731986Y1007999D01*
Y1005000D01*
X734984Y1009998D02*
Y1008999D01*
X733985D01*
X735984D01*
X734984D01*
Y1006000D01*
X735984Y1005000D01*
X741982D02*
X739983D01*
X738983Y1006000D01*
Y1007999D01*
X739983Y1008999D01*
X741982D01*
X742982Y1007999D01*
Y1006999D01*
X738983D01*
X744981Y1008999D02*
Y1005000D01*
Y1006999D01*
X745981Y1007999D01*
X746981Y1008999D01*
X747980D01*
X751979Y1005000D02*
Y1009998D01*
Y1007999D01*
X750979D01*
X752979D01*
X751979D01*
Y1009998D01*
X752979Y1010998D01*
X756977Y1008999D02*
X758977D01*
X759976Y1007999D01*
Y1005000D01*
X756977D01*
X755978Y1006000D01*
X756977Y1006999D01*
X759976D01*
X765974Y1008999D02*
X762975D01*
X761976Y1007999D01*
Y1006000D01*
X762975Y1005000D01*
X765974D01*
X770973D02*
X768973D01*
X767974Y1006000D01*
Y1007999D01*
X768973Y1008999D01*
X770973D01*
X771973Y1007999D01*
Y1006999D01*
X767974D01*
X560599Y944998D02*
X558599D01*
X559599D01*
Y940000D01*
X558599Y939000D01*
X557600D01*
X556600Y940000D01*
X562598Y944998D02*
X566597D01*
X564597D01*
Y939000D01*
X568596D02*
Y942999D01*
X570596Y944998D01*
X572595Y942999D01*
Y939000D01*
Y941999D01*
X568596D01*
X578593Y943998D02*
X577593Y944998D01*
X575594D01*
X574594Y943998D01*
Y940000D01*
X575594Y939000D01*
X577593D01*
X578593Y940000D01*
Y941999D01*
X576593D01*
X586590Y939000D02*
Y944998D01*
X589589D01*
X590589Y943998D01*
Y941999D01*
X589589Y940999D01*
X586590D01*
X593588Y939000D02*
X595587D01*
X596587Y940000D01*
Y941999D01*
X595587Y942999D01*
X593588D01*
X592588Y941999D01*
Y940000D01*
X593588Y939000D01*
X598586Y942999D02*
Y939000D01*
Y940999D01*
X599586Y941999D01*
X600586Y942999D01*
X601585D01*
X605584Y943998D02*
Y942999D01*
X604585D01*
X606584D01*
X605584D01*
Y940000D01*
X606584Y939000D01*
X1030000Y684998D02*
Y680000D01*
X1031000Y679000D01*
X1032999D01*
X1033999Y680000D01*
Y684998D01*
X1039997Y683998D02*
X1038997Y684998D01*
X1036998D01*
X1035998Y683998D01*
Y682999D01*
X1036998Y681999D01*
X1038997D01*
X1039997Y680999D01*
Y680000D01*
X1038997Y679000D01*
X1036998D01*
X1035998Y680000D01*
X1041996Y684998D02*
Y679000D01*
X1044995D01*
X1045995Y680000D01*
Y680999D01*
X1044995Y681999D01*
X1041996D01*
X1044995D01*
X1045995Y682999D01*
Y683998D01*
X1044995Y684998D01*
X1041996D01*
X1053992D02*
X1055992D01*
X1054992D01*
Y679000D01*
X1053992D01*
X1055992D01*
X1058991D02*
Y682999D01*
X1061990D01*
X1062989Y681999D01*
Y679000D01*
X1065988Y683998D02*
Y682999D01*
X1064989D01*
X1066988D01*
X1065988D01*
Y680000D01*
X1066988Y679000D01*
X1072986D02*
X1070987D01*
X1069987Y680000D01*
Y681999D01*
X1070987Y682999D01*
X1072986D01*
X1073986Y681999D01*
Y680999D01*
X1069987D01*
X1075985Y682999D02*
Y679000D01*
Y680999D01*
X1076985Y681999D01*
X1077985Y682999D01*
X1078984D01*
X1082983Y679000D02*
Y683998D01*
Y681999D01*
X1081983D01*
X1083982D01*
X1082983D01*
Y683998D01*
X1083982Y684998D01*
X1087981Y682999D02*
X1089981D01*
X1090980Y681999D01*
Y679000D01*
X1087981D01*
X1086982Y680000D01*
X1087981Y680999D01*
X1090980D01*
X1096978Y682999D02*
X1093979D01*
X1092980Y681999D01*
Y680000D01*
X1093979Y679000D01*
X1096978D01*
X1101977D02*
X1099977D01*
X1098978Y680000D01*
Y681999D01*
X1099977Y682999D01*
X1101977D01*
X1102976Y681999D01*
Y680999D01*
X1098978D01*
X426000Y642000D02*
X416003D01*
X419336Y645332D01*
X416003Y648665D01*
X426000D01*
X417669Y658661D02*
X416003Y656995D01*
Y653663D01*
X417669Y651997D01*
X419336D01*
X421002Y653663D01*
Y656995D01*
X422668Y658661D01*
X424334D01*
X426000Y656995D01*
Y653663D01*
X424334Y651997D01*
X426000Y661994D02*
X416003D01*
Y666992D01*
X417669Y668658D01*
X421002D01*
X422668Y666992D01*
Y661994D01*
X426000Y676989D02*
X416003D01*
X421002Y671990D01*
Y678655D01*
X417669Y681987D02*
X416003Y683653D01*
Y686985D01*
X417669Y688652D01*
X419336D01*
X421002Y686985D01*
Y685319D01*
Y686985D01*
X422668Y688652D01*
X424334D01*
X426000Y686985D01*
Y683653D01*
X424334Y681987D01*
X417669Y691984D02*
X416003Y693650D01*
Y696982D01*
X417669Y698648D01*
X424334D01*
X426000Y696982D01*
Y693650D01*
X424334Y691984D01*
X417669D01*
X416003Y711977D02*
X426000D01*
Y716976D01*
X424334Y718642D01*
X422668D01*
X421002Y716976D01*
Y711977D01*
Y716976D01*
X419336Y718642D01*
X417669D01*
X416003Y716976D01*
Y711977D01*
X426000Y723640D02*
Y726972D01*
X424334Y728639D01*
X421002D01*
X419336Y726972D01*
Y723640D01*
X421002Y721974D01*
X424334D01*
X426000Y723640D01*
X419336Y733637D02*
Y736969D01*
X421002Y738635D01*
X426000D01*
Y733637D01*
X424334Y731971D01*
X422668Y733637D01*
Y738635D01*
X419336Y741968D02*
X426000D01*
X422668D01*
X421002Y743634D01*
X419336Y745300D01*
Y746966D01*
X416003Y758629D02*
X426000D01*
Y753631D01*
X424334Y751965D01*
X421002D01*
X419336Y753631D01*
Y758629D01*
X426000Y775290D02*
Y771958D01*
X416003D01*
Y775290D01*
X426000Y780289D02*
X416003D01*
Y785287D01*
X417669Y786953D01*
X421002D01*
X422668Y785287D01*
Y780289D01*
Y783621D02*
X426000Y786953D01*
Y795284D02*
Y791952D01*
X424334Y790285D01*
X421002D01*
X419336Y791952D01*
Y795284D01*
X421002Y796950D01*
X422668D01*
Y790285D01*
X419336Y800282D02*
X426000Y803615D01*
X419336Y806947D01*
X426000Y810279D02*
X424334D01*
Y811945D01*
X426000D01*
Y810279D01*
Y828606D02*
Y831939D01*
Y830272D01*
X416003D01*
X417669Y828606D01*
X426000Y836937D02*
Y840269D01*
X416003D01*
Y836937D01*
X431002Y645999D02*
X430002Y644999D01*
Y643000D01*
X431002Y642000D01*
X435000D01*
X436000Y643000D01*
Y644999D01*
X435000Y645999D01*
X432001Y648998D02*
Y650997D01*
X433001Y651997D01*
X436000D01*
Y648998D01*
X435000Y647998D01*
X434001Y648998D01*
Y651997D01*
X437999Y653996D02*
X432001D01*
Y656995D01*
X433001Y657995D01*
X435000D01*
X436000Y656995D01*
Y653996D01*
Y659994D02*
Y662993D01*
X435000Y663993D01*
X434001Y662993D01*
Y660994D01*
X433001Y659994D01*
X432001Y660994D01*
Y663993D01*
X431002Y666992D02*
X432001D01*
Y665992D01*
Y667992D01*
Y666992D01*
X435000D01*
X436000Y667992D01*
Y671990D02*
Y673990D01*
X435000Y674989D01*
X433001D01*
X432001Y673990D01*
Y671990D01*
X433001Y670991D01*
X435000D01*
X436000Y671990D01*
Y676989D02*
X432001D01*
Y679988D01*
X433001Y680987D01*
X436000D01*
Y685986D02*
Y683986D01*
X435000Y682987D01*
X433001D01*
X432001Y683986D01*
Y685986D01*
X433001Y686985D01*
X434001D01*
Y682987D01*
X436000Y698982D02*
Y694983D01*
X432001Y698982D01*
X431002D01*
X430002Y697982D01*
Y695983D01*
X431002Y694983D01*
Y700981D02*
X430002Y701981D01*
Y703980D01*
X431002Y704980D01*
X435000D01*
X436000Y703980D01*
Y701981D01*
X435000Y700981D01*
X431002D01*
X436000Y706979D02*
Y708978D01*
Y707979D01*
X430002D01*
X431002Y706979D01*
X436000Y715976D02*
Y711977D01*
X432001Y715976D01*
X431002D01*
X430002Y714976D01*
Y712977D01*
X431002Y711977D01*
X443502Y642000D02*
Y645999D01*
Y643999D01*
X449500D01*
Y650997D02*
Y648998D01*
X448500Y647998D01*
X446501D01*
X445501Y648998D01*
Y650997D01*
X446501Y651997D01*
X447501D01*
Y647998D01*
X445501Y654996D02*
Y656995D01*
X446501Y657995D01*
X449500D01*
Y654996D01*
X448500Y653996D01*
X447501Y654996D01*
Y657995D01*
X449500Y659994D02*
X445501D01*
Y660994D01*
X446501Y661994D01*
X449500D01*
X446501D01*
X445501Y662993D01*
X446501Y663993D01*
X449500D01*
Y671990D02*
X443502D01*
X445501Y673990D01*
X443502Y675989D01*
X449500D01*
Y680987D02*
Y678988D01*
X448500Y677988D01*
X446501D01*
X445501Y678988D01*
Y680987D01*
X446501Y681987D01*
X447501D01*
Y677988D01*
X449500Y683986D02*
X445501D01*
Y684986D01*
X446501Y685986D01*
X449500D01*
X446501D01*
X445501Y686985D01*
X446501Y687985D01*
X449500D01*
X443502Y689985D02*
X449500D01*
Y692983D01*
X448500Y693983D01*
X447501D01*
X446501D01*
X445501Y692983D01*
Y689985D01*
X449500Y698982D02*
Y696982D01*
X448500Y695983D01*
X446501D01*
X445501Y696982D01*
Y698982D01*
X446501Y699981D01*
X447501D01*
Y695983D01*
X445501Y701981D02*
X449500D01*
X447501D01*
X446501Y702980D01*
X445501Y703980D01*
Y704980D01*
X449500Y707979D02*
Y710978D01*
X448500Y711977D01*
X447501Y710978D01*
Y708978D01*
X446501Y707979D01*
X445501Y708978D01*
Y711977D01*
X464000Y664500D02*
X460001D01*
X458002Y666499D01*
X460001Y668499D01*
X464000D01*
X461001D01*
Y664500D01*
X460001Y670498D02*
X464000D01*
X462001D01*
X461001Y671498D01*
X460001Y672497D01*
Y673497D01*
X464000Y676496D02*
Y678496D01*
Y677496D01*
X460001D01*
Y676496D01*
X464000Y684493D02*
Y682494D01*
X463000Y681495D01*
X461001D01*
X460001Y682494D01*
Y684493D01*
X461001Y685493D01*
X462001D01*
Y681495D01*
X464000Y687493D02*
Y689492D01*
Y688492D01*
X458002D01*
Y687493D01*
X464000Y692491D02*
Y694490D01*
Y693491D01*
X458002D01*
Y692491D01*
X464000Y700488D02*
Y698489D01*
X463000Y697489D01*
X461001D01*
X460001Y698489D01*
Y700488D01*
X461001Y701488D01*
X462001D01*
Y697489D01*
X458002Y709485D02*
X464000D01*
Y712485D01*
X463000Y713484D01*
X462001D01*
X461001Y712485D01*
Y709485D01*
Y712485D01*
X460001Y713484D01*
X459002D01*
X458002Y712485D01*
Y709485D01*
X464000Y715484D02*
Y717483D01*
Y716483D01*
X458002D01*
Y715484D01*
X460001Y720482D02*
X463000D01*
X464000Y721482D01*
Y724481D01*
X460001D01*
X464000Y726480D02*
X460001D01*
Y727480D01*
X461001Y728479D01*
X464000D01*
X461001D01*
X460001Y729479D01*
X461001Y730479D01*
X464000D01*
X475000Y664500D02*
X469002D01*
X475000Y668499D01*
X469002D01*
X475000Y670498D02*
Y672497D01*
Y671498D01*
X471001D01*
Y670498D01*
Y679495D02*
Y676496D01*
X472001Y675496D01*
X474000D01*
X475000Y676496D01*
Y679495D01*
Y681495D02*
X469002D01*
X473000D02*
X471001Y684493D01*
X473000Y681495D02*
X475000Y684493D01*
X469002Y693491D02*
X475000D01*
Y696490D01*
X474000Y697489D01*
X473000D01*
X472001Y696490D01*
Y693491D01*
Y696490D01*
X471001Y697489D01*
X470002D01*
X469002Y696490D01*
Y693491D01*
X475000Y702488D02*
Y700488D01*
X474000Y699489D01*
X472001D01*
X471001Y700488D01*
Y702488D01*
X472001Y703487D01*
X473000D01*
Y699489D01*
X471001Y705487D02*
X475000D01*
X473000D01*
X472001Y706486D01*
X471001Y707486D01*
Y708486D01*
X470002Y712485D02*
X471001D01*
Y711485D01*
Y713484D01*
Y712485D01*
X474000D01*
X475000Y713484D01*
X471001Y716483D02*
X475000D01*
X473000D01*
X472001Y717483D01*
X471001Y718482D01*
Y719482D01*
Y723481D02*
Y725480D01*
X472001Y726480D01*
X475000D01*
Y723481D01*
X474000Y722481D01*
X473000Y723481D01*
Y726480D01*
X475000Y728479D02*
X471001D01*
Y731478D01*
X472001Y732478D01*
X475000D01*
X469002Y738476D02*
X475000D01*
Y735477D01*
X474000Y734477D01*
X472001D01*
X471001Y735477D01*
Y738476D01*
X484000Y664500D02*
X478002D01*
X480002Y666499D01*
X478002Y668499D01*
X484000D01*
Y670498D02*
Y672497D01*
Y671498D01*
X480002D01*
Y670498D01*
X484000Y675496D02*
X478002D01*
X482001D02*
X480002Y678496D01*
X482001Y675496D02*
X484000Y678496D01*
Y684493D02*
Y682494D01*
X483001Y681495D01*
X481001D01*
X480002Y682494D01*
Y684493D01*
X481001Y685493D01*
X482001D01*
Y681495D01*
X484000Y693491D02*
X478002D01*
X480002Y695490D01*
X478002Y697489D01*
X484000D01*
Y700488D02*
Y702488D01*
X483001Y703487D01*
X481001D01*
X480002Y702488D01*
Y700488D01*
X481001Y699489D01*
X483001D01*
X484000Y700488D01*
X480002Y705487D02*
Y709485D01*
X484000Y705487D01*
Y709485D01*
Y711485D02*
Y713484D01*
Y712485D01*
X480002D01*
Y711485D01*
X484000Y716483D02*
X480002D01*
Y719482D01*
X481001Y720482D01*
X484000D01*
X486000Y724481D02*
Y725480D01*
X485000Y726480D01*
X480002D01*
Y723481D01*
X481001Y722481D01*
X483001D01*
X484000Y723481D01*
Y726480D01*
Y729479D02*
Y731478D01*
X483001Y732478D01*
X481001D01*
X480002Y731478D01*
Y729479D01*
X481001Y728479D01*
X483001D01*
X484000Y729479D01*
X494499Y664500D02*
X490501D01*
X488502Y666499D01*
X490501Y668499D01*
X494499D01*
X491501D01*
Y664500D01*
X490501Y670498D02*
X494499D01*
X492500D01*
X491501Y671498D01*
X490501Y672497D01*
Y673497D01*
X494499Y676496D02*
X490501D01*
Y677496D01*
X491501Y678496D01*
X494499D01*
X491501D01*
X490501Y679495D01*
X491501Y680495D01*
X494499D01*
Y685493D02*
Y683494D01*
X493500Y682494D01*
X491501D01*
X490501Y683494D01*
Y685493D01*
X491501Y686493D01*
X492500D01*
Y682494D01*
X494499Y691491D02*
Y689492D01*
X493500Y688492D01*
X491501D01*
X490501Y689492D01*
Y691491D01*
X491501Y692491D01*
X492500D01*
Y688492D01*
X494499Y694490D02*
X490501D01*
Y697489D01*
X491501Y698489D01*
X494499D01*
X488502Y706486D02*
Y710485D01*
Y708486D01*
X494499D01*
X490501Y713484D02*
Y715484D01*
X491501Y716483D01*
X494499D01*
Y713484D01*
X493500Y712485D01*
X492500Y713484D01*
Y716483D01*
X494499Y721482D02*
Y719482D01*
X493500Y718482D01*
X491501D01*
X490501Y719482D01*
Y721482D01*
X491501Y722481D01*
X492500D01*
Y718482D01*
X488502Y724481D02*
X494499D01*
Y727480D01*
X493500Y728479D01*
X492500D01*
X491501D01*
X490501Y727480D01*
Y724481D01*
X497502Y664500D02*
X503500D01*
X501501D01*
X497502Y668499D01*
X500501Y665500D01*
X503500Y668499D01*
X497502Y670498D02*
X503500D01*
X500501D01*
X499501Y671498D01*
Y673497D01*
X500501Y674497D01*
X503500D01*
X499501Y677496D02*
Y679495D01*
X500501Y680495D01*
X503500D01*
Y677496D01*
X502500Y676496D01*
X501501Y677496D01*
Y680495D01*
X503500Y682494D02*
Y685493D01*
X502500Y686493D01*
X501501Y685493D01*
Y683494D01*
X500501Y682494D01*
X499501Y683494D01*
Y686493D01*
X497502Y688492D02*
X503500D01*
X500501D01*
X499501Y689492D01*
Y691491D01*
X500501Y692491D01*
X503500D01*
Y694490D02*
Y696490D01*
Y695490D01*
X499501D01*
Y694490D01*
X497502Y705487D02*
X503500Y709485D01*
X497502D02*
X503500Y705487D01*
Y711485D02*
Y713484D01*
Y712485D01*
X499501D01*
Y711485D01*
X503500Y717483D02*
Y719482D01*
X502500Y720482D01*
X500501D01*
X499501Y719482D01*
Y717483D01*
X500501Y716483D01*
X502500D01*
X503500Y717483D01*
Y722481D02*
X499501D01*
Y725480D01*
X500501Y726480D01*
X503500D01*
X505499Y730479D02*
Y731478D01*
X504500Y732478D01*
X499501D01*
Y729479D01*
X500501Y728479D01*
X502500D01*
X503500Y729479D01*
Y732478D01*
X400502Y885499D02*
X399502Y884499D01*
Y882500D01*
X400502Y881500D01*
X401501D01*
X402501Y882500D01*
Y884499D01*
X403501Y885499D01*
X404500D01*
X405500Y884499D01*
Y882500D01*
X404500Y881500D01*
X407499Y887498D02*
X401501D01*
Y890497D01*
X402501Y891497D01*
X404500D01*
X405500Y890497D01*
Y887498D01*
Y896495D02*
Y894496D01*
X404500Y893496D01*
X402501D01*
X401501Y894496D01*
Y896495D01*
X402501Y897495D01*
X403501D01*
Y893496D01*
X401501Y903493D02*
Y900494D01*
X402501Y899494D01*
X404500D01*
X405500Y900494D01*
Y903493D01*
Y905492D02*
Y907492D01*
Y906492D01*
X401501D01*
Y905492D01*
Y911490D02*
Y913490D01*
X402501Y914489D01*
X405500D01*
Y911490D01*
X404500Y910491D01*
X403501Y911490D01*
Y914489D01*
X405500Y916489D02*
Y918488D01*
Y917488D01*
X399502D01*
Y916489D01*
Y927485D02*
Y931484D01*
Y929484D01*
X405500D01*
X399502Y933483D02*
X405500D01*
X402501D01*
X401501Y934483D01*
Y936482D01*
X402501Y937482D01*
X405500D01*
X401501Y940481D02*
Y942480D01*
X402501Y943480D01*
X405500D01*
Y940481D01*
X404500Y939481D01*
X403501Y940481D01*
Y943480D01*
X405500Y945479D02*
X401501D01*
Y948478D01*
X402501Y949478D01*
X405500D01*
Y951477D02*
X399502D01*
X403501D02*
X401501Y954476D01*
X403501Y951477D02*
X405500Y954476D01*
Y957475D02*
Y960474D01*
X404500Y961474D01*
X403501Y960474D01*
Y958475D01*
X402501Y957475D01*
X401501Y958475D01*
Y961474D01*
X412002Y882500D02*
X418000D01*
Y885499D01*
X417000Y886499D01*
X416001D01*
X415001Y885499D01*
Y882500D01*
Y885499D01*
X414001Y886499D01*
X413002D01*
X412002Y885499D01*
Y882500D01*
X414001Y888498D02*
X418000D01*
X416001D01*
X415001Y889498D01*
X414001Y890497D01*
Y891497D01*
Y894496D02*
X417000D01*
X418000Y895496D01*
Y898495D01*
X414001D01*
Y904493D02*
Y901494D01*
X415001Y900494D01*
X417000D01*
X418000Y901494D01*
Y904493D01*
Y909491D02*
Y907492D01*
X417000Y906492D01*
X415001D01*
X414001Y907492D01*
Y909491D01*
X415001Y910491D01*
X416001D01*
Y906492D01*
X413002Y922487D02*
X412002Y921487D01*
Y919488D01*
X413002Y918488D01*
X417000D01*
X418000Y919488D01*
Y921487D01*
X417000Y922487D01*
X412002Y924486D02*
X418000D01*
X415001D01*
X414001Y925486D01*
Y927485D01*
X415001Y928485D01*
X418000D01*
Y933484D02*
Y931484D01*
X417000Y930484D01*
X415001D01*
X414001Y931484D01*
Y933484D01*
X415001Y934483D01*
X416001D01*
Y930484D01*
X418000Y936483D02*
X414001D01*
Y939482D01*
X415001Y940481D01*
X418000D01*
X1026000Y874498D02*
X1029999Y868500D01*
Y874498D02*
X1026000Y868500D01*
X1031998Y874498D02*
Y868500D01*
X1034997D01*
X1035997Y869500D01*
Y870499D01*
X1034997Y871499D01*
X1031998D01*
X1034997D01*
X1035997Y872499D01*
Y873498D01*
X1034997Y874498D01*
X1031998D01*
X1040995Y868500D02*
X1038996D01*
X1037996Y869500D01*
Y871499D01*
X1038996Y872499D01*
X1040995D01*
X1041995Y871499D01*
Y870499D01*
X1037996D01*
X1046993Y868500D02*
X1044994D01*
X1043994Y869500D01*
Y871499D01*
X1044994Y872499D01*
X1046993D01*
X1047993Y871499D01*
Y870499D01*
X1043994D01*
X1055990Y874498D02*
X1057990D01*
X1056990D01*
Y868500D01*
X1055990D01*
X1057990D01*
X1060989D02*
Y872499D01*
X1063988D01*
X1064987Y871499D01*
Y868500D01*
X1067986Y873498D02*
Y872499D01*
X1066987D01*
X1068986D01*
X1067986D01*
Y869500D01*
X1068986Y868500D01*
X1074984D02*
X1072985D01*
X1071985Y869500D01*
Y871499D01*
X1072985Y872499D01*
X1074984D01*
X1075984Y871499D01*
Y870499D01*
X1071985D01*
X1077983Y872499D02*
Y868500D01*
Y870499D01*
X1078983Y871499D01*
X1079982Y872499D01*
X1080982D01*
X1084981Y868500D02*
Y873498D01*
Y871499D01*
X1083981D01*
X1085981D01*
X1084981D01*
Y873498D01*
X1085981Y874498D01*
X1089979Y872499D02*
X1091979D01*
X1092978Y871499D01*
Y868500D01*
X1089979D01*
X1088980Y869500D01*
X1089979Y870499D01*
X1092978D01*
X1098976Y872499D02*
X1095977D01*
X1094978Y871499D01*
Y869500D01*
X1095977Y868500D01*
X1098976D01*
X1103975D02*
X1101975D01*
X1100976Y869500D01*
Y871499D01*
X1101975Y872499D01*
X1103975D01*
X1104974Y871499D01*
Y870499D01*
X1100976D01*
D34*
X565748Y987996D02*
G03*
X565748Y987996I-492J0D01*
G01*
X1066409Y754685D02*
G03*
X1066409Y754685I-492J0D01*
G01*
X694469Y798178D02*
G03*
X694469Y798178I-492J0D01*
G01*
X719079Y977847D02*
G03*
X719079Y977847I-492J0D01*
G01*
D35*
X1076744Y751732D02*
G03*
X1076744Y751732I-1181J0D01*
G01*
X704115Y792666D02*
G03*
X704115Y792666I-1181J0D01*
G01*
X729807Y973732D02*
G03*
X729807Y973732I-1181J0D01*
G01*
D36*
X900382Y1012386D02*
G03*
X897646Y1015122I-2736J0D01*
G01*
X900402Y994256D02*
G03*
X903138Y991520I2736J0D01*
G01*
X833354Y1015122D02*
G03*
X830618Y1012386I0J-2736D01*
G01*
X827862Y991520D02*
G03*
X830598Y994256I0J2736D01*
G01*
X1125472Y814394D02*
Y819905D01*
X1120748D02*
X1125472D01*
X1120748Y814394D02*
X1125472D01*
Y774394D02*
Y779906D01*
X1120748D02*
X1125472D01*
X1120748Y774394D02*
X1125472D01*
Y794394D02*
Y799905D01*
X1120748D02*
X1125472D01*
X1120748Y794394D02*
X1125472D01*
X1066319Y772350D02*
X1068681D01*
X1066319Y778650D02*
X1068681D01*
X1146819Y801150D02*
X1149181D01*
X1146819Y794850D02*
X1149181D01*
X657567Y782850D02*
Y789150D01*
X656819Y782850D02*
Y789150D01*
Y782850D02*
X659181D01*
X656819Y789150D02*
X659181D01*
X657567Y756850D02*
Y763150D01*
X656819Y756850D02*
Y763150D01*
Y756850D02*
X659181D01*
X656819Y763150D02*
X659181D01*
X567150Y993000D02*
X600850D01*
Y983000D02*
Y993000D01*
X567150Y983000D02*
X600850D01*
X567150D02*
Y993000D01*
X956650Y897319D02*
Y899681D01*
X950350Y897319D02*
Y899681D01*
X973650Y896819D02*
Y899181D01*
X967350Y896819D02*
Y899181D01*
X1010500Y724000D02*
Y754000D01*
Y724000D02*
X1020500D01*
Y754000D01*
X1010500D02*
X1020500D01*
X1066319Y768650D02*
X1068681D01*
X1066319Y762350D02*
X1068681D01*
X1071626Y714331D02*
Y755669D01*
X1087374Y714331D02*
Y755669D01*
X1071626D02*
X1087374D01*
X1071626Y714331D02*
X1087374D01*
X1118550Y701967D02*
X1124850D01*
X1118550Y701219D02*
X1124850D01*
Y703581D01*
X1118550Y701219D02*
Y703581D01*
X853500Y636000D02*
Y646000D01*
X603500Y636000D02*
X853500D01*
X603500D02*
Y646000D01*
X611000D01*
X853500D01*
X591500D02*
X601500D01*
X591500D02*
Y896000D01*
X601500D01*
Y888500D02*
Y896000D01*
Y646000D02*
Y888500D01*
X698997Y746997D02*
Y796603D01*
X748603Y746997D02*
Y796603D01*
X698997D02*
X748603D01*
X698997Y746997D02*
X748603D01*
X601500Y898000D02*
Y908000D01*
X851500D01*
Y898000D02*
Y908000D01*
X844000Y898000D02*
X851500D01*
X601500D02*
X844000D01*
X853500D02*
X863500D01*
Y648000D02*
Y898000D01*
X853500Y648000D02*
X863500D01*
X853500D02*
Y655500D01*
Y898000D01*
X724689Y936331D02*
Y977669D01*
X748311Y936331D02*
Y977669D01*
X724689D02*
X748311D01*
X724689Y936331D02*
X748311D01*
X761567Y982850D02*
Y989150D01*
X760819Y982850D02*
Y989150D01*
Y982850D02*
X763181D01*
X760819Y989150D02*
X763181D01*
X688350Y985067D02*
X694650D01*
X688350Y984319D02*
X694650D01*
Y986681D01*
X688350Y984319D02*
Y986681D01*
X688850Y963567D02*
X695150D01*
X688850Y962819D02*
X695150D01*
Y965181D01*
X688850Y962819D02*
Y965181D01*
X900402Y994256D02*
Y1012366D01*
X830598Y994256D02*
Y1012366D01*
X837941Y942681D02*
Y979689D01*
X804870Y991500D02*
X926130D01*
X893059Y942681D02*
Y979689D01*
X804870Y942681D02*
X926130D01*
X833354Y1015122D02*
X897646D01*
X804870Y942681D02*
Y991500D01*
X926130Y942681D02*
Y991500D01*
X804870Y979689D02*
X926130D01*
X688850Y944433D02*
X695150D01*
X688850Y945181D02*
X695150D01*
X688850Y942819D02*
Y945181D01*
X695150Y942819D02*
Y945181D01*
X570850Y966819D02*
Y969181D01*
X577150Y966819D02*
Y969181D01*
X590433Y970850D02*
Y977150D01*
X591181Y970850D02*
Y977150D01*
X588819D02*
X591181D01*
X588819Y970850D02*
X591181D01*
X1146819Y821150D02*
X1149181D01*
X1146819Y814850D02*
X1149181D01*
X1146819Y841150D02*
X1149181D01*
X1146819Y834850D02*
X1149181D01*
X1120748Y834394D02*
X1125472D01*
X1120748Y839905D02*
X1125472D01*
Y834394D02*
Y839905D01*
X951894Y921028D02*
Y925752D01*
X957405Y921028D02*
Y925752D01*
X951894Y921028D02*
X957405D01*
X966894Y920528D02*
Y925252D01*
X972406Y920528D02*
Y925252D01*
X966894Y920528D02*
X972406D01*
X1146819Y774850D02*
X1149181D01*
X1146819Y781150D02*
X1149181D01*
X623000Y929000D02*
Y979000D01*
X643000Y929000D02*
Y979000D01*
X623000D02*
X643000D01*
X623000Y929000D02*
X643000D01*
X667000Y959000D02*
Y979000D01*
X657000D02*
X667000D01*
X657000Y959000D02*
Y979000D01*
Y959000D02*
X667000D01*
D37*
X1079500Y801499D02*
Y799000D01*
X1080000Y798500D01*
X1080999D01*
X1081499Y799000D01*
Y801499D01*
X1084498Y800999D02*
X1083999Y801499D01*
X1082999D01*
X1082499Y800999D01*
Y800499D01*
X1082999Y800000D01*
X1083999D01*
X1084498Y799500D01*
Y799000D01*
X1083999Y798500D01*
X1082999D01*
X1082499Y799000D01*
X1085498Y801499D02*
Y798500D01*
X1086998D01*
X1087497Y799000D01*
Y799500D01*
X1086998Y800000D01*
X1085498D01*
X1086998D01*
X1087497Y800499D01*
Y800999D01*
X1086998Y801499D01*
X1085498D01*
X1091496D02*
X1093495D01*
X1092496D01*
Y798500D01*
X1094495Y801499D02*
X1096494Y798500D01*
Y801499D02*
X1094495Y798500D01*
X1097494Y801499D02*
Y798500D01*
X1098994D01*
X1099494Y799000D01*
Y800999D01*
X1098994Y801499D01*
X1097494D01*
X1079500Y780999D02*
Y778500D01*
X1080000Y778000D01*
X1080999D01*
X1081499Y778500D01*
Y780999D01*
X1084498Y780499D02*
X1083999Y780999D01*
X1082999D01*
X1082499Y780499D01*
Y779999D01*
X1082999Y779499D01*
X1083999D01*
X1084498Y779000D01*
Y778500D01*
X1083999Y778000D01*
X1082999D01*
X1082499Y778500D01*
X1085498Y780999D02*
Y778000D01*
X1086998D01*
X1087497Y778500D01*
Y779000D01*
X1086998Y779499D01*
X1085498D01*
X1086998D01*
X1087497Y779999D01*
Y780499D01*
X1086998Y780999D01*
X1085498D01*
X1091496Y778000D02*
Y780999D01*
X1092996D01*
X1093495Y780499D01*
Y779499D01*
X1092996Y779000D01*
X1091496D01*
X1092496D02*
X1093495Y778000D01*
X1094495Y780999D02*
X1096494Y778000D01*
Y780999D02*
X1094495Y778000D01*
X1097494Y780999D02*
Y778000D01*
X1098994D01*
X1099494Y778500D01*
Y780499D01*
X1098994Y780999D01*
X1097494D01*
X1079500Y820999D02*
X1080000Y821499D01*
X1080999D01*
X1081499Y820999D01*
Y820499D01*
X1080999Y820000D01*
X1080500D01*
X1080999D01*
X1081499Y819500D01*
Y819000D01*
X1080999Y818500D01*
X1080000D01*
X1079500Y819000D01*
X1082499Y818500D02*
Y819000D01*
X1082999D01*
Y818500D01*
X1082499D01*
X1084998Y820999D02*
X1085498Y821499D01*
X1086498D01*
X1086998Y820999D01*
Y820499D01*
X1086498Y820000D01*
X1085998D01*
X1086498D01*
X1086998Y819500D01*
Y819000D01*
X1086498Y818500D01*
X1085498D01*
X1084998Y819000D01*
X1087997Y821499D02*
Y819500D01*
X1088997Y818500D01*
X1089997Y819500D01*
Y821499D01*
X1093995Y818500D02*
Y821499D01*
X1095495D01*
X1095995Y820999D01*
Y820000D01*
X1095495Y819500D01*
X1093995D01*
X1097494Y818500D02*
X1098494D01*
X1098994Y819000D01*
Y820000D01*
X1098494Y820499D01*
X1097494D01*
X1096994Y820000D01*
Y819000D01*
X1097494Y818500D01*
X1099993Y820499D02*
Y819000D01*
X1100493Y818500D01*
X1100993Y819000D01*
X1101493Y818500D01*
X1101993Y819000D01*
Y820499D01*
X1104492Y818500D02*
X1103492D01*
X1102992Y819000D01*
Y820000D01*
X1103492Y820499D01*
X1104492D01*
X1104992Y820000D01*
Y819500D01*
X1102992D01*
X1105991Y820499D02*
Y818500D01*
Y819500D01*
X1106491Y820000D01*
X1106991Y820499D01*
X1107491D01*
X1039500Y774000D02*
Y776999D01*
X1041000D01*
X1041499Y776499D01*
Y775499D01*
X1041000Y775000D01*
X1039500D01*
X1040500D02*
X1041499Y774000D01*
X1042499Y776499D02*
X1042999Y776999D01*
X1043999D01*
X1044498Y776499D01*
Y775999D01*
X1043999Y775499D01*
X1043499D01*
X1043999D01*
X1044498Y775000D01*
Y774500D01*
X1043999Y774000D01*
X1042999D01*
X1042499Y774500D01*
X1080500Y841499D02*
X1082499Y838500D01*
Y841499D02*
X1080500Y838500D01*
X1083499Y841499D02*
Y838500D01*
X1084999D01*
X1085498Y839000D01*
Y839500D01*
X1084999Y839999D01*
X1083499D01*
X1084999D01*
X1085498Y840499D01*
Y840999D01*
X1084999Y841499D01*
X1083499D01*
X1087998Y838500D02*
X1086998D01*
X1086498Y839000D01*
Y839999D01*
X1086998Y840499D01*
X1087998D01*
X1088497Y839999D01*
Y839500D01*
X1086498D01*
X1090997Y838500D02*
X1089997D01*
X1089497Y839000D01*
Y839999D01*
X1089997Y840499D01*
X1090997D01*
X1091496Y839999D01*
Y839500D01*
X1089497D01*
X1096995Y841499D02*
X1095995D01*
X1095495Y840999D01*
Y839000D01*
X1095995Y838500D01*
X1096995D01*
X1097495Y839000D01*
Y840999D01*
X1096995Y841499D01*
X1098494Y838500D02*
Y840499D01*
X1099994D01*
X1100494Y839999D01*
Y838500D01*
X945001Y910500D02*
X948000Y912499D01*
X945001D02*
X948000Y910500D01*
X945001Y913499D02*
X948000D01*
Y914999D01*
X947500Y915498D01*
X947000D01*
X946500Y914999D01*
Y913499D01*
Y914999D01*
X946001Y915498D01*
X945501D01*
X945001Y914999D01*
Y913499D01*
X948000Y917998D02*
Y916998D01*
X947500Y916498D01*
X946500D01*
X946001Y916998D01*
Y917998D01*
X946500Y918497D01*
X947000D01*
Y916498D01*
X948000Y920997D02*
Y919997D01*
X947500Y919497D01*
X946500D01*
X946001Y919997D01*
Y920997D01*
X946500Y921496D01*
X947000D01*
Y919497D01*
X945001Y925495D02*
Y927495D01*
Y926495D01*
X948000D01*
X945001Y928494D02*
X948000Y930494D01*
X945001D02*
X948000Y928494D01*
X945001Y931493D02*
X948000D01*
Y932993D01*
X947500Y933493D01*
X945501D01*
X945001Y932993D01*
Y931493D01*
X976501Y910500D02*
X979500Y912499D01*
X976501D02*
X979500Y910500D01*
X976501Y913499D02*
X979500D01*
Y914999D01*
X979000Y915498D01*
X978500D01*
X978001Y914999D01*
Y913499D01*
Y914999D01*
X977501Y915498D01*
X977001D01*
X976501Y914999D01*
Y913499D01*
X979500Y917998D02*
Y916998D01*
X979000Y916498D01*
X978001D01*
X977501Y916998D01*
Y917998D01*
X978001Y918497D01*
X978500D01*
Y916498D01*
X979500Y920997D02*
Y919997D01*
X979000Y919497D01*
X978001D01*
X977501Y919997D01*
Y920997D01*
X978001Y921496D01*
X978500D01*
Y919497D01*
X979500Y925495D02*
X976501D01*
Y926995D01*
X977001Y927495D01*
X978001D01*
X978500Y926995D01*
Y925495D01*
Y926495D02*
X979500Y927495D01*
X976501Y928494D02*
X979500Y930494D01*
X976501D02*
X979500Y928494D01*
X976501Y931493D02*
X979500D01*
Y932993D01*
X979000Y933493D01*
X977001D01*
X976501Y932993D01*
Y931493D01*
X605599Y990099D02*
X605099Y990599D01*
X604100D01*
X603600Y990099D01*
Y989599D01*
X604100Y989100D01*
X605099D01*
X605599Y988600D01*
Y988100D01*
X605099Y987600D01*
X604100D01*
X603600Y988100D01*
X606599Y987600D02*
X607599D01*
X607099D01*
Y990599D01*
X606599Y990099D01*
X650701Y751299D02*
X650201Y750800D01*
Y749800D01*
X650701Y749300D01*
X652700D01*
X653200Y749800D01*
Y750800D01*
X652700Y751299D01*
X650701Y752299D02*
X650201Y752799D01*
Y753798D01*
X650701Y754298D01*
X651201D01*
X651700Y753798D01*
X652200Y754298D01*
X652700D01*
X653200Y753798D01*
Y752799D01*
X652700Y752299D01*
X652200D01*
X651700Y752799D01*
X651201Y752299D01*
X650701D01*
X651700Y752799D02*
Y753798D01*
X651501Y793599D02*
X651001Y793099D01*
Y792100D01*
X651501Y791600D01*
X653500D01*
X654000Y792100D01*
Y793099D01*
X653500Y793599D01*
X651001Y794599D02*
Y796598D01*
X651501D01*
X653500Y794599D01*
X654000D01*
X968000Y882000D02*
Y884999D01*
X969499D01*
X969999Y884499D01*
Y883500D01*
X969499Y883000D01*
X968000D01*
X969000D02*
X969999Y882000D01*
X970999Y882500D02*
X971499Y882000D01*
X972499D01*
X972998Y882500D01*
Y884499D01*
X972499Y884999D01*
X971499D01*
X970999Y884499D01*
Y883999D01*
X971499Y883500D01*
X972998D01*
X949500Y882000D02*
Y884999D01*
X951000D01*
X951499Y884499D01*
Y883500D01*
X951000Y883000D01*
X949500D01*
X950500D02*
X951499Y882000D01*
X952499Y884499D02*
X952999Y884999D01*
X953999D01*
X954498Y884499D01*
Y883999D01*
X953999Y883500D01*
X954498Y883000D01*
Y882500D01*
X953999Y882000D01*
X952999D01*
X952499Y882500D01*
Y883000D01*
X952999Y883500D01*
X952499Y883999D01*
Y884499D01*
X952999Y883500D02*
X953999D01*
X1039500Y764000D02*
Y766999D01*
X1041000D01*
X1041499Y766499D01*
Y765499D01*
X1041000Y765000D01*
X1039500D01*
X1040500D02*
X1041499Y764000D01*
X1043999D02*
Y766999D01*
X1042499Y765499D01*
X1044498D01*
X1003000Y750500D02*
Y753499D01*
X1004500D01*
X1004999Y752999D01*
Y752000D01*
X1004500Y751500D01*
X1003000D01*
X1007998Y753499D02*
X1006999Y752999D01*
X1005999Y752000D01*
Y751000D01*
X1006499Y750500D01*
X1007499D01*
X1007998Y751000D01*
Y751500D01*
X1007499Y752000D01*
X1005999D01*
X1041000Y985999D02*
Y983500D01*
X1041500Y983000D01*
X1042500D01*
X1042999Y983500D01*
Y985999D01*
X1045998D02*
X1043999D01*
Y984499D01*
X1044999Y984999D01*
X1045499D01*
X1045998Y984499D01*
Y983500D01*
X1045499Y983000D01*
X1044499D01*
X1043999Y983500D01*
X1113700Y739499D02*
Y736500D01*
X1115699D01*
X1116699D02*
X1117699D01*
X1117199D01*
Y739499D01*
X1116699Y738999D01*
X1079700Y753499D02*
Y751000D01*
X1080200Y750500D01*
X1081199D01*
X1081699Y751000D01*
Y753499D01*
X1082699Y752999D02*
X1083199Y753499D01*
X1084199D01*
X1084698Y752999D01*
Y752499D01*
X1084199Y752000D01*
X1083699D01*
X1084199D01*
X1084698Y751500D01*
Y751000D01*
X1084199Y750500D01*
X1083199D01*
X1082699Y751000D01*
X728600Y943699D02*
Y941200D01*
X729100Y940700D01*
X730099D01*
X730599Y941200D01*
Y943699D01*
X733598Y940700D02*
X731599D01*
X733598Y942699D01*
Y943199D01*
X733099Y943699D01*
X732099D01*
X731599Y943199D01*
X685800Y813799D02*
Y811300D01*
X686300Y810800D01*
X687299D01*
X687799Y811300D01*
Y813799D01*
X688799Y810800D02*
X689799D01*
X689299D01*
Y813799D01*
X688799Y813299D01*
X1159500Y797000D02*
Y799999D01*
X1160999D01*
X1161499Y799499D01*
Y798499D01*
X1160999Y798000D01*
X1159500D01*
X1160500D02*
X1161499Y797000D01*
X1164498Y799999D02*
X1163499Y799499D01*
X1162499Y798499D01*
Y797500D01*
X1162999Y797000D01*
X1163999D01*
X1164498Y797500D01*
Y798000D01*
X1163999Y798499D01*
X1162499D01*
X562900Y973300D02*
Y976299D01*
X564399D01*
X564899Y975799D01*
Y974800D01*
X564399Y974300D01*
X562900D01*
X563900D02*
X564899Y973300D01*
X565899D02*
X566899D01*
X566399D01*
Y976299D01*
X565899Y975799D01*
X623400Y921600D02*
Y924599D01*
X624899D01*
X625399Y924099D01*
Y923100D01*
X624899Y922600D01*
X623400D01*
X628398Y924599D02*
X626399D01*
Y923100D01*
X627399Y923599D01*
X627899D01*
X628398Y923100D01*
Y922100D01*
X627899Y921600D01*
X626899D01*
X626399Y922100D01*
X592000Y901000D02*
Y903999D01*
X593500D01*
X593999Y903499D01*
Y902499D01*
X593500Y902000D01*
X592000D01*
X596498Y901000D02*
Y903999D01*
X594999Y902499D01*
X596998D01*
X855500Y901000D02*
Y903999D01*
X856999D01*
X857499Y903499D01*
Y902499D01*
X856999Y902000D01*
X855500D01*
X858499Y903499D02*
X858999Y903999D01*
X859999D01*
X860498Y903499D01*
Y902999D01*
X859999Y902499D01*
X859499D01*
X859999D01*
X860498Y902000D01*
Y901500D01*
X859999Y901000D01*
X858999D01*
X858499Y901500D01*
X857000Y638000D02*
Y640999D01*
X858500D01*
X858999Y640499D01*
Y639500D01*
X858500Y639000D01*
X857000D01*
X861998Y638000D02*
X859999D01*
X861998Y639999D01*
Y640499D01*
X861499Y640999D01*
X860499D01*
X859999Y640499D01*
X592000Y636500D02*
Y639499D01*
X593500D01*
X593999Y638999D01*
Y637999D01*
X593500Y637500D01*
X592000D01*
X594999Y636500D02*
X595999D01*
X595499D01*
Y639499D01*
X594999Y638999D01*
X916999Y1008499D02*
X916000D01*
X916500D01*
Y1006000D01*
X916000Y1005500D01*
X915500D01*
X915000Y1006000D01*
X917999Y1005500D02*
X918999D01*
X918499D01*
Y1008499D01*
X917999Y1007999D01*
X1109499Y697299D02*
X1109000Y697799D01*
X1108000D01*
X1107500Y697299D01*
Y695300D01*
X1108000Y694800D01*
X1109000D01*
X1109499Y695300D01*
X1110499Y694800D02*
X1111499D01*
X1110999D01*
Y697799D01*
X1110499Y697299D01*
X1112998Y697799D02*
X1114998D01*
Y697299D01*
X1112998Y695300D01*
Y694800D01*
X592999Y964499D02*
X592499Y964999D01*
X591500D01*
X591000Y964499D01*
Y962500D01*
X591500Y962000D01*
X592499D01*
X592999Y962500D01*
X593999Y962000D02*
X594999D01*
X594499D01*
Y964999D01*
X593999Y964499D01*
X597998Y962000D02*
Y964999D01*
X596498Y963500D01*
X598498D01*
X679999Y950999D02*
X679499Y951499D01*
X678500D01*
X678000Y950999D01*
Y949000D01*
X678500Y948500D01*
X679499D01*
X679999Y949000D01*
X680999Y948500D02*
X681999D01*
X681499D01*
Y951499D01*
X680999Y950999D01*
X683498D02*
X683998Y951499D01*
X684998D01*
X685498Y950999D01*
Y950499D01*
X684998Y950000D01*
X684498D01*
X684998D01*
X685498Y949500D01*
Y949000D01*
X684998Y948500D01*
X683998D01*
X683498Y949000D01*
X679999Y971499D02*
X679499Y971999D01*
X678500D01*
X678000Y971499D01*
Y969500D01*
X678500Y969000D01*
X679499D01*
X679999Y969500D01*
X680999Y969000D02*
X681999D01*
X681499D01*
Y971999D01*
X680999Y971499D01*
X685498Y969000D02*
X683498D01*
X685498Y970999D01*
Y971499D01*
X684998Y971999D01*
X683998D01*
X683498Y971499D01*
X754999Y995499D02*
X754499Y995999D01*
X753500D01*
X753000Y995499D01*
Y993500D01*
X753500Y993000D01*
X754499D01*
X754999Y993500D01*
X755999Y993000D02*
X756999D01*
X756499D01*
Y995999D01*
X755999Y995499D01*
X758498D02*
X758998Y995999D01*
X759998D01*
X760498Y995499D01*
Y993500D01*
X759998Y993000D01*
X758998D01*
X758498Y993500D01*
Y995499D01*
X680499Y992999D02*
X679999Y993499D01*
X679000D01*
X678500Y992999D01*
Y991000D01*
X679000Y990500D01*
X679999D01*
X680499Y991000D01*
X681499D02*
X681999Y990500D01*
X682999D01*
X683498Y991000D01*
Y992999D01*
X682999Y993499D01*
X681999D01*
X681499Y992999D01*
Y992499D01*
X681999Y992000D01*
X683498D01*
X1133499Y694999D02*
X1132500D01*
X1133000D01*
Y692500D01*
X1132500Y692000D01*
X1132000D01*
X1131500Y692500D01*
X1136498Y692000D02*
X1134499D01*
X1136498Y693999D01*
Y694499D01*
X1135999Y694999D01*
X1134999D01*
X1134499Y694499D01*
X1160000Y816500D02*
Y819499D01*
X1161500D01*
X1161999Y818999D01*
Y817999D01*
X1161500Y817500D01*
X1160000D01*
X1161000D02*
X1161999Y816500D01*
X1164998D02*
X1162999D01*
X1164998Y818499D01*
Y818999D01*
X1164499Y819499D01*
X1163499D01*
X1162999Y818999D01*
X1144500Y846000D02*
Y848999D01*
X1146000D01*
X1146499Y848499D01*
Y847499D01*
X1146000Y847000D01*
X1144500D01*
X1145500D02*
X1146499Y846000D01*
X1147499Y848999D02*
X1149498D01*
Y848499D01*
X1147499Y846500D01*
Y846000D01*
X1159500Y777500D02*
Y780499D01*
X1160999D01*
X1161499Y779999D01*
Y779000D01*
X1160999Y778500D01*
X1159500D01*
X1160500D02*
X1161499Y777500D01*
X1164498Y780499D02*
X1162499D01*
Y779000D01*
X1163499Y779499D01*
X1163999D01*
X1164498Y779000D01*
Y778000D01*
X1163999Y777500D01*
X1162999D01*
X1162499Y778000D01*
X656700Y981100D02*
Y984099D01*
X658200D01*
X658699Y983599D01*
Y982600D01*
X658200Y982100D01*
X656700D01*
X659699Y984099D02*
X661698D01*
Y983599D01*
X659699Y981600D01*
Y981100D01*
D38*
X851109Y977817D02*
X849141Y976833D01*
X847173Y974865D01*
Y972897D01*
X848157Y971913D01*
X850125D01*
X851109Y972897D01*
Y973881D01*
X850125Y974865D01*
X847173D01*
X879890Y972897D02*
X880874Y971913D01*
X882842D01*
X883825Y972897D01*
Y976833D01*
X882842Y977817D01*
X880874D01*
X879890Y976833D01*
Y975849D01*
X880874Y974865D01*
X883825D01*
X889278Y940809D02*
X885343D01*
Y937857D01*
X887310Y938841D01*
X888294D01*
X889278Y937857D01*
Y935890D01*
X888294Y934906D01*
X886326D01*
X885343Y935890D01*
D39*
X396500Y663994D02*
Y650665D01*
X389836Y644000D01*
X376506D01*
X369842Y650665D01*
Y663994D01*
X376506Y670658D01*
X383171D01*
Y644000D01*
X369842Y683987D02*
X389836D01*
X396500Y690652D01*
Y710645D01*
X403164D01*
X409829Y703981D01*
Y697316D01*
X396500Y710645D02*
X369842D01*
X396500Y743968D02*
Y730639D01*
X389836Y723974D01*
X376506D01*
X369842Y730639D01*
Y743968D01*
X376506Y750632D01*
X383171D01*
Y723974D01*
X363177Y790619D02*
X356513Y783955D01*
Y770626D01*
X363177Y763961D01*
X389836D01*
X396500Y770626D01*
Y783955D01*
X389836Y790619D01*
X356513Y803948D02*
X389836D01*
X396500Y810613D01*
Y823942D01*
X389836Y830606D01*
X356513D01*
D40*
X626000Y983500D02*
Y981834D01*
Y982667D01*
X630998D01*
X630165Y983500D01*
X633500Y982168D02*
Y985500D01*
X636832Y982168D01*
X637665D01*
X638498Y983001D01*
Y984667D01*
X637665Y985500D01*
D41*
X1124390Y817150D02*
D03*
Y777150D02*
D03*
Y797150D02*
D03*
Y837150D02*
D03*
D42*
X954650Y922110D02*
D03*
X969650Y921610D02*
D03*
M02*
